<?xml version="1.0" encoding="utf-8" standalone="no"?>
<!DOCTYPE svg PUBLIC "-//W3C//DTD SVG 1.1//EN"
  "http://www.w3.org/Graphics/SVG/1.1/DTD/svg11.dtd">
<!-- Created with matplotlib (https://matplotlib.org/) -->
<svg height="288pt" version="1.1" viewBox="0 0 432 288" width="432pt" xmlns="http://www.w3.org/2000/svg" xmlns:xlink="http://www.w3.org/1999/xlink">
 <defs>
  <style type="text/css">
*{stroke-linecap:butt;stroke-linejoin:round;}
  </style>
 </defs>
 <g id="figure_1">
  <g id="patch_1">
   <path d="M 0 288 
L 432 288 
L 432 0 
L 0 0 
z
" style="fill:#ffffff;"/>
  </g>
  <g id="axes_1">
   <g id="patch_2">
    <path d="M 54 252 
L 388.8 252 
L 388.8 34.56 
L 54 34.56 
z
" style="fill:#eaeaf2;"/>
   </g>
   <g id="matplotlib.axis_1">
    <g id="xtick_1">
     <g id="line2d_1">
      <path clip-path="url(#p7c6ef5732c)" d="M 82.226986 252 
L 82.226986 34.56 
" style="fill:none;stroke:#ffffff;stroke-linecap:round;"/>
     </g>
     <g id="text_1">
      <!-- −0.16 -->
      <defs>
       <path d="M 52.828125 31.203125 
L 5.5625 31.203125 
L 5.5625 39.40625 
L 52.828125 39.40625 
z
" id="ArialMT-8722"/>
       <path d="M 4.15625 35.296875 
Q 4.15625 48 6.765625 55.734375 
Q 9.375 63.484375 14.515625 67.671875 
Q 19.671875 71.875 27.484375 71.875 
Q 33.25 71.875 37.59375 69.546875 
Q 41.9375 67.234375 44.765625 62.859375 
Q 47.609375 58.5 49.21875 52.21875 
Q 50.828125 45.953125 50.828125 35.296875 
Q 50.828125 22.703125 48.234375 14.96875 
Q 45.65625 7.234375 40.5 3 
Q 35.359375 -1.21875 27.484375 -1.21875 
Q 17.140625 -1.21875 11.234375 6.203125 
Q 4.15625 15.140625 4.15625 35.296875 
z
M 13.1875 35.296875 
Q 13.1875 17.671875 17.3125 11.828125 
Q 21.4375 6 27.484375 6 
Q 33.546875 6 37.671875 11.859375 
Q 41.796875 17.71875 41.796875 35.296875 
Q 41.796875 52.984375 37.671875 58.78125 
Q 33.546875 64.59375 27.390625 64.59375 
Q 21.34375 64.59375 17.71875 59.46875 
Q 13.1875 52.9375 13.1875 35.296875 
z
" id="ArialMT-48"/>
       <path d="M 9.078125 0 
L 9.078125 10.015625 
L 19.09375 10.015625 
L 19.09375 0 
z
" id="ArialMT-46"/>
       <path d="M 37.25 0 
L 28.46875 0 
L 28.46875 56 
Q 25.296875 52.984375 20.140625 49.953125 
Q 14.984375 46.921875 10.890625 45.40625 
L 10.890625 53.90625 
Q 18.265625 57.375 23.78125 62.296875 
Q 29.296875 67.234375 31.59375 71.875 
L 37.25 71.875 
z
" id="ArialMT-49"/>
       <path d="M 49.75 54.046875 
L 41.015625 53.375 
Q 39.84375 58.546875 37.703125 60.890625 
Q 34.125 64.65625 28.90625 64.65625 
Q 24.703125 64.65625 21.53125 62.3125 
Q 17.390625 59.28125 14.984375 53.46875 
Q 12.59375 47.65625 12.5 36.921875 
Q 15.671875 41.75 20.265625 44.09375 
Q 24.859375 46.4375 29.890625 46.4375 
Q 38.671875 46.4375 44.84375 39.96875 
Q 51.03125 33.5 51.03125 23.25 
Q 51.03125 16.5 48.125 10.71875 
Q 45.21875 4.9375 40.140625 1.859375 
Q 35.0625 -1.21875 28.609375 -1.21875 
Q 17.625 -1.21875 10.6875 6.859375 
Q 3.765625 14.9375 3.765625 33.5 
Q 3.765625 54.25 11.421875 63.671875 
Q 18.109375 71.875 29.4375 71.875 
Q 37.890625 71.875 43.28125 67.140625 
Q 48.6875 62.40625 49.75 54.046875 
z
M 13.875 23.1875 
Q 13.875 18.65625 15.796875 14.5 
Q 17.71875 10.359375 21.1875 8.171875 
Q 24.65625 6 28.46875 6 
Q 34.03125 6 38.03125 10.484375 
Q 42.046875 14.984375 42.046875 22.703125 
Q 42.046875 30.125 38.078125 34.390625 
Q 34.125 38.671875 28.125 38.671875 
Q 22.171875 38.671875 18.015625 34.390625 
Q 13.875 30.125 13.875 23.1875 
z
" id="ArialMT-54"/>
      </defs>
      <g style="fill:#262626;" transform="translate(68.311127 269.373594)scale(0.11 -0.11)">
       <use xlink:href="#ArialMT-8722"/>
       <use x="58.398438" xlink:href="#ArialMT-48"/>
       <use x="114.013672" xlink:href="#ArialMT-46"/>
       <use x="141.796875" xlink:href="#ArialMT-49"/>
       <use x="197.412109" xlink:href="#ArialMT-54"/>
      </g>
     </g>
    </g>
    <g id="xtick_2">
     <g id="line2d_2">
      <path clip-path="url(#p7c6ef5732c)" d="M 123.150179 252 
L 123.150179 34.56 
" style="fill:none;stroke:#ffffff;stroke-linecap:round;"/>
     </g>
     <g id="text_2">
      <!-- −0.14 -->
      <defs>
       <path d="M 32.328125 0 
L 32.328125 17.140625 
L 1.265625 17.140625 
L 1.265625 25.203125 
L 33.9375 71.578125 
L 41.109375 71.578125 
L 41.109375 25.203125 
L 50.78125 25.203125 
L 50.78125 17.140625 
L 41.109375 17.140625 
L 41.109375 0 
z
M 32.328125 25.203125 
L 32.328125 57.46875 
L 9.90625 25.203125 
z
" id="ArialMT-52"/>
      </defs>
      <g style="fill:#262626;" transform="translate(109.234319 269.373594)scale(0.11 -0.11)">
       <use xlink:href="#ArialMT-8722"/>
       <use x="58.398438" xlink:href="#ArialMT-48"/>
       <use x="114.013672" xlink:href="#ArialMT-46"/>
       <use x="141.796875" xlink:href="#ArialMT-49"/>
       <use x="197.412109" xlink:href="#ArialMT-52"/>
      </g>
     </g>
    </g>
    <g id="xtick_3">
     <g id="line2d_3">
      <path clip-path="url(#p7c6ef5732c)" d="M 164.073371 252 
L 164.073371 34.56 
" style="fill:none;stroke:#ffffff;stroke-linecap:round;"/>
     </g>
     <g id="text_3">
      <!-- −0.12 -->
      <defs>
       <path d="M 50.34375 8.453125 
L 50.34375 0 
L 3.03125 0 
Q 2.9375 3.171875 4.046875 6.109375 
Q 5.859375 10.9375 9.828125 15.625 
Q 13.8125 20.3125 21.34375 26.46875 
Q 33.015625 36.03125 37.109375 41.625 
Q 41.21875 47.21875 41.21875 52.203125 
Q 41.21875 57.421875 37.46875 61 
Q 33.734375 64.59375 27.734375 64.59375 
Q 21.390625 64.59375 17.578125 60.78125 
Q 13.765625 56.984375 13.71875 50.25 
L 4.6875 51.171875 
Q 5.609375 61.28125 11.65625 66.578125 
Q 17.71875 71.875 27.9375 71.875 
Q 38.234375 71.875 44.234375 66.15625 
Q 50.25 60.453125 50.25 52 
Q 50.25 47.703125 48.484375 43.546875 
Q 46.734375 39.40625 42.65625 34.8125 
Q 38.578125 30.21875 29.109375 22.21875 
Q 21.1875 15.578125 18.9375 13.203125 
Q 16.703125 10.84375 15.234375 8.453125 
z
" id="ArialMT-50"/>
      </defs>
      <g style="fill:#262626;" transform="translate(150.157512 269.373594)scale(0.11 -0.11)">
       <use xlink:href="#ArialMT-8722"/>
       <use x="58.398438" xlink:href="#ArialMT-48"/>
       <use x="114.013672" xlink:href="#ArialMT-46"/>
       <use x="141.796875" xlink:href="#ArialMT-49"/>
       <use x="197.412109" xlink:href="#ArialMT-50"/>
      </g>
     </g>
    </g>
    <g id="xtick_4">
     <g id="line2d_4">
      <path clip-path="url(#p7c6ef5732c)" d="M 204.996564 252 
L 204.996564 34.56 
" style="fill:none;stroke:#ffffff;stroke-linecap:round;"/>
     </g>
     <g id="text_4">
      <!-- −0.10 -->
      <g style="fill:#262626;" transform="translate(191.080704 269.373594)scale(0.11 -0.11)">
       <use xlink:href="#ArialMT-8722"/>
       <use x="58.398438" xlink:href="#ArialMT-48"/>
       <use x="114.013672" xlink:href="#ArialMT-46"/>
       <use x="141.796875" xlink:href="#ArialMT-49"/>
       <use x="197.412109" xlink:href="#ArialMT-48"/>
      </g>
     </g>
    </g>
    <g id="xtick_5">
     <g id="line2d_5">
      <path clip-path="url(#p7c6ef5732c)" d="M 245.919756 252 
L 245.919756 34.56 
" style="fill:none;stroke:#ffffff;stroke-linecap:round;"/>
     </g>
     <g id="text_5">
      <!-- −0.08 -->
      <defs>
       <path d="M 17.671875 38.8125 
Q 12.203125 40.828125 9.5625 44.53125 
Q 6.9375 48.25 6.9375 53.421875 
Q 6.9375 61.234375 12.546875 66.546875 
Q 18.171875 71.875 27.484375 71.875 
Q 36.859375 71.875 42.578125 66.421875 
Q 48.296875 60.984375 48.296875 53.171875 
Q 48.296875 48.1875 45.671875 44.5 
Q 43.0625 40.828125 37.75 38.8125 
Q 44.34375 36.671875 47.78125 31.875 
Q 51.21875 27.09375 51.21875 20.453125 
Q 51.21875 11.28125 44.71875 5.03125 
Q 38.234375 -1.21875 27.640625 -1.21875 
Q 17.046875 -1.21875 10.546875 5.046875 
Q 4.046875 11.328125 4.046875 20.703125 
Q 4.046875 27.6875 7.59375 32.390625 
Q 11.140625 37.109375 17.671875 38.8125 
z
M 15.921875 53.71875 
Q 15.921875 48.640625 19.1875 45.40625 
Q 22.46875 42.1875 27.6875 42.1875 
Q 32.765625 42.1875 36.015625 45.375 
Q 39.265625 48.578125 39.265625 53.21875 
Q 39.265625 58.0625 35.90625 61.359375 
Q 32.5625 64.65625 27.59375 64.65625 
Q 22.5625 64.65625 19.234375 61.421875 
Q 15.921875 58.203125 15.921875 53.71875 
z
M 13.09375 20.65625 
Q 13.09375 16.890625 14.875 13.375 
Q 16.65625 9.859375 20.171875 7.921875 
Q 23.6875 6 27.734375 6 
Q 34.03125 6 38.125 10.046875 
Q 42.234375 14.109375 42.234375 20.359375 
Q 42.234375 26.703125 38.015625 30.859375 
Q 33.796875 35.015625 27.4375 35.015625 
Q 21.234375 35.015625 17.15625 30.90625 
Q 13.09375 26.8125 13.09375 20.65625 
z
" id="ArialMT-56"/>
      </defs>
      <g style="fill:#262626;" transform="translate(232.003897 269.373594)scale(0.11 -0.11)">
       <use xlink:href="#ArialMT-8722"/>
       <use x="58.398438" xlink:href="#ArialMT-48"/>
       <use x="114.013672" xlink:href="#ArialMT-46"/>
       <use x="141.796875" xlink:href="#ArialMT-48"/>
       <use x="197.412109" xlink:href="#ArialMT-56"/>
      </g>
     </g>
    </g>
    <g id="xtick_6">
     <g id="line2d_6">
      <path clip-path="url(#p7c6ef5732c)" d="M 286.842949 252 
L 286.842949 34.56 
" style="fill:none;stroke:#ffffff;stroke-linecap:round;"/>
     </g>
     <g id="text_6">
      <!-- −0.06 -->
      <g style="fill:#262626;" transform="translate(272.927089 269.373594)scale(0.11 -0.11)">
       <use xlink:href="#ArialMT-8722"/>
       <use x="58.398438" xlink:href="#ArialMT-48"/>
       <use x="114.013672" xlink:href="#ArialMT-46"/>
       <use x="141.796875" xlink:href="#ArialMT-48"/>
       <use x="197.412109" xlink:href="#ArialMT-54"/>
      </g>
     </g>
    </g>
    <g id="xtick_7">
     <g id="line2d_7">
      <path clip-path="url(#p7c6ef5732c)" d="M 327.766141 252 
L 327.766141 34.56 
" style="fill:none;stroke:#ffffff;stroke-linecap:round;"/>
     </g>
     <g id="text_7">
      <!-- −0.04 -->
      <g style="fill:#262626;" transform="translate(313.850282 269.373594)scale(0.11 -0.11)">
       <use xlink:href="#ArialMT-8722"/>
       <use x="58.398438" xlink:href="#ArialMT-48"/>
       <use x="114.013672" xlink:href="#ArialMT-46"/>
       <use x="141.796875" xlink:href="#ArialMT-48"/>
       <use x="197.412109" xlink:href="#ArialMT-52"/>
      </g>
     </g>
    </g>
    <g id="xtick_8">
     <g id="line2d_8">
      <path clip-path="url(#p7c6ef5732c)" d="M 368.689334 252 
L 368.689334 34.56 
" style="fill:none;stroke:#ffffff;stroke-linecap:round;"/>
     </g>
     <g id="text_8">
      <!-- −0.02 -->
      <g style="fill:#262626;" transform="translate(354.773475 269.373594)scale(0.11 -0.11)">
       <use xlink:href="#ArialMT-8722"/>
       <use x="58.398438" xlink:href="#ArialMT-48"/>
       <use x="114.013672" xlink:href="#ArialMT-46"/>
       <use x="141.796875" xlink:href="#ArialMT-48"/>
       <use x="197.412109" xlink:href="#ArialMT-50"/>
      </g>
     </g>
    </g>
    <g id="text_9">
     <!-- Growth Rate -->
     <defs>
      <path d="M 41.21875 28.078125 
L 41.21875 36.46875 
L 71.53125 36.53125 
L 71.53125 9.96875 
Q 64.546875 4.390625 57.125 1.578125 
Q 49.703125 -1.21875 41.890625 -1.21875 
Q 31.34375 -1.21875 22.71875 3.296875 
Q 14.109375 7.8125 9.71875 16.359375 
Q 5.328125 24.90625 5.328125 35.453125 
Q 5.328125 45.90625 9.6875 54.953125 
Q 14.0625 64.015625 22.265625 68.40625 
Q 30.46875 72.796875 41.15625 72.796875 
Q 48.921875 72.796875 55.1875 70.28125 
Q 61.46875 67.78125 65.03125 63.28125 
Q 68.609375 58.796875 70.453125 51.5625 
L 61.921875 49.21875 
Q 60.296875 54.6875 57.90625 57.8125 
Q 55.515625 60.9375 51.0625 62.8125 
Q 46.625 64.703125 41.21875 64.703125 
Q 34.71875 64.703125 29.984375 62.71875 
Q 25.25 60.75 22.34375 57.515625 
Q 19.4375 54.296875 17.828125 50.4375 
Q 15.09375 43.796875 15.09375 36.03125 
Q 15.09375 26.46875 18.390625 20.015625 
Q 21.6875 13.578125 27.984375 10.453125 
Q 34.28125 7.328125 41.359375 7.328125 
Q 47.515625 7.328125 53.375 9.6875 
Q 59.234375 12.0625 62.25 14.75 
L 62.25 28.078125 
z
" id="ArialMT-71"/>
      <path d="M 6.5 0 
L 6.5 51.859375 
L 14.40625 51.859375 
L 14.40625 44 
Q 17.4375 49.515625 20 51.265625 
Q 22.5625 53.03125 25.640625 53.03125 
Q 30.078125 53.03125 34.671875 50.203125 
L 31.640625 42.046875 
Q 28.421875 43.953125 25.203125 43.953125 
Q 22.3125 43.953125 20.015625 42.21875 
Q 17.71875 40.484375 16.75 37.40625 
Q 15.28125 32.71875 15.28125 27.15625 
L 15.28125 0 
z
" id="ArialMT-114"/>
      <path d="M 3.328125 25.921875 
Q 3.328125 40.328125 11.328125 47.265625 
Q 18.015625 53.03125 27.640625 53.03125 
Q 38.328125 53.03125 45.109375 46.015625 
Q 51.90625 39.015625 51.90625 26.65625 
Q 51.90625 16.65625 48.90625 10.90625 
Q 45.90625 5.171875 40.15625 2 
Q 34.421875 -1.171875 27.640625 -1.171875 
Q 16.75 -1.171875 10.03125 5.8125 
Q 3.328125 12.796875 3.328125 25.921875 
z
M 12.359375 25.921875 
Q 12.359375 15.96875 16.703125 11.015625 
Q 21.046875 6.0625 27.640625 6.0625 
Q 34.1875 6.0625 38.53125 11.03125 
Q 42.875 16.015625 42.875 26.21875 
Q 42.875 35.84375 38.5 40.796875 
Q 34.125 45.75 27.640625 45.75 
Q 21.046875 45.75 16.703125 40.8125 
Q 12.359375 35.890625 12.359375 25.921875 
z
" id="ArialMT-111"/>
      <path d="M 16.15625 0 
L 0.296875 51.859375 
L 9.375 51.859375 
L 17.625 21.921875 
L 20.703125 10.796875 
Q 20.90625 11.625 23.390625 21.484375 
L 31.640625 51.859375 
L 40.671875 51.859375 
L 48.4375 21.78125 
L 51.03125 11.859375 
L 54 21.875 
L 62.890625 51.859375 
L 71.4375 51.859375 
L 55.21875 0 
L 46.09375 0 
L 37.84375 31.0625 
L 35.84375 39.890625 
L 25.34375 0 
z
" id="ArialMT-119"/>
      <path d="M 25.78125 7.859375 
L 27.046875 0.09375 
Q 23.34375 -0.6875 20.40625 -0.6875 
Q 15.625 -0.6875 12.984375 0.828125 
Q 10.359375 2.34375 9.28125 4.8125 
Q 8.203125 7.28125 8.203125 15.1875 
L 8.203125 45.015625 
L 1.765625 45.015625 
L 1.765625 51.859375 
L 8.203125 51.859375 
L 8.203125 64.703125 
L 16.9375 69.96875 
L 16.9375 51.859375 
L 25.78125 51.859375 
L 25.78125 45.015625 
L 16.9375 45.015625 
L 16.9375 14.703125 
Q 16.9375 10.9375 17.40625 9.859375 
Q 17.875 8.796875 18.921875 8.15625 
Q 19.96875 7.515625 21.921875 7.515625 
Q 23.390625 7.515625 25.78125 7.859375 
z
" id="ArialMT-116"/>
      <path d="M 6.59375 0 
L 6.59375 71.578125 
L 15.375 71.578125 
L 15.375 45.90625 
Q 21.53125 53.03125 30.90625 53.03125 
Q 36.671875 53.03125 40.921875 50.75 
Q 45.171875 48.484375 47 44.484375 
Q 48.828125 40.484375 48.828125 32.859375 
L 48.828125 0 
L 40.046875 0 
L 40.046875 32.859375 
Q 40.046875 39.453125 37.1875 42.453125 
Q 34.328125 45.453125 29.109375 45.453125 
Q 25.203125 45.453125 21.75 43.421875 
Q 18.3125 41.40625 16.84375 37.9375 
Q 15.375 34.46875 15.375 28.375 
L 15.375 0 
z
" id="ArialMT-104"/>
      <path id="ArialMT-32"/>
      <path d="M 7.859375 0 
L 7.859375 71.578125 
L 39.59375 71.578125 
Q 49.171875 71.578125 54.140625 69.640625 
Q 59.125 67.71875 62.109375 62.828125 
Q 65.09375 57.953125 65.09375 52.046875 
Q 65.09375 44.4375 60.15625 39.203125 
Q 55.21875 33.984375 44.921875 32.5625 
Q 48.6875 30.765625 50.640625 29 
Q 54.78125 25.203125 58.5 19.484375 
L 70.953125 0 
L 59.03125 0 
L 49.5625 14.890625 
Q 45.40625 21.34375 42.71875 24.75 
Q 40.046875 28.171875 37.921875 29.53125 
Q 35.796875 30.90625 33.59375 31.453125 
Q 31.984375 31.78125 28.328125 31.78125 
L 17.328125 31.78125 
L 17.328125 0 
z
M 17.328125 39.984375 
L 37.703125 39.984375 
Q 44.1875 39.984375 47.84375 41.328125 
Q 51.515625 42.671875 53.421875 45.625 
Q 55.328125 48.578125 55.328125 52.046875 
Q 55.328125 57.125 51.640625 60.390625 
Q 47.953125 63.671875 39.984375 63.671875 
L 17.328125 63.671875 
z
" id="ArialMT-82"/>
      <path d="M 40.4375 6.390625 
Q 35.546875 2.25 31.03125 0.53125 
Q 26.515625 -1.171875 21.34375 -1.171875 
Q 12.796875 -1.171875 8.203125 3 
Q 3.609375 7.171875 3.609375 13.671875 
Q 3.609375 17.484375 5.34375 20.625 
Q 7.078125 23.78125 9.890625 25.6875 
Q 12.703125 27.59375 16.21875 28.5625 
Q 18.796875 29.25 24.03125 29.890625 
Q 34.671875 31.15625 39.703125 32.90625 
Q 39.75 34.71875 39.75 35.203125 
Q 39.75 40.578125 37.25 42.78125 
Q 33.890625 45.75 27.25 45.75 
Q 21.046875 45.75 18.09375 43.578125 
Q 15.140625 41.40625 13.71875 35.890625 
L 5.125 37.0625 
Q 6.296875 42.578125 8.984375 45.96875 
Q 11.671875 49.359375 16.75 51.1875 
Q 21.828125 53.03125 28.515625 53.03125 
Q 35.15625 53.03125 39.296875 51.46875 
Q 43.453125 49.90625 45.40625 47.53125 
Q 47.359375 45.171875 48.140625 41.546875 
Q 48.578125 39.3125 48.578125 33.453125 
L 48.578125 21.734375 
Q 48.578125 9.46875 49.140625 6.21875 
Q 49.703125 2.984375 51.375 0 
L 42.1875 0 
Q 40.828125 2.734375 40.4375 6.390625 
z
M 39.703125 26.03125 
Q 34.90625 24.078125 25.34375 22.703125 
Q 19.921875 21.921875 17.671875 20.9375 
Q 15.4375 19.96875 14.203125 18.09375 
Q 12.984375 16.21875 12.984375 13.921875 
Q 12.984375 10.40625 15.640625 8.0625 
Q 18.3125 5.71875 23.4375 5.71875 
Q 28.515625 5.71875 32.46875 7.9375 
Q 36.421875 10.15625 38.28125 14.015625 
Q 39.703125 17 39.703125 22.796875 
z
" id="ArialMT-97"/>
      <path d="M 42.09375 16.703125 
L 51.171875 15.578125 
Q 49.03125 7.625 43.21875 3.21875 
Q 37.40625 -1.171875 28.375 -1.171875 
Q 17 -1.171875 10.328125 5.828125 
Q 3.65625 12.84375 3.65625 25.484375 
Q 3.65625 38.578125 10.390625 45.796875 
Q 17.140625 53.03125 27.875 53.03125 
Q 38.28125 53.03125 44.875 45.953125 
Q 51.46875 38.875 51.46875 26.03125 
Q 51.46875 25.25 51.421875 23.6875 
L 12.75 23.6875 
Q 13.234375 15.140625 17.578125 10.59375 
Q 21.921875 6.0625 28.421875 6.0625 
Q 33.25 6.0625 36.671875 8.59375 
Q 40.09375 11.140625 42.09375 16.703125 
z
M 13.234375 30.90625 
L 42.1875 30.90625 
Q 41.609375 37.453125 38.875 40.71875 
Q 34.671875 45.796875 27.984375 45.796875 
Q 21.921875 45.796875 17.796875 41.75 
Q 13.671875 37.703125 13.234375 30.90625 
z
" id="ArialMT-101"/>
     </defs>
     <g style="fill:#262626;" transform="translate(187.722188 284.149219)scale(0.12 -0.12)">
      <use xlink:href="#ArialMT-71"/>
      <use x="77.783203" xlink:href="#ArialMT-114"/>
      <use x="111.083984" xlink:href="#ArialMT-111"/>
      <use x="166.699219" xlink:href="#ArialMT-119"/>
      <use x="238.916016" xlink:href="#ArialMT-116"/>
      <use x="266.699219" xlink:href="#ArialMT-104"/>
      <use x="322.314453" xlink:href="#ArialMT-32"/>
      <use x="350.097656" xlink:href="#ArialMT-82"/>
      <use x="422.314453" xlink:href="#ArialMT-97"/>
      <use x="477.929688" xlink:href="#ArialMT-116"/>
      <use x="505.712891" xlink:href="#ArialMT-101"/>
     </g>
    </g>
   </g>
   <g id="matplotlib.axis_2">
    <g id="ytick_1">
     <g id="line2d_9">
      <path clip-path="url(#p7c6ef5732c)" d="M 54 252 
L 388.8 252 
" style="fill:none;stroke:#ffffff;stroke-linecap:round;"/>
     </g>
     <g id="text_10">
      <!-- 0 -->
      <g style="fill:#262626;" transform="translate(38.382969 255.936797)scale(0.11 -0.11)">
       <use xlink:href="#ArialMT-48"/>
      </g>
     </g>
    </g>
    <g id="ytick_2">
     <g id="line2d_10">
      <path clip-path="url(#p7c6ef5732c)" d="M 54 221.141561 
L 388.8 221.141561 
" style="fill:none;stroke:#ffffff;stroke-linecap:round;"/>
     </g>
     <g id="text_11">
      <!-- 2 -->
      <g style="fill:#262626;" transform="translate(38.382969 225.078358)scale(0.11 -0.11)">
       <use xlink:href="#ArialMT-50"/>
      </g>
     </g>
    </g>
    <g id="ytick_3">
     <g id="line2d_11">
      <path clip-path="url(#p7c6ef5732c)" d="M 54 190.283122 
L 388.8 190.283122 
" style="fill:none;stroke:#ffffff;stroke-linecap:round;"/>
     </g>
     <g id="text_12">
      <!-- 4 -->
      <g style="fill:#262626;" transform="translate(38.382969 194.219919)scale(0.11 -0.11)">
       <use xlink:href="#ArialMT-52"/>
      </g>
     </g>
    </g>
    <g id="ytick_4">
     <g id="line2d_12">
      <path clip-path="url(#p7c6ef5732c)" d="M 54 159.424683 
L 388.8 159.424683 
" style="fill:none;stroke:#ffffff;stroke-linecap:round;"/>
     </g>
     <g id="text_13">
      <!-- 6 -->
      <g style="fill:#262626;" transform="translate(38.382969 163.36148)scale(0.11 -0.11)">
       <use xlink:href="#ArialMT-54"/>
      </g>
     </g>
    </g>
    <g id="ytick_5">
     <g id="line2d_13">
      <path clip-path="url(#p7c6ef5732c)" d="M 54 128.566245 
L 388.8 128.566245 
" style="fill:none;stroke:#ffffff;stroke-linecap:round;"/>
     </g>
     <g id="text_14">
      <!-- 8 -->
      <g style="fill:#262626;" transform="translate(38.382969 132.503042)scale(0.11 -0.11)">
       <use xlink:href="#ArialMT-56"/>
      </g>
     </g>
    </g>
    <g id="ytick_6">
     <g id="line2d_14">
      <path clip-path="url(#p7c6ef5732c)" d="M 54 97.707806 
L 388.8 97.707806 
" style="fill:none;stroke:#ffffff;stroke-linecap:round;"/>
     </g>
     <g id="text_15">
      <!-- 10 -->
      <g style="fill:#262626;" transform="translate(32.265937 101.644603)scale(0.11 -0.11)">
       <use xlink:href="#ArialMT-49"/>
       <use x="55.615234" xlink:href="#ArialMT-48"/>
      </g>
     </g>
    </g>
    <g id="ytick_7">
     <g id="line2d_15">
      <path clip-path="url(#p7c6ef5732c)" d="M 54 66.849367 
L 388.8 66.849367 
" style="fill:none;stroke:#ffffff;stroke-linecap:round;"/>
     </g>
     <g id="text_16">
      <!-- 12 -->
      <g style="fill:#262626;" transform="translate(32.265937 70.786164)scale(0.11 -0.11)">
       <use xlink:href="#ArialMT-49"/>
       <use x="55.615234" xlink:href="#ArialMT-50"/>
      </g>
     </g>
    </g>
    <g id="ytick_8">
     <g id="line2d_16">
      <path clip-path="url(#p7c6ef5732c)" d="M 54 35.990928 
L 388.8 35.990928 
" style="fill:none;stroke:#ffffff;stroke-linecap:round;"/>
     </g>
     <g id="text_17">
      <!-- 14 -->
      <g style="fill:#262626;" transform="translate(32.265937 39.927725)scale(0.11 -0.11)">
       <use xlink:href="#ArialMT-49"/>
       <use x="55.615234" xlink:href="#ArialMT-52"/>
      </g>
     </g>
    </g>
    <g id="text_18">
     <!-- Density -->
     <defs>
      <path d="M 7.71875 0 
L 7.71875 71.578125 
L 32.375 71.578125 
Q 40.71875 71.578125 45.125 70.5625 
Q 51.265625 69.140625 55.609375 65.4375 
Q 61.28125 60.640625 64.078125 53.1875 
Q 66.890625 45.75 66.890625 36.1875 
Q 66.890625 28.03125 64.984375 21.734375 
Q 63.09375 15.4375 60.109375 11.296875 
Q 57.125 7.171875 53.578125 4.796875 
Q 50.046875 2.4375 45.046875 1.21875 
Q 40.046875 0 33.546875 0 
z
M 17.1875 8.453125 
L 32.46875 8.453125 
Q 39.546875 8.453125 43.578125 9.765625 
Q 47.609375 11.078125 50 13.484375 
Q 53.375 16.84375 55.25 22.53125 
Q 57.125 28.21875 57.125 36.328125 
Q 57.125 47.5625 53.4375 53.59375 
Q 49.75 59.625 44.484375 61.671875 
Q 40.671875 63.140625 32.234375 63.140625 
L 17.1875 63.140625 
z
" id="ArialMT-68"/>
      <path d="M 6.59375 0 
L 6.59375 51.859375 
L 14.5 51.859375 
L 14.5 44.484375 
Q 20.21875 53.03125 31 53.03125 
Q 35.6875 53.03125 39.625 51.34375 
Q 43.5625 49.65625 45.515625 46.921875 
Q 47.46875 44.1875 48.25 40.4375 
Q 48.734375 37.984375 48.734375 31.890625 
L 48.734375 0 
L 39.9375 0 
L 39.9375 31.546875 
Q 39.9375 36.921875 38.90625 39.578125 
Q 37.890625 42.234375 35.28125 43.8125 
Q 32.671875 45.40625 29.15625 45.40625 
Q 23.53125 45.40625 19.453125 41.84375 
Q 15.375 38.28125 15.375 28.328125 
L 15.375 0 
z
" id="ArialMT-110"/>
      <path d="M 3.078125 15.484375 
L 11.765625 16.84375 
Q 12.5 11.625 15.84375 8.84375 
Q 19.1875 6.0625 25.203125 6.0625 
Q 31.25 6.0625 34.171875 8.515625 
Q 37.109375 10.984375 37.109375 14.3125 
Q 37.109375 17.28125 34.515625 19 
Q 32.71875 20.171875 25.53125 21.96875 
Q 15.875 24.421875 12.140625 26.203125 
Q 8.40625 27.984375 6.46875 31.125 
Q 4.546875 34.28125 4.546875 38.09375 
Q 4.546875 41.546875 6.125 44.5 
Q 7.71875 47.46875 10.453125 49.421875 
Q 12.5 50.921875 16.03125 51.96875 
Q 19.578125 53.03125 23.640625 53.03125 
Q 29.734375 53.03125 34.34375 51.265625 
Q 38.96875 49.515625 41.15625 46.5 
Q 43.359375 43.5 44.1875 38.484375 
L 35.59375 37.3125 
Q 35.015625 41.3125 32.203125 43.546875 
Q 29.390625 45.796875 24.265625 45.796875 
Q 18.21875 45.796875 15.625 43.796875 
Q 13.03125 41.796875 13.03125 39.109375 
Q 13.03125 37.40625 14.109375 36.03125 
Q 15.1875 34.625 17.484375 33.6875 
Q 18.796875 33.203125 25.25 31.453125 
Q 34.578125 28.953125 38.25 27.359375 
Q 41.9375 25.78125 44.03125 22.75 
Q 46.140625 19.734375 46.140625 15.234375 
Q 46.140625 10.84375 43.578125 6.953125 
Q 41.015625 3.078125 36.171875 0.953125 
Q 31.34375 -1.171875 25.25 -1.171875 
Q 15.140625 -1.171875 9.84375 3.03125 
Q 4.546875 7.234375 3.078125 15.484375 
z
" id="ArialMT-115"/>
      <path d="M 6.640625 61.46875 
L 6.640625 71.578125 
L 15.4375 71.578125 
L 15.4375 61.46875 
z
M 6.640625 0 
L 6.640625 51.859375 
L 15.4375 51.859375 
L 15.4375 0 
z
" id="ArialMT-105"/>
      <path d="M 6.203125 -19.96875 
L 5.21875 -11.71875 
Q 8.109375 -12.5 10.25 -12.5 
Q 13.1875 -12.5 14.9375 -11.515625 
Q 16.703125 -10.546875 17.828125 -8.796875 
Q 18.65625 -7.46875 20.515625 -2.25 
Q 20.75 -1.515625 21.296875 -0.09375 
L 1.609375 51.859375 
L 11.078125 51.859375 
L 21.875 21.828125 
Q 23.96875 16.109375 25.640625 9.8125 
Q 27.15625 15.875 29.25 21.625 
L 40.328125 51.859375 
L 49.125 51.859375 
L 29.390625 -0.875 
Q 26.21875 -9.421875 24.46875 -12.640625 
Q 22.125 -17 19.09375 -19.015625 
Q 16.0625 -21.046875 11.859375 -21.046875 
Q 9.328125 -21.046875 6.203125 -19.96875 
z
" id="ArialMT-121"/>
     </defs>
     <g style="fill:#262626;" transform="translate(25.740312 163.28625)rotate(-90)scale(0.12 -0.12)">
      <use xlink:href="#ArialMT-68"/>
      <use x="72.216797" xlink:href="#ArialMT-101"/>
      <use x="127.832031" xlink:href="#ArialMT-110"/>
      <use x="183.447266" xlink:href="#ArialMT-115"/>
      <use x="233.447266" xlink:href="#ArialMT-105"/>
      <use x="255.664062" xlink:href="#ArialMT-116"/>
      <use x="283.447266" xlink:href="#ArialMT-121"/>
     </g>
    </g>
   </g>
   <g id="LineCollection_1">
    <path clip-path="url(#p7c6ef5732c)" d="M 260.545269 252 
L 260.545269 241.128 
" style="fill:none;stroke:#4c72b0;"/>
    <path clip-path="url(#p7c6ef5732c)" d="M 185.082702 252 
L 185.082702 241.128 
" style="fill:none;stroke:#4c72b0;"/>
    <path clip-path="url(#p7c6ef5732c)" d="M 217.321422 252 
L 217.321422 241.128 
" style="fill:none;stroke:#4c72b0;"/>
    <path clip-path="url(#p7c6ef5732c)" d="M 213.160821 252 
L 213.160821 241.128 
" style="fill:none;stroke:#4c72b0;"/>
    <path clip-path="url(#p7c6ef5732c)" d="M 265.696837 252 
L 265.696837 241.128 
" style="fill:none;stroke:#4c72b0;"/>
    <path clip-path="url(#p7c6ef5732c)" d="M 180.78152 252 
L 180.78152 241.128 
" style="fill:none;stroke:#4c72b0;"/>
    <path clip-path="url(#p7c6ef5732c)" d="M 273.596893 252 
L 273.596893 241.128 
" style="fill:none;stroke:#4c72b0;"/>
    <path clip-path="url(#p7c6ef5732c)" d="M 300.341845 252 
L 300.341845 241.128 
" style="fill:none;stroke:#4c72b0;"/>
    <path clip-path="url(#p7c6ef5732c)" d="M 274.553554 252 
L 274.553554 241.128 
" style="fill:none;stroke:#4c72b0;"/>
    <path clip-path="url(#p7c6ef5732c)" d="M 308.405794 252 
L 308.405794 241.128 
" style="fill:none;stroke:#4c72b0;"/>
    <path clip-path="url(#p7c6ef5732c)" d="M 282.963065 252 
L 282.963065 241.128 
" style="fill:none;stroke:#4c72b0;"/>
    <path clip-path="url(#p7c6ef5732c)" d="M 274.480981 252 
L 274.480981 241.128 
" style="fill:none;stroke:#4c72b0;"/>
    <path clip-path="url(#p7c6ef5732c)" d="M 265.966697 252 
L 265.966697 241.128 
" style="fill:none;stroke:#4c72b0;"/>
    <path clip-path="url(#p7c6ef5732c)" d="M 273.182764 252 
L 273.182764 241.128 
" style="fill:none;stroke:#4c72b0;"/>
    <path clip-path="url(#p7c6ef5732c)" d="M 204.237125 252 
L 204.237125 241.128 
" style="fill:none;stroke:#4c72b0;"/>
    <path clip-path="url(#p7c6ef5732c)" d="M 187.683347 252 
L 187.683347 241.128 
" style="fill:none;stroke:#4c72b0;"/>
    <path clip-path="url(#p7c6ef5732c)" d="M 219.982729 252 
L 219.982729 241.128 
" style="fill:none;stroke:#4c72b0;"/>
    <path clip-path="url(#p7c6ef5732c)" d="M 240.015685 252 
L 240.015685 241.128 
" style="fill:none;stroke:#4c72b0;"/>
    <path clip-path="url(#p7c6ef5732c)" d="M 291.023842 252 
L 291.023842 241.128 
" style="fill:none;stroke:#4c72b0;"/>
    <path clip-path="url(#p7c6ef5732c)" d="M 189.239573 252 
L 189.239573 241.128 
" style="fill:none;stroke:#4c72b0;"/>
    <path clip-path="url(#p7c6ef5732c)" d="M 155.360106 252 
L 155.360106 241.128 
" style="fill:none;stroke:#4c72b0;"/>
    <path clip-path="url(#p7c6ef5732c)" d="M 255.940706 252 
L 255.940706 241.128 
" style="fill:none;stroke:#4c72b0;"/>
    <path clip-path="url(#p7c6ef5732c)" d="M 309.112264 252 
L 309.112264 241.128 
" style="fill:none;stroke:#4c72b0;"/>
    <path clip-path="url(#p7c6ef5732c)" d="M 293.151202 252 
L 293.151202 241.128 
" style="fill:none;stroke:#4c72b0;"/>
    <path clip-path="url(#p7c6ef5732c)" d="M 153.446807 252 
L 153.446807 241.128 
" style="fill:none;stroke:#4c72b0;"/>
    <path clip-path="url(#p7c6ef5732c)" d="M 273.246157 252 
L 273.246157 241.128 
" style="fill:none;stroke:#4c72b0;"/>
    <path clip-path="url(#p7c6ef5732c)" d="M 221.013071 252 
L 221.013071 241.128 
" style="fill:none;stroke:#4c72b0;"/>
    <path clip-path="url(#p7c6ef5732c)" d="M 237.475384 252 
L 237.475384 241.128 
" style="fill:none;stroke:#4c72b0;"/>
    <path clip-path="url(#p7c6ef5732c)" d="M 166.245729 252 
L 166.245729 241.128 
" style="fill:none;stroke:#4c72b0;"/>
    <path clip-path="url(#p7c6ef5732c)" d="M 148.411571 252 
L 148.411571 241.128 
" style="fill:none;stroke:#4c72b0;"/>
    <path clip-path="url(#p7c6ef5732c)" d="M 157.823514 252 
L 157.823514 241.128 
" style="fill:none;stroke:#4c72b0;"/>
    <path clip-path="url(#p7c6ef5732c)" d="M 155.259637 252 
L 155.259637 241.128 
" style="fill:none;stroke:#4c72b0;"/>
    <path clip-path="url(#p7c6ef5732c)" d="M 244.63511 252 
L 244.63511 241.128 
" style="fill:none;stroke:#4c72b0;"/>
    <path clip-path="url(#p7c6ef5732c)" d="M 261.066964 252 
L 261.066964 241.128 
" style="fill:none;stroke:#4c72b0;"/>
    <path clip-path="url(#p7c6ef5732c)" d="M 311.144284 252 
L 311.144284 241.128 
" style="fill:none;stroke:#4c72b0;"/>
    <path clip-path="url(#p7c6ef5732c)" d="M 299.285901 252 
L 299.285901 241.128 
" style="fill:none;stroke:#4c72b0;"/>
    <path clip-path="url(#p7c6ef5732c)" d="M 238.044573 252 
L 238.044573 241.128 
" style="fill:none;stroke:#4c72b0;"/>
    <path clip-path="url(#p7c6ef5732c)" d="M 213.539002 252 
L 213.539002 241.128 
" style="fill:none;stroke:#4c72b0;"/>
    <path clip-path="url(#p7c6ef5732c)" d="M 194.25053 252 
L 194.25053 241.128 
" style="fill:none;stroke:#4c72b0;"/>
    <path clip-path="url(#p7c6ef5732c)" d="M 195.345743 252 
L 195.345743 241.128 
" style="fill:none;stroke:#4c72b0;"/>
    <path clip-path="url(#p7c6ef5732c)" d="M 221.217846 252 
L 221.217846 241.128 
" style="fill:none;stroke:#4c72b0;"/>
    <path clip-path="url(#p7c6ef5732c)" d="M 296.325012 252 
L 296.325012 241.128 
" style="fill:none;stroke:#4c72b0;"/>
    <path clip-path="url(#p7c6ef5732c)" d="M 254.712667 252 
L 254.712667 241.128 
" style="fill:none;stroke:#4c72b0;"/>
    <path clip-path="url(#p7c6ef5732c)" d="M 146.67381 252 
L 146.67381 241.128 
" style="fill:none;stroke:#4c72b0;"/>
    <path clip-path="url(#p7c6ef5732c)" d="M 244.152593 252 
L 244.152593 241.128 
" style="fill:none;stroke:#4c72b0;"/>
    <path clip-path="url(#p7c6ef5732c)" d="M 163.630558 252 
L 163.630558 241.128 
" style="fill:none;stroke:#4c72b0;"/>
    <path clip-path="url(#p7c6ef5732c)" d="M 191.703326 252 
L 191.703326 241.128 
" style="fill:none;stroke:#4c72b0;"/>
    <path clip-path="url(#p7c6ef5732c)" d="M 222.305775 252 
L 222.305775 241.128 
" style="fill:none;stroke:#4c72b0;"/>
    <path clip-path="url(#p7c6ef5732c)" d="M 167.174891 252 
L 167.174891 241.128 
" style="fill:none;stroke:#4c72b0;"/>
    <path clip-path="url(#p7c6ef5732c)" d="M 308.536577 252 
L 308.536577 241.128 
" style="fill:none;stroke:#4c72b0;"/>
    <path clip-path="url(#p7c6ef5732c)" d="M 219.657063 252 
L 219.657063 241.128 
" style="fill:none;stroke:#4c72b0;"/>
    <path clip-path="url(#p7c6ef5732c)" d="M 190.621057 252 
L 190.621057 241.128 
" style="fill:none;stroke:#4c72b0;"/>
    <path clip-path="url(#p7c6ef5732c)" d="M 265.439851 252 
L 265.439851 241.128 
" style="fill:none;stroke:#4c72b0;"/>
    <path clip-path="url(#p7c6ef5732c)" d="M 285.279443 252 
L 285.279443 241.128 
" style="fill:none;stroke:#4c72b0;"/>
    <path clip-path="url(#p7c6ef5732c)" d="M 217.052863 252 
L 217.052863 241.128 
" style="fill:none;stroke:#4c72b0;"/>
    <path clip-path="url(#p7c6ef5732c)" d="M 152.384459 252 
L 152.384459 241.128 
" style="fill:none;stroke:#4c72b0;"/>
    <path clip-path="url(#p7c6ef5732c)" d="M 216.738266 252 
L 216.738266 241.128 
" style="fill:none;stroke:#4c72b0;"/>
    <path clip-path="url(#p7c6ef5732c)" d="M 264.745919 252 
L 264.745919 241.128 
" style="fill:none;stroke:#4c72b0;"/>
    <path clip-path="url(#p7c6ef5732c)" d="M 289.458762 252 
L 289.458762 241.128 
" style="fill:none;stroke:#4c72b0;"/>
    <path clip-path="url(#p7c6ef5732c)" d="M 269.055397 252 
L 269.055397 241.128 
" style="fill:none;stroke:#4c72b0;"/>
    <path clip-path="url(#p7c6ef5732c)" d="M 179.364711 252 
L 179.364711 241.128 
" style="fill:none;stroke:#4c72b0;"/>
    <path clip-path="url(#p7c6ef5732c)" d="M 286.667274 252 
L 286.667274 241.128 
" style="fill:none;stroke:#4c72b0;"/>
    <path clip-path="url(#p7c6ef5732c)" d="M 200.843052 252 
L 200.843052 241.128 
" style="fill:none;stroke:#4c72b0;"/>
    <path clip-path="url(#p7c6ef5732c)" d="M 289.989796 252 
L 289.989796 241.128 
" style="fill:none;stroke:#4c72b0;"/>
    <path clip-path="url(#p7c6ef5732c)" d="M 231.170423 252 
L 231.170423 241.128 
" style="fill:none;stroke:#4c72b0;"/>
    <path clip-path="url(#p7c6ef5732c)" d="M 251.370311 252 
L 251.370311 241.128 
" style="fill:none;stroke:#4c72b0;"/>
    <path clip-path="url(#p7c6ef5732c)" d="M 173.343483 252 
L 173.343483 241.128 
" style="fill:none;stroke:#4c72b0;"/>
    <path clip-path="url(#p7c6ef5732c)" d="M 274.291405 252 
L 274.291405 241.128 
" style="fill:none;stroke:#4c72b0;"/>
    <path clip-path="url(#p7c6ef5732c)" d="M 213.062261 252 
L 213.062261 241.128 
" style="fill:none;stroke:#4c72b0;"/>
    <path clip-path="url(#p7c6ef5732c)" d="M 145.230391 252 
L 145.230391 241.128 
" style="fill:none;stroke:#4c72b0;"/>
    <path clip-path="url(#p7c6ef5732c)" d="M 240.809989 252 
L 240.809989 241.128 
" style="fill:none;stroke:#4c72b0;"/>
    <path clip-path="url(#p7c6ef5732c)" d="M 303.036424 252 
L 303.036424 241.128 
" style="fill:none;stroke:#4c72b0;"/>
    <path clip-path="url(#p7c6ef5732c)" d="M 251.783201 252 
L 251.783201 241.128 
" style="fill:none;stroke:#4c72b0;"/>
    <path clip-path="url(#p7c6ef5732c)" d="M 288.686237 252 
L 288.686237 241.128 
" style="fill:none;stroke:#4c72b0;"/>
    <path clip-path="url(#p7c6ef5732c)" d="M 295.723578 252 
L 295.723578 241.128 
" style="fill:none;stroke:#4c72b0;"/>
    <path clip-path="url(#p7c6ef5732c)" d="M 242.161312 252 
L 242.161312 241.128 
" style="fill:none;stroke:#4c72b0;"/>
    <path clip-path="url(#p7c6ef5732c)" d="M 246.651917 252 
L 246.651917 241.128 
" style="fill:none;stroke:#4c72b0;"/>
    <path clip-path="url(#p7c6ef5732c)" d="M 296.451679 252 
L 296.451679 241.128 
" style="fill:none;stroke:#4c72b0;"/>
    <path clip-path="url(#p7c6ef5732c)" d="M 290.917306 252 
L 290.917306 241.128 
" style="fill:none;stroke:#4c72b0;"/>
    <path clip-path="url(#p7c6ef5732c)" d="M 161.812346 252 
L 161.812346 241.128 
" style="fill:none;stroke:#4c72b0;"/>
    <path clip-path="url(#p7c6ef5732c)" d="M 230.694855 252 
L 230.694855 241.128 
" style="fill:none;stroke:#4c72b0;"/>
    <path clip-path="url(#p7c6ef5732c)" d="M 241.499114 252 
L 241.499114 241.128 
" style="fill:none;stroke:#4c72b0;"/>
    <path clip-path="url(#p7c6ef5732c)" d="M 300.688486 252 
L 300.688486 241.128 
" style="fill:none;stroke:#4c72b0;"/>
    <path clip-path="url(#p7c6ef5732c)" d="M 288.014523 252 
L 288.014523 241.128 
" style="fill:none;stroke:#4c72b0;"/>
    <path clip-path="url(#p7c6ef5732c)" d="M 283.461558 252 
L 283.461558 241.128 
" style="fill:none;stroke:#4c72b0;"/>
    <path clip-path="url(#p7c6ef5732c)" d="M 200.862354 252 
L 200.862354 241.128 
" style="fill:none;stroke:#4c72b0;"/>
    <path clip-path="url(#p7c6ef5732c)" d="M 168.321965 252 
L 168.321965 241.128 
" style="fill:none;stroke:#4c72b0;"/>
    <path clip-path="url(#p7c6ef5732c)" d="M 242.370351 252 
L 242.370351 241.128 
" style="fill:none;stroke:#4c72b0;"/>
    <path clip-path="url(#p7c6ef5732c)" d="M 183.312132 252 
L 183.312132 241.128 
" style="fill:none;stroke:#4c72b0;"/>
    <path clip-path="url(#p7c6ef5732c)" d="M 288.958498 252 
L 288.958498 241.128 
" style="fill:none;stroke:#4c72b0;"/>
    <path clip-path="url(#p7c6ef5732c)" d="M 261.295529 252 
L 261.295529 241.128 
" style="fill:none;stroke:#4c72b0;"/>
    <path clip-path="url(#p7c6ef5732c)" d="M 202.237955 252 
L 202.237955 241.128 
" style="fill:none;stroke:#4c72b0;"/>
    <path clip-path="url(#p7c6ef5732c)" d="M 240.959416 252 
L 240.959416 241.128 
" style="fill:none;stroke:#4c72b0;"/>
    <path clip-path="url(#p7c6ef5732c)" d="M 292.75092 252 
L 292.75092 241.128 
" style="fill:none;stroke:#4c72b0;"/>
    <path clip-path="url(#p7c6ef5732c)" d="M 238.549786 252 
L 238.549786 241.128 
" style="fill:none;stroke:#4c72b0;"/>
    <path clip-path="url(#p7c6ef5732c)" d="M 213.306849 252 
L 213.306849 241.128 
" style="fill:none;stroke:#4c72b0;"/>
    <path clip-path="url(#p7c6ef5732c)" d="M 140.992606 252 
L 140.992606 241.128 
" style="fill:none;stroke:#4c72b0;"/>
    <path clip-path="url(#p7c6ef5732c)" d="M 220.587459 252 
L 220.587459 241.128 
" style="fill:none;stroke:#4c72b0;"/>
    <path clip-path="url(#p7c6ef5732c)" d="M 199.960283 252 
L 199.960283 241.128 
" style="fill:none;stroke:#4c72b0;"/>
    <path clip-path="url(#p7c6ef5732c)" d="M 131.655716 252 
L 131.655716 241.128 
" style="fill:none;stroke:#4c72b0;"/>
   </g>
   <g id="line2d_17">
    <path clip-path="url(#p7c6ef5732c)" d="M 69.218182 251.659123 
L 74.01131 251.658444 
L 78.804438 251.484894 
L 83.597566 251.095684 
L 88.390694 250.395606 
L 90.787258 249.884871 
L 93.183822 249.237004 
L 95.580387 248.425739 
L 97.976951 247.422209 
L 100.373515 246.195525 
L 102.770079 244.713563 
L 105.166643 242.943992 
L 107.563207 240.855534 
L 109.959771 238.41942 
L 112.356335 235.611012 
L 114.752899 232.411502 
L 117.149463 228.809601 
L 119.546027 224.803109 
L 121.942591 220.400229 
L 124.339155 215.620501 
L 126.735719 210.495245 
L 131.528848 199.390657 
L 138.71854 181.529626 
L 143.511668 169.665374 
L 148.304796 158.492044 
L 150.70136 153.302862 
L 153.097924 148.427697 
L 155.494488 143.884989 
L 157.891052 139.677985 
L 160.287616 135.795403 
L 162.68418 132.212988 
L 165.080744 128.895812 
L 169.873873 122.881592 
L 174.667001 117.374659 
L 184.253257 106.569011 
L 191.442949 97.993493 
L 203.42577 83.346219 
L 208.218898 77.884747 
L 213.012026 72.916502 
L 215.40859 70.654875 
L 217.805154 68.553445 
L 220.201718 66.615845 
L 222.598282 64.841655 
L 224.994846 63.226657 
L 227.39141 61.763146 
L 229.787974 60.440266 
L 234.581102 58.15914 
L 239.37423 56.245929 
L 258.546743 49.195323 
L 263.339871 47.27528 
L 265.736435 46.401646 
L 268.132999 45.664041 
L 270.529563 45.138789 
L 272.926127 44.914286 
L 275.322691 45.088144 
L 277.719256 45.763346 
L 280.11582 47.043526 
L 282.512384 49.027649 
L 284.908948 51.804371 
L 287.305512 55.446462 
L 289.702076 60.005668 
L 292.09864 65.508403 
L 294.495204 71.952613 
L 296.891768 79.306074 
L 299.288332 87.506301 
L 301.684896 96.462124 
L 304.08146 106.056849 
L 308.874588 126.597161 
L 318.460845 168.629065 
L 320.857409 178.441043 
L 323.253973 187.720862 
L 325.650537 196.377965 
L 328.047101 204.345952 
L 330.443665 211.582739 
L 332.840229 218.069523 
L 335.236793 223.808755 
L 337.633357 228.821364 
L 340.029921 233.143472 
L 342.426485 236.82288 
L 344.823049 239.915538 
L 347.219613 242.48221 
L 349.616178 244.585492 
L 352.012742 246.287271 
L 354.409306 247.646693 
L 356.80587 248.718648 
L 359.202434 249.552743 
L 361.598998 250.192716 
L 363.995562 250.676207 
L 368.78869 251.294402 
L 373.581818 251.593294 
L 373.581818 251.593294 
" style="fill:none;stroke:#4c72b0;stroke-linecap:round;stroke-width:1.5;"/>
   </g>
   <g id="patch_3">
    <path d="M 54 252 
L 54 34.56 
" style="fill:none;stroke:#ffffff;stroke-linecap:square;stroke-linejoin:miter;stroke-width:1.25;"/>
   </g>
   <g id="patch_4">
    <path d="M 388.8 252 
L 388.8 34.56 
" style="fill:none;stroke:#ffffff;stroke-linecap:square;stroke-linejoin:miter;stroke-width:1.25;"/>
   </g>
   <g id="patch_5">
    <path d="M 54 252 
L 388.8 252 
" style="fill:none;stroke:#ffffff;stroke-linecap:square;stroke-linejoin:miter;stroke-width:1.25;"/>
   </g>
   <g id="patch_6">
    <path d="M 54 34.56 
L 388.8 34.56 
" style="fill:none;stroke:#ffffff;stroke-linecap:square;stroke-linejoin:miter;stroke-width:1.25;"/>
   </g>
   <g id="text_19">
    <!-- Growth rate - scenario A -->
    <defs>
     <path d="M 3.171875 21.484375 
L 3.171875 30.328125 
L 30.171875 30.328125 
L 30.171875 21.484375 
z
" id="ArialMT-45"/>
     <path d="M 40.4375 19 
L 49.078125 17.875 
Q 47.65625 8.9375 41.8125 3.875 
Q 35.984375 -1.171875 27.484375 -1.171875 
Q 16.84375 -1.171875 10.375 5.78125 
Q 3.90625 12.75 3.90625 25.734375 
Q 3.90625 34.125 6.6875 40.421875 
Q 9.46875 46.734375 15.15625 49.875 
Q 20.84375 53.03125 27.546875 53.03125 
Q 35.984375 53.03125 41.359375 48.75 
Q 46.734375 44.484375 48.25 36.625 
L 39.703125 35.296875 
Q 38.484375 40.53125 35.375 43.15625 
Q 32.28125 45.796875 27.875 45.796875 
Q 21.234375 45.796875 17.078125 41.03125 
Q 12.9375 36.28125 12.9375 25.984375 
Q 12.9375 15.53125 16.9375 10.796875 
Q 20.953125 6.0625 27.390625 6.0625 
Q 32.5625 6.0625 36.03125 9.234375 
Q 39.5 12.40625 40.4375 19 
z
" id="ArialMT-99"/>
     <path d="M -0.140625 0 
L 27.34375 71.578125 
L 37.546875 71.578125 
L 66.84375 0 
L 56.0625 0 
L 47.703125 21.6875 
L 17.78125 21.6875 
L 9.90625 0 
z
M 20.515625 29.390625 
L 44.78125 29.390625 
L 37.3125 49.21875 
Q 33.890625 58.25 32.234375 64.0625 
Q 30.859375 57.171875 28.375 50.390625 
z
" id="ArialMT-65"/>
    </defs>
    <g style="fill:#262626;" transform="translate(156.384375 28.56)scale(0.12 -0.12)">
     <use xlink:href="#ArialMT-71"/>
     <use x="77.783203" xlink:href="#ArialMT-114"/>
     <use x="111.083984" xlink:href="#ArialMT-111"/>
     <use x="166.699219" xlink:href="#ArialMT-119"/>
     <use x="238.916016" xlink:href="#ArialMT-116"/>
     <use x="266.699219" xlink:href="#ArialMT-104"/>
     <use x="322.314453" xlink:href="#ArialMT-32"/>
     <use x="350.097656" xlink:href="#ArialMT-114"/>
     <use x="383.398438" xlink:href="#ArialMT-97"/>
     <use x="439.013672" xlink:href="#ArialMT-116"/>
     <use x="466.796875" xlink:href="#ArialMT-101"/>
     <use x="522.412109" xlink:href="#ArialMT-32"/>
     <use x="550.195312" xlink:href="#ArialMT-45"/>
     <use x="583.496094" xlink:href="#ArialMT-32"/>
     <use x="611.279297" xlink:href="#ArialMT-115"/>
     <use x="661.279297" xlink:href="#ArialMT-99"/>
     <use x="711.279297" xlink:href="#ArialMT-101"/>
     <use x="766.894531" xlink:href="#ArialMT-110"/>
     <use x="822.509766" xlink:href="#ArialMT-97"/>
     <use x="878.125" xlink:href="#ArialMT-114"/>
     <use x="911.425781" xlink:href="#ArialMT-105"/>
     <use x="933.642578" xlink:href="#ArialMT-111"/>
     <use x="989.257812" xlink:href="#ArialMT-32"/>
     <use x="1016.962891" xlink:href="#ArialMT-65"/>
    </g>
   </g>
  </g>
 </g>
 <defs>
  <clipPath id="p7c6ef5732c">
   <rect height="217.44" width="334.8" x="54" y="34.56"/>
  </clipPath>
 </defs>
</svg>
