<?xml version="1.0" encoding="utf-8" standalone="no"?>
<!DOCTYPE svg PUBLIC "-//W3C//DTD SVG 1.1//EN"
  "http://www.w3.org/Graphics/SVG/1.1/DTD/svg11.dtd">
<!-- Created with matplotlib (https://matplotlib.org/) -->
<svg height="288pt" version="1.1" viewBox="0 0 432 288" width="432pt" xmlns="http://www.w3.org/2000/svg" xmlns:xlink="http://www.w3.org/1999/xlink">
 <defs>
  <style type="text/css">
*{stroke-linecap:butt;stroke-linejoin:round;}
  </style>
 </defs>
 <g id="figure_1">
  <g id="patch_1">
   <path d="M 0 288 
L 432 288 
L 432 0 
L 0 0 
z
" style="fill:#ffffff;"/>
  </g>
  <g id="axes_1">
   <g id="patch_2">
    <path d="M 54 252 
L 388.8 252 
L 388.8 34.56 
L 54 34.56 
z
" style="fill:#eaeaf2;"/>
   </g>
   <g id="matplotlib.axis_1">
    <g id="xtick_1">
     <g id="line2d_1">
      <path clip-path="url(#pa8a22c2cb4)" d="M 82.398372 252 
L 82.398372 34.56 
" style="fill:none;stroke:#ffffff;stroke-linecap:round;"/>
     </g>
     <g id="text_1">
      <!-- 20 -->
      <defs>
       <path d="M 50.34375 8.453125 
L 50.34375 0 
L 3.03125 0 
Q 2.9375 3.171875 4.046875 6.109375 
Q 5.859375 10.9375 9.828125 15.625 
Q 13.8125 20.3125 21.34375 26.46875 
Q 33.015625 36.03125 37.109375 41.625 
Q 41.21875 47.21875 41.21875 52.203125 
Q 41.21875 57.421875 37.46875 61 
Q 33.734375 64.59375 27.734375 64.59375 
Q 21.390625 64.59375 17.578125 60.78125 
Q 13.765625 56.984375 13.71875 50.25 
L 4.6875 51.171875 
Q 5.609375 61.28125 11.65625 66.578125 
Q 17.71875 71.875 27.9375 71.875 
Q 38.234375 71.875 44.234375 66.15625 
Q 50.25 60.453125 50.25 52 
Q 50.25 47.703125 48.484375 43.546875 
Q 46.734375 39.40625 42.65625 34.8125 
Q 38.578125 30.21875 29.109375 22.21875 
Q 21.1875 15.578125 18.9375 13.203125 
Q 16.703125 10.84375 15.234375 8.453125 
z
" id="ArialMT-50"/>
       <path d="M 4.15625 35.296875 
Q 4.15625 48 6.765625 55.734375 
Q 9.375 63.484375 14.515625 67.671875 
Q 19.671875 71.875 27.484375 71.875 
Q 33.25 71.875 37.59375 69.546875 
Q 41.9375 67.234375 44.765625 62.859375 
Q 47.609375 58.5 49.21875 52.21875 
Q 50.828125 45.953125 50.828125 35.296875 
Q 50.828125 22.703125 48.234375 14.96875 
Q 45.65625 7.234375 40.5 3 
Q 35.359375 -1.21875 27.484375 -1.21875 
Q 17.140625 -1.21875 11.234375 6.203125 
Q 4.15625 15.140625 4.15625 35.296875 
z
M 13.1875 35.296875 
Q 13.1875 17.671875 17.3125 11.828125 
Q 21.4375 6 27.484375 6 
Q 33.546875 6 37.671875 11.859375 
Q 41.796875 17.71875 41.796875 35.296875 
Q 41.796875 52.984375 37.671875 58.78125 
Q 33.546875 64.59375 27.390625 64.59375 
Q 21.34375 64.59375 17.71875 59.46875 
Q 13.1875 52.9375 13.1875 35.296875 
z
" id="ArialMT-48"/>
      </defs>
      <g style="fill:#262626;" transform="translate(76.281341 269.373594)scale(0.11 -0.11)">
       <use xlink:href="#ArialMT-50"/>
       <use x="55.615234" xlink:href="#ArialMT-48"/>
      </g>
     </g>
    </g>
    <g id="xtick_2">
     <g id="line2d_2">
      <path clip-path="url(#pa8a22c2cb4)" d="M 133.935265 252 
L 133.935265 34.56 
" style="fill:none;stroke:#ffffff;stroke-linecap:round;"/>
     </g>
     <g id="text_2">
      <!-- 40 -->
      <defs>
       <path d="M 32.328125 0 
L 32.328125 17.140625 
L 1.265625 17.140625 
L 1.265625 25.203125 
L 33.9375 71.578125 
L 41.109375 71.578125 
L 41.109375 25.203125 
L 50.78125 25.203125 
L 50.78125 17.140625 
L 41.109375 17.140625 
L 41.109375 0 
z
M 32.328125 25.203125 
L 32.328125 57.46875 
L 9.90625 25.203125 
z
" id="ArialMT-52"/>
      </defs>
      <g style="fill:#262626;" transform="translate(127.818234 269.373594)scale(0.11 -0.11)">
       <use xlink:href="#ArialMT-52"/>
       <use x="55.615234" xlink:href="#ArialMT-48"/>
      </g>
     </g>
    </g>
    <g id="xtick_3">
     <g id="line2d_3">
      <path clip-path="url(#pa8a22c2cb4)" d="M 185.472158 252 
L 185.472158 34.56 
" style="fill:none;stroke:#ffffff;stroke-linecap:round;"/>
     </g>
     <g id="text_3">
      <!-- 60 -->
      <defs>
       <path d="M 49.75 54.046875 
L 41.015625 53.375 
Q 39.84375 58.546875 37.703125 60.890625 
Q 34.125 64.65625 28.90625 64.65625 
Q 24.703125 64.65625 21.53125 62.3125 
Q 17.390625 59.28125 14.984375 53.46875 
Q 12.59375 47.65625 12.5 36.921875 
Q 15.671875 41.75 20.265625 44.09375 
Q 24.859375 46.4375 29.890625 46.4375 
Q 38.671875 46.4375 44.84375 39.96875 
Q 51.03125 33.5 51.03125 23.25 
Q 51.03125 16.5 48.125 10.71875 
Q 45.21875 4.9375 40.140625 1.859375 
Q 35.0625 -1.21875 28.609375 -1.21875 
Q 17.625 -1.21875 10.6875 6.859375 
Q 3.765625 14.9375 3.765625 33.5 
Q 3.765625 54.25 11.421875 63.671875 
Q 18.109375 71.875 29.4375 71.875 
Q 37.890625 71.875 43.28125 67.140625 
Q 48.6875 62.40625 49.75 54.046875 
z
M 13.875 23.1875 
Q 13.875 18.65625 15.796875 14.5 
Q 17.71875 10.359375 21.1875 8.171875 
Q 24.65625 6 28.46875 6 
Q 34.03125 6 38.03125 10.484375 
Q 42.046875 14.984375 42.046875 22.703125 
Q 42.046875 30.125 38.078125 34.390625 
Q 34.125 38.671875 28.125 38.671875 
Q 22.171875 38.671875 18.015625 34.390625 
Q 13.875 30.125 13.875 23.1875 
z
" id="ArialMT-54"/>
      </defs>
      <g style="fill:#262626;" transform="translate(179.355127 269.373594)scale(0.11 -0.11)">
       <use xlink:href="#ArialMT-54"/>
       <use x="55.615234" xlink:href="#ArialMT-48"/>
      </g>
     </g>
    </g>
    <g id="xtick_4">
     <g id="line2d_4">
      <path clip-path="url(#pa8a22c2cb4)" d="M 237.009052 252 
L 237.009052 34.56 
" style="fill:none;stroke:#ffffff;stroke-linecap:round;"/>
     </g>
     <g id="text_4">
      <!-- 80 -->
      <defs>
       <path d="M 17.671875 38.8125 
Q 12.203125 40.828125 9.5625 44.53125 
Q 6.9375 48.25 6.9375 53.421875 
Q 6.9375 61.234375 12.546875 66.546875 
Q 18.171875 71.875 27.484375 71.875 
Q 36.859375 71.875 42.578125 66.421875 
Q 48.296875 60.984375 48.296875 53.171875 
Q 48.296875 48.1875 45.671875 44.5 
Q 43.0625 40.828125 37.75 38.8125 
Q 44.34375 36.671875 47.78125 31.875 
Q 51.21875 27.09375 51.21875 20.453125 
Q 51.21875 11.28125 44.71875 5.03125 
Q 38.234375 -1.21875 27.640625 -1.21875 
Q 17.046875 -1.21875 10.546875 5.046875 
Q 4.046875 11.328125 4.046875 20.703125 
Q 4.046875 27.6875 7.59375 32.390625 
Q 11.140625 37.109375 17.671875 38.8125 
z
M 15.921875 53.71875 
Q 15.921875 48.640625 19.1875 45.40625 
Q 22.46875 42.1875 27.6875 42.1875 
Q 32.765625 42.1875 36.015625 45.375 
Q 39.265625 48.578125 39.265625 53.21875 
Q 39.265625 58.0625 35.90625 61.359375 
Q 32.5625 64.65625 27.59375 64.65625 
Q 22.5625 64.65625 19.234375 61.421875 
Q 15.921875 58.203125 15.921875 53.71875 
z
M 13.09375 20.65625 
Q 13.09375 16.890625 14.875 13.375 
Q 16.65625 9.859375 20.171875 7.921875 
Q 23.6875 6 27.734375 6 
Q 34.03125 6 38.125 10.046875 
Q 42.234375 14.109375 42.234375 20.359375 
Q 42.234375 26.703125 38.015625 30.859375 
Q 33.796875 35.015625 27.4375 35.015625 
Q 21.234375 35.015625 17.15625 30.90625 
Q 13.09375 26.8125 13.09375 20.65625 
z
" id="ArialMT-56"/>
      </defs>
      <g style="fill:#262626;" transform="translate(230.89202 269.373594)scale(0.11 -0.11)">
       <use xlink:href="#ArialMT-56"/>
       <use x="55.615234" xlink:href="#ArialMT-48"/>
      </g>
     </g>
    </g>
    <g id="xtick_5">
     <g id="line2d_5">
      <path clip-path="url(#pa8a22c2cb4)" d="M 288.545945 252 
L 288.545945 34.56 
" style="fill:none;stroke:#ffffff;stroke-linecap:round;"/>
     </g>
     <g id="text_5">
      <!-- 100 -->
      <defs>
       <path d="M 37.25 0 
L 28.46875 0 
L 28.46875 56 
Q 25.296875 52.984375 20.140625 49.953125 
Q 14.984375 46.921875 10.890625 45.40625 
L 10.890625 53.90625 
Q 18.265625 57.375 23.78125 62.296875 
Q 29.296875 67.234375 31.59375 71.875 
L 37.25 71.875 
z
" id="ArialMT-49"/>
      </defs>
      <g style="fill:#262626;" transform="translate(279.370398 269.373594)scale(0.11 -0.11)">
       <use xlink:href="#ArialMT-49"/>
       <use x="55.615234" xlink:href="#ArialMT-48"/>
       <use x="111.230469" xlink:href="#ArialMT-48"/>
      </g>
     </g>
    </g>
    <g id="xtick_6">
     <g id="line2d_6">
      <path clip-path="url(#pa8a22c2cb4)" d="M 340.082838 252 
L 340.082838 34.56 
" style="fill:none;stroke:#ffffff;stroke-linecap:round;"/>
     </g>
     <g id="text_6">
      <!-- 120 -->
      <g style="fill:#262626;" transform="translate(330.907291 269.373594)scale(0.11 -0.11)">
       <use xlink:href="#ArialMT-49"/>
       <use x="55.615234" xlink:href="#ArialMT-50"/>
       <use x="111.230469" xlink:href="#ArialMT-48"/>
      </g>
     </g>
    </g>
    <g id="text_7">
     <!-- Extinction Times (days) -->
     <defs>
      <path d="M 7.90625 0 
L 7.90625 71.578125 
L 59.671875 71.578125 
L 59.671875 63.140625 
L 17.390625 63.140625 
L 17.390625 41.21875 
L 56.984375 41.21875 
L 56.984375 32.8125 
L 17.390625 32.8125 
L 17.390625 8.453125 
L 61.328125 8.453125 
L 61.328125 0 
z
" id="ArialMT-69"/>
      <path d="M 0.734375 0 
L 19.671875 26.953125 
L 2.15625 51.859375 
L 13.140625 51.859375 
L 21.09375 39.703125 
Q 23.34375 36.234375 24.703125 33.890625 
Q 26.859375 37.109375 28.65625 39.59375 
L 37.40625 51.859375 
L 47.90625 51.859375 
L 29.984375 27.4375 
L 49.265625 0 
L 38.484375 0 
L 27.828125 16.109375 
L 25 20.453125 
L 11.375 0 
z
" id="ArialMT-120"/>
      <path d="M 25.78125 7.859375 
L 27.046875 0.09375 
Q 23.34375 -0.6875 20.40625 -0.6875 
Q 15.625 -0.6875 12.984375 0.828125 
Q 10.359375 2.34375 9.28125 4.8125 
Q 8.203125 7.28125 8.203125 15.1875 
L 8.203125 45.015625 
L 1.765625 45.015625 
L 1.765625 51.859375 
L 8.203125 51.859375 
L 8.203125 64.703125 
L 16.9375 69.96875 
L 16.9375 51.859375 
L 25.78125 51.859375 
L 25.78125 45.015625 
L 16.9375 45.015625 
L 16.9375 14.703125 
Q 16.9375 10.9375 17.40625 9.859375 
Q 17.875 8.796875 18.921875 8.15625 
Q 19.96875 7.515625 21.921875 7.515625 
Q 23.390625 7.515625 25.78125 7.859375 
z
" id="ArialMT-116"/>
      <path d="M 6.640625 61.46875 
L 6.640625 71.578125 
L 15.4375 71.578125 
L 15.4375 61.46875 
z
M 6.640625 0 
L 6.640625 51.859375 
L 15.4375 51.859375 
L 15.4375 0 
z
" id="ArialMT-105"/>
      <path d="M 6.59375 0 
L 6.59375 51.859375 
L 14.5 51.859375 
L 14.5 44.484375 
Q 20.21875 53.03125 31 53.03125 
Q 35.6875 53.03125 39.625 51.34375 
Q 43.5625 49.65625 45.515625 46.921875 
Q 47.46875 44.1875 48.25 40.4375 
Q 48.734375 37.984375 48.734375 31.890625 
L 48.734375 0 
L 39.9375 0 
L 39.9375 31.546875 
Q 39.9375 36.921875 38.90625 39.578125 
Q 37.890625 42.234375 35.28125 43.8125 
Q 32.671875 45.40625 29.15625 45.40625 
Q 23.53125 45.40625 19.453125 41.84375 
Q 15.375 38.28125 15.375 28.328125 
L 15.375 0 
z
" id="ArialMT-110"/>
      <path d="M 40.4375 19 
L 49.078125 17.875 
Q 47.65625 8.9375 41.8125 3.875 
Q 35.984375 -1.171875 27.484375 -1.171875 
Q 16.84375 -1.171875 10.375 5.78125 
Q 3.90625 12.75 3.90625 25.734375 
Q 3.90625 34.125 6.6875 40.421875 
Q 9.46875 46.734375 15.15625 49.875 
Q 20.84375 53.03125 27.546875 53.03125 
Q 35.984375 53.03125 41.359375 48.75 
Q 46.734375 44.484375 48.25 36.625 
L 39.703125 35.296875 
Q 38.484375 40.53125 35.375 43.15625 
Q 32.28125 45.796875 27.875 45.796875 
Q 21.234375 45.796875 17.078125 41.03125 
Q 12.9375 36.28125 12.9375 25.984375 
Q 12.9375 15.53125 16.9375 10.796875 
Q 20.953125 6.0625 27.390625 6.0625 
Q 32.5625 6.0625 36.03125 9.234375 
Q 39.5 12.40625 40.4375 19 
z
" id="ArialMT-99"/>
      <path d="M 3.328125 25.921875 
Q 3.328125 40.328125 11.328125 47.265625 
Q 18.015625 53.03125 27.640625 53.03125 
Q 38.328125 53.03125 45.109375 46.015625 
Q 51.90625 39.015625 51.90625 26.65625 
Q 51.90625 16.65625 48.90625 10.90625 
Q 45.90625 5.171875 40.15625 2 
Q 34.421875 -1.171875 27.640625 -1.171875 
Q 16.75 -1.171875 10.03125 5.8125 
Q 3.328125 12.796875 3.328125 25.921875 
z
M 12.359375 25.921875 
Q 12.359375 15.96875 16.703125 11.015625 
Q 21.046875 6.0625 27.640625 6.0625 
Q 34.1875 6.0625 38.53125 11.03125 
Q 42.875 16.015625 42.875 26.21875 
Q 42.875 35.84375 38.5 40.796875 
Q 34.125 45.75 27.640625 45.75 
Q 21.046875 45.75 16.703125 40.8125 
Q 12.359375 35.890625 12.359375 25.921875 
z
" id="ArialMT-111"/>
      <path id="ArialMT-32"/>
      <path d="M 25.921875 0 
L 25.921875 63.140625 
L 2.34375 63.140625 
L 2.34375 71.578125 
L 59.078125 71.578125 
L 59.078125 63.140625 
L 35.40625 63.140625 
L 35.40625 0 
z
" id="ArialMT-84"/>
      <path d="M 6.59375 0 
L 6.59375 51.859375 
L 14.453125 51.859375 
L 14.453125 44.578125 
Q 16.890625 48.390625 20.9375 50.703125 
Q 25 53.03125 30.171875 53.03125 
Q 35.9375 53.03125 39.625 50.640625 
Q 43.3125 48.25 44.828125 43.953125 
Q 50.984375 53.03125 60.84375 53.03125 
Q 68.5625 53.03125 72.703125 48.75 
Q 76.859375 44.484375 76.859375 35.59375 
L 76.859375 0 
L 68.109375 0 
L 68.109375 32.671875 
Q 68.109375 37.9375 67.25 40.25 
Q 66.40625 42.578125 64.15625 43.984375 
Q 61.921875 45.40625 58.890625 45.40625 
Q 53.421875 45.40625 49.796875 41.765625 
Q 46.1875 38.140625 46.1875 30.125 
L 46.1875 0 
L 37.40625 0 
L 37.40625 33.6875 
Q 37.40625 39.546875 35.25 42.46875 
Q 33.109375 45.40625 28.21875 45.40625 
Q 24.515625 45.40625 21.359375 43.453125 
Q 18.21875 41.5 16.796875 37.734375 
Q 15.375 33.984375 15.375 26.90625 
L 15.375 0 
z
" id="ArialMT-109"/>
      <path d="M 42.09375 16.703125 
L 51.171875 15.578125 
Q 49.03125 7.625 43.21875 3.21875 
Q 37.40625 -1.171875 28.375 -1.171875 
Q 17 -1.171875 10.328125 5.828125 
Q 3.65625 12.84375 3.65625 25.484375 
Q 3.65625 38.578125 10.390625 45.796875 
Q 17.140625 53.03125 27.875 53.03125 
Q 38.28125 53.03125 44.875 45.953125 
Q 51.46875 38.875 51.46875 26.03125 
Q 51.46875 25.25 51.421875 23.6875 
L 12.75 23.6875 
Q 13.234375 15.140625 17.578125 10.59375 
Q 21.921875 6.0625 28.421875 6.0625 
Q 33.25 6.0625 36.671875 8.59375 
Q 40.09375 11.140625 42.09375 16.703125 
z
M 13.234375 30.90625 
L 42.1875 30.90625 
Q 41.609375 37.453125 38.875 40.71875 
Q 34.671875 45.796875 27.984375 45.796875 
Q 21.921875 45.796875 17.796875 41.75 
Q 13.671875 37.703125 13.234375 30.90625 
z
" id="ArialMT-101"/>
      <path d="M 3.078125 15.484375 
L 11.765625 16.84375 
Q 12.5 11.625 15.84375 8.84375 
Q 19.1875 6.0625 25.203125 6.0625 
Q 31.25 6.0625 34.171875 8.515625 
Q 37.109375 10.984375 37.109375 14.3125 
Q 37.109375 17.28125 34.515625 19 
Q 32.71875 20.171875 25.53125 21.96875 
Q 15.875 24.421875 12.140625 26.203125 
Q 8.40625 27.984375 6.46875 31.125 
Q 4.546875 34.28125 4.546875 38.09375 
Q 4.546875 41.546875 6.125 44.5 
Q 7.71875 47.46875 10.453125 49.421875 
Q 12.5 50.921875 16.03125 51.96875 
Q 19.578125 53.03125 23.640625 53.03125 
Q 29.734375 53.03125 34.34375 51.265625 
Q 38.96875 49.515625 41.15625 46.5 
Q 43.359375 43.5 44.1875 38.484375 
L 35.59375 37.3125 
Q 35.015625 41.3125 32.203125 43.546875 
Q 29.390625 45.796875 24.265625 45.796875 
Q 18.21875 45.796875 15.625 43.796875 
Q 13.03125 41.796875 13.03125 39.109375 
Q 13.03125 37.40625 14.109375 36.03125 
Q 15.1875 34.625 17.484375 33.6875 
Q 18.796875 33.203125 25.25 31.453125 
Q 34.578125 28.953125 38.25 27.359375 
Q 41.9375 25.78125 44.03125 22.75 
Q 46.140625 19.734375 46.140625 15.234375 
Q 46.140625 10.84375 43.578125 6.953125 
Q 41.015625 3.078125 36.171875 0.953125 
Q 31.34375 -1.171875 25.25 -1.171875 
Q 15.140625 -1.171875 9.84375 3.03125 
Q 4.546875 7.234375 3.078125 15.484375 
z
" id="ArialMT-115"/>
      <path d="M 23.390625 -21.046875 
Q 16.109375 -11.859375 11.078125 0.4375 
Q 6.0625 12.75 6.0625 25.921875 
Q 6.0625 37.546875 9.8125 48.1875 
Q 14.203125 60.546875 23.390625 72.796875 
L 29.6875 72.796875 
Q 23.78125 62.640625 21.875 58.296875 
Q 18.890625 51.5625 17.1875 44.234375 
Q 15.09375 35.109375 15.09375 25.875 
Q 15.09375 2.390625 29.6875 -21.046875 
z
" id="ArialMT-40"/>
      <path d="M 40.234375 0 
L 40.234375 6.546875 
Q 35.296875 -1.171875 25.734375 -1.171875 
Q 19.53125 -1.171875 14.328125 2.25 
Q 9.125 5.671875 6.265625 11.796875 
Q 3.421875 17.921875 3.421875 25.875 
Q 3.421875 33.640625 6 39.96875 
Q 8.59375 46.296875 13.765625 49.65625 
Q 18.953125 53.03125 25.34375 53.03125 
Q 30.03125 53.03125 33.6875 51.046875 
Q 37.359375 49.078125 39.65625 45.90625 
L 39.65625 71.578125 
L 48.390625 71.578125 
L 48.390625 0 
z
M 12.453125 25.875 
Q 12.453125 15.921875 16.640625 10.984375 
Q 20.84375 6.0625 26.5625 6.0625 
Q 32.328125 6.0625 36.34375 10.765625 
Q 40.375 15.484375 40.375 25.140625 
Q 40.375 35.796875 36.265625 40.765625 
Q 32.171875 45.75 26.171875 45.75 
Q 20.3125 45.75 16.375 40.96875 
Q 12.453125 36.1875 12.453125 25.875 
z
" id="ArialMT-100"/>
      <path d="M 40.4375 6.390625 
Q 35.546875 2.25 31.03125 0.53125 
Q 26.515625 -1.171875 21.34375 -1.171875 
Q 12.796875 -1.171875 8.203125 3 
Q 3.609375 7.171875 3.609375 13.671875 
Q 3.609375 17.484375 5.34375 20.625 
Q 7.078125 23.78125 9.890625 25.6875 
Q 12.703125 27.59375 16.21875 28.5625 
Q 18.796875 29.25 24.03125 29.890625 
Q 34.671875 31.15625 39.703125 32.90625 
Q 39.75 34.71875 39.75 35.203125 
Q 39.75 40.578125 37.25 42.78125 
Q 33.890625 45.75 27.25 45.75 
Q 21.046875 45.75 18.09375 43.578125 
Q 15.140625 41.40625 13.71875 35.890625 
L 5.125 37.0625 
Q 6.296875 42.578125 8.984375 45.96875 
Q 11.671875 49.359375 16.75 51.1875 
Q 21.828125 53.03125 28.515625 53.03125 
Q 35.15625 53.03125 39.296875 51.46875 
Q 43.453125 49.90625 45.40625 47.53125 
Q 47.359375 45.171875 48.140625 41.546875 
Q 48.578125 39.3125 48.578125 33.453125 
L 48.578125 21.734375 
Q 48.578125 9.46875 49.140625 6.21875 
Q 49.703125 2.984375 51.375 0 
L 42.1875 0 
Q 40.828125 2.734375 40.4375 6.390625 
z
M 39.703125 26.03125 
Q 34.90625 24.078125 25.34375 22.703125 
Q 19.921875 21.921875 17.671875 20.9375 
Q 15.4375 19.96875 14.203125 18.09375 
Q 12.984375 16.21875 12.984375 13.921875 
Q 12.984375 10.40625 15.640625 8.0625 
Q 18.3125 5.71875 23.4375 5.71875 
Q 28.515625 5.71875 32.46875 7.9375 
Q 36.421875 10.15625 38.28125 14.015625 
Q 39.703125 17 39.703125 22.796875 
z
" id="ArialMT-97"/>
      <path d="M 6.203125 -19.96875 
L 5.21875 -11.71875 
Q 8.109375 -12.5 10.25 -12.5 
Q 13.1875 -12.5 14.9375 -11.515625 
Q 16.703125 -10.546875 17.828125 -8.796875 
Q 18.65625 -7.46875 20.515625 -2.25 
Q 20.75 -1.515625 21.296875 -0.09375 
L 1.609375 51.859375 
L 11.078125 51.859375 
L 21.875 21.828125 
Q 23.96875 16.109375 25.640625 9.8125 
Q 27.15625 15.875 29.25 21.625 
L 40.328125 51.859375 
L 49.125 51.859375 
L 29.390625 -0.875 
Q 26.21875 -9.421875 24.46875 -12.640625 
Q 22.125 -17 19.09375 -19.015625 
Q 16.0625 -21.046875 11.859375 -21.046875 
Q 9.328125 -21.046875 6.203125 -19.96875 
z
" id="ArialMT-121"/>
      <path d="M 12.359375 -21.046875 
L 6.0625 -21.046875 
Q 20.65625 2.390625 20.65625 25.875 
Q 20.65625 35.0625 18.5625 44.09375 
Q 16.890625 51.421875 13.921875 58.15625 
Q 12.015625 62.546875 6.0625 72.796875 
L 12.359375 72.796875 
Q 21.53125 60.546875 25.921875 48.1875 
Q 29.6875 37.546875 29.6875 25.921875 
Q 29.6875 12.75 24.625 0.4375 
Q 19.578125 -11.859375 12.359375 -21.046875 
z
" id="ArialMT-41"/>
     </defs>
     <g style="fill:#262626;" transform="translate(159.057187 284.295469)scale(0.12 -0.12)">
      <use xlink:href="#ArialMT-69"/>
      <use x="66.699219" xlink:href="#ArialMT-120"/>
      <use x="116.699219" xlink:href="#ArialMT-116"/>
      <use x="144.482422" xlink:href="#ArialMT-105"/>
      <use x="166.699219" xlink:href="#ArialMT-110"/>
      <use x="222.314453" xlink:href="#ArialMT-99"/>
      <use x="272.314453" xlink:href="#ArialMT-116"/>
      <use x="300.097656" xlink:href="#ArialMT-105"/>
      <use x="322.314453" xlink:href="#ArialMT-111"/>
      <use x="377.929688" xlink:href="#ArialMT-110"/>
      <use x="433.544922" xlink:href="#ArialMT-32"/>
      <use x="461.3125" xlink:href="#ArialMT-84"/>
      <use x="522.349609" xlink:href="#ArialMT-105"/>
      <use x="544.566406" xlink:href="#ArialMT-109"/>
      <use x="627.867188" xlink:href="#ArialMT-101"/>
      <use x="683.482422" xlink:href="#ArialMT-115"/>
      <use x="733.482422" xlink:href="#ArialMT-32"/>
      <use x="761.265625" xlink:href="#ArialMT-40"/>
      <use x="794.566406" xlink:href="#ArialMT-100"/>
      <use x="850.181641" xlink:href="#ArialMT-97"/>
      <use x="905.796875" xlink:href="#ArialMT-121"/>
      <use x="955.796875" xlink:href="#ArialMT-115"/>
      <use x="1005.796875" xlink:href="#ArialMT-41"/>
     </g>
    </g>
   </g>
   <g id="matplotlib.axis_2">
    <g id="ytick_1">
     <g id="line2d_7">
      <path clip-path="url(#pa8a22c2cb4)" d="M 54 252 
L 388.8 252 
" style="fill:none;stroke:#ffffff;stroke-linecap:round;"/>
     </g>
     <g id="text_8">
      <!-- 0 -->
      <g style="fill:#262626;" transform="translate(38.382969 255.936797)scale(0.11 -0.11)">
       <use xlink:href="#ArialMT-48"/>
      </g>
     </g>
    </g>
    <g id="ytick_2">
     <g id="line2d_8">
      <path clip-path="url(#pa8a22c2cb4)" d="M 54 210.582857 
L 388.8 210.582857 
" style="fill:none;stroke:#ffffff;stroke-linecap:round;"/>
     </g>
     <g id="text_9">
      <!-- 10 -->
      <g style="fill:#262626;" transform="translate(32.265937 214.519654)scale(0.11 -0.11)">
       <use xlink:href="#ArialMT-49"/>
       <use x="55.615234" xlink:href="#ArialMT-48"/>
      </g>
     </g>
    </g>
    <g id="ytick_3">
     <g id="line2d_9">
      <path clip-path="url(#pa8a22c2cb4)" d="M 54 169.165714 
L 388.8 169.165714 
" style="fill:none;stroke:#ffffff;stroke-linecap:round;"/>
     </g>
     <g id="text_10">
      <!-- 20 -->
      <g style="fill:#262626;" transform="translate(32.265937 173.102511)scale(0.11 -0.11)">
       <use xlink:href="#ArialMT-50"/>
       <use x="55.615234" xlink:href="#ArialMT-48"/>
      </g>
     </g>
    </g>
    <g id="ytick_4">
     <g id="line2d_10">
      <path clip-path="url(#pa8a22c2cb4)" d="M 54 127.748571 
L 388.8 127.748571 
" style="fill:none;stroke:#ffffff;stroke-linecap:round;"/>
     </g>
     <g id="text_11">
      <!-- 30 -->
      <defs>
       <path d="M 4.203125 18.890625 
L 12.984375 20.0625 
Q 14.5 12.59375 18.140625 9.296875 
Q 21.78125 6 27 6 
Q 33.203125 6 37.46875 10.296875 
Q 41.75 14.59375 41.75 20.953125 
Q 41.75 27 37.796875 30.921875 
Q 33.84375 34.859375 27.734375 34.859375 
Q 25.25 34.859375 21.53125 33.890625 
L 22.515625 41.609375 
Q 23.390625 41.5 23.921875 41.5 
Q 29.546875 41.5 34.03125 44.421875 
Q 38.53125 47.359375 38.53125 53.46875 
Q 38.53125 58.296875 35.25 61.46875 
Q 31.984375 64.65625 26.8125 64.65625 
Q 21.6875 64.65625 18.265625 61.421875 
Q 14.84375 58.203125 13.875 51.765625 
L 5.078125 53.328125 
Q 6.6875 62.15625 12.390625 67.015625 
Q 18.109375 71.875 26.609375 71.875 
Q 32.46875 71.875 37.390625 69.359375 
Q 42.328125 66.84375 44.9375 62.5 
Q 47.5625 58.15625 47.5625 53.265625 
Q 47.5625 48.640625 45.0625 44.828125 
Q 42.578125 41.015625 37.703125 38.765625 
Q 44.046875 37.3125 47.5625 32.6875 
Q 51.078125 28.078125 51.078125 21.140625 
Q 51.078125 11.765625 44.234375 5.25 
Q 37.40625 -1.265625 26.953125 -1.265625 
Q 17.53125 -1.265625 11.296875 4.34375 
Q 5.078125 9.96875 4.203125 18.890625 
z
" id="ArialMT-51"/>
      </defs>
      <g style="fill:#262626;" transform="translate(32.265937 131.685368)scale(0.11 -0.11)">
       <use xlink:href="#ArialMT-51"/>
       <use x="55.615234" xlink:href="#ArialMT-48"/>
      </g>
     </g>
    </g>
    <g id="ytick_5">
     <g id="line2d_11">
      <path clip-path="url(#pa8a22c2cb4)" d="M 54 86.331429 
L 388.8 86.331429 
" style="fill:none;stroke:#ffffff;stroke-linecap:round;"/>
     </g>
     <g id="text_12">
      <!-- 40 -->
      <g style="fill:#262626;" transform="translate(32.265937 90.268225)scale(0.11 -0.11)">
       <use xlink:href="#ArialMT-52"/>
       <use x="55.615234" xlink:href="#ArialMT-48"/>
      </g>
     </g>
    </g>
    <g id="ytick_6">
     <g id="line2d_12">
      <path clip-path="url(#pa8a22c2cb4)" d="M 54 44.914286 
L 388.8 44.914286 
" style="fill:none;stroke:#ffffff;stroke-linecap:round;"/>
     </g>
     <g id="text_13">
      <!-- 50 -->
      <defs>
       <path d="M 4.15625 18.75 
L 13.375 19.53125 
Q 14.40625 12.796875 18.140625 9.390625 
Q 21.875 6 27.15625 6 
Q 33.5 6 37.890625 10.78125 
Q 42.28125 15.578125 42.28125 23.484375 
Q 42.28125 31 38.0625 35.34375 
Q 33.84375 39.703125 27 39.703125 
Q 22.75 39.703125 19.328125 37.765625 
Q 15.921875 35.84375 13.96875 32.765625 
L 5.71875 33.84375 
L 12.640625 70.609375 
L 48.25 70.609375 
L 48.25 62.203125 
L 19.671875 62.203125 
L 15.828125 42.96875 
Q 22.265625 47.46875 29.34375 47.46875 
Q 38.71875 47.46875 45.15625 40.96875 
Q 51.609375 34.46875 51.609375 24.265625 
Q 51.609375 14.546875 45.953125 7.46875 
Q 39.0625 -1.21875 27.15625 -1.21875 
Q 17.390625 -1.21875 11.203125 4.25 
Q 5.03125 9.71875 4.15625 18.75 
z
" id="ArialMT-53"/>
      </defs>
      <g style="fill:#262626;" transform="translate(32.265937 48.851083)scale(0.11 -0.11)">
       <use xlink:href="#ArialMT-53"/>
       <use x="55.615234" xlink:href="#ArialMT-48"/>
      </g>
     </g>
    </g>
    <g id="text_14">
     <!-- Frequency -->
     <defs>
      <path d="M 8.203125 0 
L 8.203125 71.578125 
L 56.5 71.578125 
L 56.5 63.140625 
L 17.671875 63.140625 
L 17.671875 40.96875 
L 51.265625 40.96875 
L 51.265625 32.515625 
L 17.671875 32.515625 
L 17.671875 0 
z
" id="ArialMT-70"/>
      <path d="M 6.5 0 
L 6.5 51.859375 
L 14.40625 51.859375 
L 14.40625 44 
Q 17.4375 49.515625 20 51.265625 
Q 22.5625 53.03125 25.640625 53.03125 
Q 30.078125 53.03125 34.671875 50.203125 
L 31.640625 42.046875 
Q 28.421875 43.953125 25.203125 43.953125 
Q 22.3125 43.953125 20.015625 42.21875 
Q 17.71875 40.484375 16.75 37.40625 
Q 15.28125 32.71875 15.28125 27.15625 
L 15.28125 0 
z
" id="ArialMT-114"/>
      <path d="M 39.65625 -19.875 
L 39.65625 5.515625 
Q 37.59375 2.640625 33.90625 0.734375 
Q 30.21875 -1.171875 26.078125 -1.171875 
Q 16.84375 -1.171875 10.171875 6.203125 
Q 3.515625 13.578125 3.515625 26.421875 
Q 3.515625 34.234375 6.21875 40.421875 
Q 8.9375 46.625 14.078125 49.828125 
Q 19.234375 53.03125 25.390625 53.03125 
Q 35.015625 53.03125 40.53125 44.921875 
L 40.53125 51.859375 
L 48.4375 51.859375 
L 48.4375 -19.875 
z
M 12.546875 26.078125 
Q 12.546875 16.0625 16.75 11.0625 
Q 20.953125 6.0625 26.8125 6.0625 
Q 32.421875 6.0625 36.46875 10.8125 
Q 40.53125 15.578125 40.53125 25.296875 
Q 40.53125 35.640625 36.25 40.859375 
Q 31.984375 46.09375 26.21875 46.09375 
Q 20.515625 46.09375 16.53125 41.234375 
Q 12.546875 36.375 12.546875 26.078125 
z
" id="ArialMT-113"/>
      <path d="M 40.578125 0 
L 40.578125 7.625 
Q 34.515625 -1.171875 24.125 -1.171875 
Q 19.53125 -1.171875 15.546875 0.578125 
Q 11.578125 2.34375 9.640625 5 
Q 7.71875 7.671875 6.9375 11.53125 
Q 6.390625 14.109375 6.390625 19.734375 
L 6.390625 51.859375 
L 15.1875 51.859375 
L 15.1875 23.09375 
Q 15.1875 16.21875 15.71875 13.8125 
Q 16.546875 10.359375 19.234375 8.375 
Q 21.921875 6.390625 25.875 6.390625 
Q 29.828125 6.390625 33.296875 8.421875 
Q 36.765625 10.453125 38.203125 13.9375 
Q 39.65625 17.4375 39.65625 24.078125 
L 39.65625 51.859375 
L 48.4375 51.859375 
L 48.4375 0 
z
" id="ArialMT-117"/>
     </defs>
     <g style="fill:#262626;" transform="translate(25.740312 171.625313)rotate(-90)scale(0.12 -0.12)">
      <use xlink:href="#ArialMT-70"/>
      <use x="61.083984" xlink:href="#ArialMT-114"/>
      <use x="94.384766" xlink:href="#ArialMT-101"/>
      <use x="150" xlink:href="#ArialMT-113"/>
      <use x="205.615234" xlink:href="#ArialMT-117"/>
      <use x="261.230469" xlink:href="#ArialMT-101"/>
      <use x="316.845703" xlink:href="#ArialMT-110"/>
      <use x="372.460938" xlink:href="#ArialMT-99"/>
      <use x="422.460938" xlink:href="#ArialMT-121"/>
     </g>
    </g>
   </g>
   <g id="patch_3">
    <path clip-path="url(#pa8a22c2cb4)" d="M 69.514149 252 
L 72.090994 252 
L 72.090994 252 
L 69.514149 252 
z
" style="fill:#4c72b0;opacity:0.4;stroke:#ffffff;stroke-linejoin:miter;"/>
   </g>
   <g id="patch_4">
    <path clip-path="url(#pa8a22c2cb4)" d="M 72.090994 252 
L 74.667838 252 
L 74.667838 223.008 
L 72.090994 223.008 
z
" style="fill:#4c72b0;opacity:0.4;stroke:#ffffff;stroke-linejoin:miter;"/>
   </g>
   <g id="patch_5">
    <path clip-path="url(#pa8a22c2cb4)" d="M 74.667838 252 
L 77.244683 252 
L 77.244683 194.016 
L 74.667838 194.016 
z
" style="fill:#4c72b0;opacity:0.4;stroke:#ffffff;stroke-linejoin:miter;"/>
   </g>
   <g id="patch_6">
    <path clip-path="url(#pa8a22c2cb4)" d="M 77.244683 252 
L 79.821528 252 
L 79.821528 140.173714 
L 77.244683 140.173714 
z
" style="fill:#4c72b0;opacity:0.4;stroke:#ffffff;stroke-linejoin:miter;"/>
   </g>
   <g id="patch_7">
    <path clip-path="url(#pa8a22c2cb4)" d="M 79.821528 252 
L 82.398372 252 
L 82.398372 44.914286 
L 79.821528 44.914286 
z
" style="fill:#4c72b0;opacity:0.4;stroke:#ffffff;stroke-linejoin:miter;"/>
   </g>
   <g id="patch_8">
    <path clip-path="url(#pa8a22c2cb4)" d="M 82.398372 252 
L 84.975217 252 
L 84.975217 69.764571 
L 82.398372 69.764571 
z
" style="fill:#4c72b0;opacity:0.4;stroke:#ffffff;stroke-linejoin:miter;"/>
   </g>
   <g id="patch_9">
    <path clip-path="url(#pa8a22c2cb4)" d="M 84.975217 252 
L 87.552062 252 
L 87.552062 73.906286 
L 84.975217 73.906286 
z
" style="fill:#4c72b0;opacity:0.4;stroke:#ffffff;stroke-linejoin:miter;"/>
   </g>
   <g id="patch_10">
    <path clip-path="url(#pa8a22c2cb4)" d="M 87.552062 252 
L 90.128906 252 
L 90.128906 107.04 
L 87.552062 107.04 
z
" style="fill:#4c72b0;opacity:0.4;stroke:#ffffff;stroke-linejoin:miter;"/>
   </g>
   <g id="patch_11">
    <path clip-path="url(#pa8a22c2cb4)" d="M 90.128906 252 
L 92.705751 252 
L 92.705751 136.032 
L 90.128906 136.032 
z
" style="fill:#4c72b0;opacity:0.4;stroke:#ffffff;stroke-linejoin:miter;"/>
   </g>
   <g id="patch_12">
    <path clip-path="url(#pa8a22c2cb4)" d="M 92.705751 252 
L 95.282596 252 
L 95.282596 127.748571 
L 92.705751 127.748571 
z
" style="fill:#4c72b0;opacity:0.4;stroke:#ffffff;stroke-linejoin:miter;"/>
   </g>
   <g id="patch_13">
    <path clip-path="url(#pa8a22c2cb4)" d="M 95.282596 252 
L 97.85944 252 
L 97.85944 160.882286 
L 95.282596 160.882286 
z
" style="fill:#4c72b0;opacity:0.4;stroke:#ffffff;stroke-linejoin:miter;"/>
   </g>
   <g id="patch_14">
    <path clip-path="url(#pa8a22c2cb4)" d="M 97.85944 252 
L 100.436285 252 
L 100.436285 177.449143 
L 97.85944 177.449143 
z
" style="fill:#4c72b0;opacity:0.4;stroke:#ffffff;stroke-linejoin:miter;"/>
   </g>
   <g id="patch_15">
    <path clip-path="url(#pa8a22c2cb4)" d="M 100.436285 252 
L 103.013129 252 
L 103.013129 181.590857 
L 100.436285 181.590857 
z
" style="fill:#4c72b0;opacity:0.4;stroke:#ffffff;stroke-linejoin:miter;"/>
   </g>
   <g id="patch_16">
    <path clip-path="url(#pa8a22c2cb4)" d="M 103.013129 252 
L 105.589974 252 
L 105.589974 169.165714 
L 103.013129 169.165714 
z
" style="fill:#4c72b0;opacity:0.4;stroke:#ffffff;stroke-linejoin:miter;"/>
   </g>
   <g id="patch_17">
    <path clip-path="url(#pa8a22c2cb4)" d="M 105.589974 252 
L 108.166819 252 
L 108.166819 169.165714 
L 105.589974 169.165714 
z
" style="fill:#4c72b0;opacity:0.4;stroke:#ffffff;stroke-linejoin:miter;"/>
   </g>
   <g id="patch_18">
    <path clip-path="url(#pa8a22c2cb4)" d="M 108.166819 252 
L 110.743663 252 
L 110.743663 198.157714 
L 108.166819 198.157714 
z
" style="fill:#4c72b0;opacity:0.4;stroke:#ffffff;stroke-linejoin:miter;"/>
   </g>
   <g id="patch_19">
    <path clip-path="url(#pa8a22c2cb4)" d="M 110.743663 252 
L 113.320508 252 
L 113.320508 198.157714 
L 110.743663 198.157714 
z
" style="fill:#4c72b0;opacity:0.4;stroke:#ffffff;stroke-linejoin:miter;"/>
   </g>
   <g id="patch_20">
    <path clip-path="url(#pa8a22c2cb4)" d="M 113.320508 252 
L 115.897353 252 
L 115.897353 185.732571 
L 113.320508 185.732571 
z
" style="fill:#4c72b0;opacity:0.4;stroke:#ffffff;stroke-linejoin:miter;"/>
   </g>
   <g id="patch_21">
    <path clip-path="url(#pa8a22c2cb4)" d="M 115.897353 252 
L 118.474197 252 
L 118.474197 206.441143 
L 115.897353 206.441143 
z
" style="fill:#4c72b0;opacity:0.4;stroke:#ffffff;stroke-linejoin:miter;"/>
   </g>
   <g id="patch_22">
    <path clip-path="url(#pa8a22c2cb4)" d="M 118.474197 252 
L 121.051042 252 
L 121.051042 177.449143 
L 118.474197 177.449143 
z
" style="fill:#4c72b0;opacity:0.4;stroke:#ffffff;stroke-linejoin:miter;"/>
   </g>
   <g id="patch_23">
    <path clip-path="url(#pa8a22c2cb4)" d="M 121.051042 252 
L 123.627887 252 
L 123.627887 243.716571 
L 121.051042 243.716571 
z
" style="fill:#4c72b0;opacity:0.4;stroke:#ffffff;stroke-linejoin:miter;"/>
   </g>
   <g id="patch_24">
    <path clip-path="url(#pa8a22c2cb4)" d="M 123.627887 252 
L 126.204731 252 
L 126.204731 206.441143 
L 123.627887 206.441143 
z
" style="fill:#4c72b0;opacity:0.4;stroke:#ffffff;stroke-linejoin:miter;"/>
   </g>
   <g id="patch_25">
    <path clip-path="url(#pa8a22c2cb4)" d="M 126.204731 252 
L 128.781576 252 
L 128.781576 227.149714 
L 126.204731 227.149714 
z
" style="fill:#4c72b0;opacity:0.4;stroke:#ffffff;stroke-linejoin:miter;"/>
   </g>
   <g id="patch_26">
    <path clip-path="url(#pa8a22c2cb4)" d="M 128.781576 252 
L 131.358421 252 
L 131.358421 223.008 
L 128.781576 223.008 
z
" style="fill:#4c72b0;opacity:0.4;stroke:#ffffff;stroke-linejoin:miter;"/>
   </g>
   <g id="patch_27">
    <path clip-path="url(#pa8a22c2cb4)" d="M 131.358421 252 
L 133.935265 252 
L 133.935265 210.582857 
L 131.358421 210.582857 
z
" style="fill:#4c72b0;opacity:0.4;stroke:#ffffff;stroke-linejoin:miter;"/>
   </g>
   <g id="patch_28">
    <path clip-path="url(#pa8a22c2cb4)" d="M 133.935265 252 
L 136.51211 252 
L 136.51211 227.149714 
L 133.935265 227.149714 
z
" style="fill:#4c72b0;opacity:0.4;stroke:#ffffff;stroke-linejoin:miter;"/>
   </g>
   <g id="patch_29">
    <path clip-path="url(#pa8a22c2cb4)" d="M 136.51211 252 
L 139.088955 252 
L 139.088955 214.724571 
L 136.51211 214.724571 
z
" style="fill:#4c72b0;opacity:0.4;stroke:#ffffff;stroke-linejoin:miter;"/>
   </g>
   <g id="patch_30">
    <path clip-path="url(#pa8a22c2cb4)" d="M 139.088955 252 
L 141.665799 252 
L 141.665799 243.716571 
L 139.088955 243.716571 
z
" style="fill:#4c72b0;opacity:0.4;stroke:#ffffff;stroke-linejoin:miter;"/>
   </g>
   <g id="patch_31">
    <path clip-path="url(#pa8a22c2cb4)" d="M 141.665799 252 
L 144.242644 252 
L 144.242644 239.574857 
L 141.665799 239.574857 
z
" style="fill:#4c72b0;opacity:0.4;stroke:#ffffff;stroke-linejoin:miter;"/>
   </g>
   <g id="patch_32">
    <path clip-path="url(#pa8a22c2cb4)" d="M 144.242644 252 
L 146.819489 252 
L 146.819489 223.008 
L 144.242644 223.008 
z
" style="fill:#4c72b0;opacity:0.4;stroke:#ffffff;stroke-linejoin:miter;"/>
   </g>
   <g id="patch_33">
    <path clip-path="url(#pa8a22c2cb4)" d="M 146.819489 252 
L 149.396333 252 
L 149.396333 235.433143 
L 146.819489 235.433143 
z
" style="fill:#4c72b0;opacity:0.4;stroke:#ffffff;stroke-linejoin:miter;"/>
   </g>
   <g id="patch_34">
    <path clip-path="url(#pa8a22c2cb4)" d="M 149.396333 252 
L 151.973178 252 
L 151.973178 239.574857 
L 149.396333 239.574857 
z
" style="fill:#4c72b0;opacity:0.4;stroke:#ffffff;stroke-linejoin:miter;"/>
   </g>
   <g id="patch_35">
    <path clip-path="url(#pa8a22c2cb4)" d="M 151.973178 252 
L 154.550023 252 
L 154.550023 239.574857 
L 151.973178 239.574857 
z
" style="fill:#4c72b0;opacity:0.4;stroke:#ffffff;stroke-linejoin:miter;"/>
   </g>
   <g id="patch_36">
    <path clip-path="url(#pa8a22c2cb4)" d="M 154.550023 252 
L 157.126867 252 
L 157.126867 243.716571 
L 154.550023 243.716571 
z
" style="fill:#4c72b0;opacity:0.4;stroke:#ffffff;stroke-linejoin:miter;"/>
   </g>
   <g id="patch_37">
    <path clip-path="url(#pa8a22c2cb4)" d="M 157.126867 252 
L 159.703712 252 
L 159.703712 252 
L 157.126867 252 
z
" style="fill:#4c72b0;opacity:0.4;stroke:#ffffff;stroke-linejoin:miter;"/>
   </g>
   <g id="patch_38">
    <path clip-path="url(#pa8a22c2cb4)" d="M 159.703712 252 
L 162.280557 252 
L 162.280557 243.716571 
L 159.703712 243.716571 
z
" style="fill:#4c72b0;opacity:0.4;stroke:#ffffff;stroke-linejoin:miter;"/>
   </g>
   <g id="patch_39">
    <path clip-path="url(#pa8a22c2cb4)" d="M 162.280557 252 
L 164.857401 252 
L 164.857401 235.433143 
L 162.280557 235.433143 
z
" style="fill:#4c72b0;opacity:0.4;stroke:#ffffff;stroke-linejoin:miter;"/>
   </g>
   <g id="patch_40">
    <path clip-path="url(#pa8a22c2cb4)" d="M 164.857401 252 
L 167.434246 252 
L 167.434246 252 
L 164.857401 252 
z
" style="fill:#4c72b0;opacity:0.4;stroke:#ffffff;stroke-linejoin:miter;"/>
   </g>
   <g id="patch_41">
    <path clip-path="url(#pa8a22c2cb4)" d="M 167.434246 252 
L 170.011091 252 
L 170.011091 247.858286 
L 167.434246 247.858286 
z
" style="fill:#4c72b0;opacity:0.4;stroke:#ffffff;stroke-linejoin:miter;"/>
   </g>
   <g id="patch_42">
    <path clip-path="url(#pa8a22c2cb4)" d="M 170.011091 252 
L 172.587935 252 
L 172.587935 247.858286 
L 170.011091 247.858286 
z
" style="fill:#4c72b0;opacity:0.4;stroke:#ffffff;stroke-linejoin:miter;"/>
   </g>
   <g id="patch_43">
    <path clip-path="url(#pa8a22c2cb4)" d="M 172.587935 252 
L 175.16478 252 
L 175.16478 239.574857 
L 172.587935 239.574857 
z
" style="fill:#4c72b0;opacity:0.4;stroke:#ffffff;stroke-linejoin:miter;"/>
   </g>
   <g id="patch_44">
    <path clip-path="url(#pa8a22c2cb4)" d="M 175.16478 252 
L 177.741624 252 
L 177.741624 239.574857 
L 175.16478 239.574857 
z
" style="fill:#4c72b0;opacity:0.4;stroke:#ffffff;stroke-linejoin:miter;"/>
   </g>
   <g id="patch_45">
    <path clip-path="url(#pa8a22c2cb4)" d="M 177.741624 252 
L 180.318469 252 
L 180.318469 252 
L 177.741624 252 
z
" style="fill:#4c72b0;opacity:0.4;stroke:#ffffff;stroke-linejoin:miter;"/>
   </g>
   <g id="patch_46">
    <path clip-path="url(#pa8a22c2cb4)" d="M 180.318469 252 
L 182.895314 252 
L 182.895314 243.716571 
L 180.318469 243.716571 
z
" style="fill:#4c72b0;opacity:0.4;stroke:#ffffff;stroke-linejoin:miter;"/>
   </g>
   <g id="patch_47">
    <path clip-path="url(#pa8a22c2cb4)" d="M 182.895314 252 
L 185.472158 252 
L 185.472158 252 
L 182.895314 252 
z
" style="fill:#4c72b0;opacity:0.4;stroke:#ffffff;stroke-linejoin:miter;"/>
   </g>
   <g id="patch_48">
    <path clip-path="url(#pa8a22c2cb4)" d="M 185.472158 252 
L 188.049003 252 
L 188.049003 247.858286 
L 185.472158 247.858286 
z
" style="fill:#4c72b0;opacity:0.4;stroke:#ffffff;stroke-linejoin:miter;"/>
   </g>
   <g id="patch_49">
    <path clip-path="url(#pa8a22c2cb4)" d="M 188.049003 252 
L 190.625848 252 
L 190.625848 252 
L 188.049003 252 
z
" style="fill:#4c72b0;opacity:0.4;stroke:#ffffff;stroke-linejoin:miter;"/>
   </g>
   <g id="patch_50">
    <path clip-path="url(#pa8a22c2cb4)" d="M 190.625848 252 
L 193.202692 252 
L 193.202692 243.716571 
L 190.625848 243.716571 
z
" style="fill:#4c72b0;opacity:0.4;stroke:#ffffff;stroke-linejoin:miter;"/>
   </g>
   <g id="patch_51">
    <path clip-path="url(#pa8a22c2cb4)" d="M 193.202692 252 
L 195.779537 252 
L 195.779537 252 
L 193.202692 252 
z
" style="fill:#4c72b0;opacity:0.4;stroke:#ffffff;stroke-linejoin:miter;"/>
   </g>
   <g id="patch_52">
    <path clip-path="url(#pa8a22c2cb4)" d="M 195.779537 252 
L 198.356382 252 
L 198.356382 247.858286 
L 195.779537 247.858286 
z
" style="fill:#4c72b0;opacity:0.4;stroke:#ffffff;stroke-linejoin:miter;"/>
   </g>
   <g id="patch_53">
    <path clip-path="url(#pa8a22c2cb4)" d="M 198.356382 252 
L 200.933226 252 
L 200.933226 247.858286 
L 198.356382 247.858286 
z
" style="fill:#4c72b0;opacity:0.4;stroke:#ffffff;stroke-linejoin:miter;"/>
   </g>
   <g id="patch_54">
    <path clip-path="url(#pa8a22c2cb4)" d="M 200.933226 252 
L 203.510071 252 
L 203.510071 247.858286 
L 200.933226 247.858286 
z
" style="fill:#4c72b0;opacity:0.4;stroke:#ffffff;stroke-linejoin:miter;"/>
   </g>
   <g id="patch_55">
    <path clip-path="url(#pa8a22c2cb4)" d="M 203.510071 252 
L 206.086916 252 
L 206.086916 252 
L 203.510071 252 
z
" style="fill:#4c72b0;opacity:0.4;stroke:#ffffff;stroke-linejoin:miter;"/>
   </g>
   <g id="patch_56">
    <path clip-path="url(#pa8a22c2cb4)" d="M 206.086916 252 
L 208.66376 252 
L 208.66376 252 
L 206.086916 252 
z
" style="fill:#4c72b0;opacity:0.4;stroke:#ffffff;stroke-linejoin:miter;"/>
   </g>
   <g id="patch_57">
    <path clip-path="url(#pa8a22c2cb4)" d="M 208.66376 252 
L 211.240605 252 
L 211.240605 243.716571 
L 208.66376 243.716571 
z
" style="fill:#4c72b0;opacity:0.4;stroke:#ffffff;stroke-linejoin:miter;"/>
   </g>
   <g id="patch_58">
    <path clip-path="url(#pa8a22c2cb4)" d="M 69.514149 252 
L 72.090994 252 
L 72.090994 252 
L 69.514149 252 
z
" style="fill:#dd8452;opacity:0.4;stroke:#ffffff;stroke-linejoin:miter;"/>
   </g>
   <g id="patch_59">
    <path clip-path="url(#pa8a22c2cb4)" d="M 72.090994 252 
L 74.667838 252 
L 74.667838 243.716571 
L 72.090994 243.716571 
z
" style="fill:#dd8452;opacity:0.4;stroke:#ffffff;stroke-linejoin:miter;"/>
   </g>
   <g id="patch_60">
    <path clip-path="url(#pa8a22c2cb4)" d="M 74.667838 252 
L 77.244683 252 
L 77.244683 231.291429 
L 74.667838 231.291429 
z
" style="fill:#dd8452;opacity:0.4;stroke:#ffffff;stroke-linejoin:miter;"/>
   </g>
   <g id="patch_61">
    <path clip-path="url(#pa8a22c2cb4)" d="M 77.244683 252 
L 79.821528 252 
L 79.821528 152.598857 
L 77.244683 152.598857 
z
" style="fill:#dd8452;opacity:0.4;stroke:#ffffff;stroke-linejoin:miter;"/>
   </g>
   <g id="patch_62">
    <path clip-path="url(#pa8a22c2cb4)" d="M 79.821528 252 
L 82.398372 252 
L 82.398372 173.307429 
L 79.821528 173.307429 
z
" style="fill:#dd8452;opacity:0.4;stroke:#ffffff;stroke-linejoin:miter;"/>
   </g>
   <g id="patch_63">
    <path clip-path="url(#pa8a22c2cb4)" d="M 82.398372 252 
L 84.975217 252 
L 84.975217 169.165714 
L 82.398372 169.165714 
z
" style="fill:#dd8452;opacity:0.4;stroke:#ffffff;stroke-linejoin:miter;"/>
   </g>
   <g id="patch_64">
    <path clip-path="url(#pa8a22c2cb4)" d="M 84.975217 252 
L 87.552062 252 
L 87.552062 194.016 
L 84.975217 194.016 
z
" style="fill:#dd8452;opacity:0.4;stroke:#ffffff;stroke-linejoin:miter;"/>
   </g>
   <g id="patch_65">
    <path clip-path="url(#pa8a22c2cb4)" d="M 87.552062 252 
L 90.128906 252 
L 90.128906 206.441143 
L 87.552062 206.441143 
z
" style="fill:#dd8452;opacity:0.4;stroke:#ffffff;stroke-linejoin:miter;"/>
   </g>
   <g id="patch_66">
    <path clip-path="url(#pa8a22c2cb4)" d="M 90.128906 252 
L 92.705751 252 
L 92.705751 165.024 
L 90.128906 165.024 
z
" style="fill:#dd8452;opacity:0.4;stroke:#ffffff;stroke-linejoin:miter;"/>
   </g>
   <g id="patch_67">
    <path clip-path="url(#pa8a22c2cb4)" d="M 92.705751 252 
L 95.282596 252 
L 95.282596 189.874286 
L 92.705751 189.874286 
z
" style="fill:#dd8452;opacity:0.4;stroke:#ffffff;stroke-linejoin:miter;"/>
   </g>
   <g id="patch_68">
    <path clip-path="url(#pa8a22c2cb4)" d="M 95.282596 252 
L 97.85944 252 
L 97.85944 194.016 
L 95.282596 194.016 
z
" style="fill:#dd8452;opacity:0.4;stroke:#ffffff;stroke-linejoin:miter;"/>
   </g>
   <g id="patch_69">
    <path clip-path="url(#pa8a22c2cb4)" d="M 97.85944 252 
L 100.436285 252 
L 100.436285 194.016 
L 97.85944 194.016 
z
" style="fill:#dd8452;opacity:0.4;stroke:#ffffff;stroke-linejoin:miter;"/>
   </g>
   <g id="patch_70">
    <path clip-path="url(#pa8a22c2cb4)" d="M 100.436285 252 
L 103.013129 252 
L 103.013129 210.582857 
L 100.436285 210.582857 
z
" style="fill:#dd8452;opacity:0.4;stroke:#ffffff;stroke-linejoin:miter;"/>
   </g>
   <g id="patch_71">
    <path clip-path="url(#pa8a22c2cb4)" d="M 103.013129 252 
L 105.589974 252 
L 105.589974 202.299429 
L 103.013129 202.299429 
z
" style="fill:#dd8452;opacity:0.4;stroke:#ffffff;stroke-linejoin:miter;"/>
   </g>
   <g id="patch_72">
    <path clip-path="url(#pa8a22c2cb4)" d="M 105.589974 252 
L 108.166819 252 
L 108.166819 198.157714 
L 105.589974 198.157714 
z
" style="fill:#dd8452;opacity:0.4;stroke:#ffffff;stroke-linejoin:miter;"/>
   </g>
   <g id="patch_73">
    <path clip-path="url(#pa8a22c2cb4)" d="M 108.166819 252 
L 110.743663 252 
L 110.743663 227.149714 
L 108.166819 227.149714 
z
" style="fill:#dd8452;opacity:0.4;stroke:#ffffff;stroke-linejoin:miter;"/>
   </g>
   <g id="patch_74">
    <path clip-path="url(#pa8a22c2cb4)" d="M 110.743663 252 
L 113.320508 252 
L 113.320508 218.866286 
L 110.743663 218.866286 
z
" style="fill:#dd8452;opacity:0.4;stroke:#ffffff;stroke-linejoin:miter;"/>
   </g>
   <g id="patch_75">
    <path clip-path="url(#pa8a22c2cb4)" d="M 113.320508 252 
L 115.897353 252 
L 115.897353 223.008 
L 113.320508 223.008 
z
" style="fill:#dd8452;opacity:0.4;stroke:#ffffff;stroke-linejoin:miter;"/>
   </g>
   <g id="patch_76">
    <path clip-path="url(#pa8a22c2cb4)" d="M 115.897353 252 
L 118.474197 252 
L 118.474197 218.866286 
L 115.897353 218.866286 
z
" style="fill:#dd8452;opacity:0.4;stroke:#ffffff;stroke-linejoin:miter;"/>
   </g>
   <g id="patch_77">
    <path clip-path="url(#pa8a22c2cb4)" d="M 118.474197 252 
L 121.051042 252 
L 121.051042 210.582857 
L 118.474197 210.582857 
z
" style="fill:#dd8452;opacity:0.4;stroke:#ffffff;stroke-linejoin:miter;"/>
   </g>
   <g id="patch_78">
    <path clip-path="url(#pa8a22c2cb4)" d="M 121.051042 252 
L 123.627887 252 
L 123.627887 214.724571 
L 121.051042 214.724571 
z
" style="fill:#dd8452;opacity:0.4;stroke:#ffffff;stroke-linejoin:miter;"/>
   </g>
   <g id="patch_79">
    <path clip-path="url(#pa8a22c2cb4)" d="M 123.627887 252 
L 126.204731 252 
L 126.204731 231.291429 
L 123.627887 231.291429 
z
" style="fill:#dd8452;opacity:0.4;stroke:#ffffff;stroke-linejoin:miter;"/>
   </g>
   <g id="patch_80">
    <path clip-path="url(#pa8a22c2cb4)" d="M 126.204731 252 
L 128.781576 252 
L 128.781576 210.582857 
L 126.204731 210.582857 
z
" style="fill:#dd8452;opacity:0.4;stroke:#ffffff;stroke-linejoin:miter;"/>
   </g>
   <g id="patch_81">
    <path clip-path="url(#pa8a22c2cb4)" d="M 128.781576 252 
L 131.358421 252 
L 131.358421 239.574857 
L 128.781576 239.574857 
z
" style="fill:#dd8452;opacity:0.4;stroke:#ffffff;stroke-linejoin:miter;"/>
   </g>
   <g id="patch_82">
    <path clip-path="url(#pa8a22c2cb4)" d="M 131.358421 252 
L 133.935265 252 
L 133.935265 235.433143 
L 131.358421 235.433143 
z
" style="fill:#dd8452;opacity:0.4;stroke:#ffffff;stroke-linejoin:miter;"/>
   </g>
   <g id="patch_83">
    <path clip-path="url(#pa8a22c2cb4)" d="M 133.935265 252 
L 136.51211 252 
L 136.51211 235.433143 
L 133.935265 235.433143 
z
" style="fill:#dd8452;opacity:0.4;stroke:#ffffff;stroke-linejoin:miter;"/>
   </g>
   <g id="patch_84">
    <path clip-path="url(#pa8a22c2cb4)" d="M 136.51211 252 
L 139.088955 252 
L 139.088955 227.149714 
L 136.51211 227.149714 
z
" style="fill:#dd8452;opacity:0.4;stroke:#ffffff;stroke-linejoin:miter;"/>
   </g>
   <g id="patch_85">
    <path clip-path="url(#pa8a22c2cb4)" d="M 139.088955 252 
L 141.665799 252 
L 141.665799 218.866286 
L 139.088955 218.866286 
z
" style="fill:#dd8452;opacity:0.4;stroke:#ffffff;stroke-linejoin:miter;"/>
   </g>
   <g id="patch_86">
    <path clip-path="url(#pa8a22c2cb4)" d="M 141.665799 252 
L 144.242644 252 
L 144.242644 231.291429 
L 141.665799 231.291429 
z
" style="fill:#dd8452;opacity:0.4;stroke:#ffffff;stroke-linejoin:miter;"/>
   </g>
   <g id="patch_87">
    <path clip-path="url(#pa8a22c2cb4)" d="M 144.242644 252 
L 146.819489 252 
L 146.819489 206.441143 
L 144.242644 206.441143 
z
" style="fill:#dd8452;opacity:0.4;stroke:#ffffff;stroke-linejoin:miter;"/>
   </g>
   <g id="patch_88">
    <path clip-path="url(#pa8a22c2cb4)" d="M 146.819489 252 
L 149.396333 252 
L 149.396333 223.008 
L 146.819489 223.008 
z
" style="fill:#dd8452;opacity:0.4;stroke:#ffffff;stroke-linejoin:miter;"/>
   </g>
   <g id="patch_89">
    <path clip-path="url(#pa8a22c2cb4)" d="M 149.396333 252 
L 151.973178 252 
L 151.973178 239.574857 
L 149.396333 239.574857 
z
" style="fill:#dd8452;opacity:0.4;stroke:#ffffff;stroke-linejoin:miter;"/>
   </g>
   <g id="patch_90">
    <path clip-path="url(#pa8a22c2cb4)" d="M 151.973178 252 
L 154.550023 252 
L 154.550023 239.574857 
L 151.973178 239.574857 
z
" style="fill:#dd8452;opacity:0.4;stroke:#ffffff;stroke-linejoin:miter;"/>
   </g>
   <g id="patch_91">
    <path clip-path="url(#pa8a22c2cb4)" d="M 154.550023 252 
L 157.126867 252 
L 157.126867 235.433143 
L 154.550023 235.433143 
z
" style="fill:#dd8452;opacity:0.4;stroke:#ffffff;stroke-linejoin:miter;"/>
   </g>
   <g id="patch_92">
    <path clip-path="url(#pa8a22c2cb4)" d="M 157.126867 252 
L 159.703712 252 
L 159.703712 243.716571 
L 157.126867 243.716571 
z
" style="fill:#dd8452;opacity:0.4;stroke:#ffffff;stroke-linejoin:miter;"/>
   </g>
   <g id="patch_93">
    <path clip-path="url(#pa8a22c2cb4)" d="M 159.703712 252 
L 162.280557 252 
L 162.280557 239.574857 
L 159.703712 239.574857 
z
" style="fill:#dd8452;opacity:0.4;stroke:#ffffff;stroke-linejoin:miter;"/>
   </g>
   <g id="patch_94">
    <path clip-path="url(#pa8a22c2cb4)" d="M 162.280557 252 
L 164.857401 252 
L 164.857401 243.716571 
L 162.280557 243.716571 
z
" style="fill:#dd8452;opacity:0.4;stroke:#ffffff;stroke-linejoin:miter;"/>
   </g>
   <g id="patch_95">
    <path clip-path="url(#pa8a22c2cb4)" d="M 164.857401 252 
L 167.434246 252 
L 167.434246 252 
L 164.857401 252 
z
" style="fill:#dd8452;opacity:0.4;stroke:#ffffff;stroke-linejoin:miter;"/>
   </g>
   <g id="patch_96">
    <path clip-path="url(#pa8a22c2cb4)" d="M 167.434246 252 
L 170.011091 252 
L 170.011091 247.858286 
L 167.434246 247.858286 
z
" style="fill:#dd8452;opacity:0.4;stroke:#ffffff;stroke-linejoin:miter;"/>
   </g>
   <g id="patch_97">
    <path clip-path="url(#pa8a22c2cb4)" d="M 170.011091 252 
L 172.587935 252 
L 172.587935 239.574857 
L 170.011091 239.574857 
z
" style="fill:#dd8452;opacity:0.4;stroke:#ffffff;stroke-linejoin:miter;"/>
   </g>
   <g id="patch_98">
    <path clip-path="url(#pa8a22c2cb4)" d="M 172.587935 252 
L 175.16478 252 
L 175.16478 231.291429 
L 172.587935 231.291429 
z
" style="fill:#dd8452;opacity:0.4;stroke:#ffffff;stroke-linejoin:miter;"/>
   </g>
   <g id="patch_99">
    <path clip-path="url(#pa8a22c2cb4)" d="M 175.16478 252 
L 177.741624 252 
L 177.741624 252 
L 175.16478 252 
z
" style="fill:#dd8452;opacity:0.4;stroke:#ffffff;stroke-linejoin:miter;"/>
   </g>
   <g id="patch_100">
    <path clip-path="url(#pa8a22c2cb4)" d="M 177.741624 252 
L 180.318469 252 
L 180.318469 243.716571 
L 177.741624 243.716571 
z
" style="fill:#dd8452;opacity:0.4;stroke:#ffffff;stroke-linejoin:miter;"/>
   </g>
   <g id="patch_101">
    <path clip-path="url(#pa8a22c2cb4)" d="M 180.318469 252 
L 182.895314 252 
L 182.895314 243.716571 
L 180.318469 243.716571 
z
" style="fill:#dd8452;opacity:0.4;stroke:#ffffff;stroke-linejoin:miter;"/>
   </g>
   <g id="patch_102">
    <path clip-path="url(#pa8a22c2cb4)" d="M 182.895314 252 
L 185.472158 252 
L 185.472158 247.858286 
L 182.895314 247.858286 
z
" style="fill:#dd8452;opacity:0.4;stroke:#ffffff;stroke-linejoin:miter;"/>
   </g>
   <g id="patch_103">
    <path clip-path="url(#pa8a22c2cb4)" d="M 185.472158 252 
L 188.049003 252 
L 188.049003 247.858286 
L 185.472158 247.858286 
z
" style="fill:#dd8452;opacity:0.4;stroke:#ffffff;stroke-linejoin:miter;"/>
   </g>
   <g id="patch_104">
    <path clip-path="url(#pa8a22c2cb4)" d="M 188.049003 252 
L 190.625848 252 
L 190.625848 247.858286 
L 188.049003 247.858286 
z
" style="fill:#dd8452;opacity:0.4;stroke:#ffffff;stroke-linejoin:miter;"/>
   </g>
   <g id="patch_105">
    <path clip-path="url(#pa8a22c2cb4)" d="M 190.625848 252 
L 193.202692 252 
L 193.202692 252 
L 190.625848 252 
z
" style="fill:#dd8452;opacity:0.4;stroke:#ffffff;stroke-linejoin:miter;"/>
   </g>
   <g id="patch_106">
    <path clip-path="url(#pa8a22c2cb4)" d="M 193.202692 252 
L 195.779537 252 
L 195.779537 247.858286 
L 193.202692 247.858286 
z
" style="fill:#dd8452;opacity:0.4;stroke:#ffffff;stroke-linejoin:miter;"/>
   </g>
   <g id="patch_107">
    <path clip-path="url(#pa8a22c2cb4)" d="M 195.779537 252 
L 198.356382 252 
L 198.356382 252 
L 195.779537 252 
z
" style="fill:#dd8452;opacity:0.4;stroke:#ffffff;stroke-linejoin:miter;"/>
   </g>
   <g id="patch_108">
    <path clip-path="url(#pa8a22c2cb4)" d="M 198.356382 252 
L 200.933226 252 
L 200.933226 247.858286 
L 198.356382 247.858286 
z
" style="fill:#dd8452;opacity:0.4;stroke:#ffffff;stroke-linejoin:miter;"/>
   </g>
   <g id="patch_109">
    <path clip-path="url(#pa8a22c2cb4)" d="M 200.933226 252 
L 203.510071 252 
L 203.510071 252 
L 200.933226 252 
z
" style="fill:#dd8452;opacity:0.4;stroke:#ffffff;stroke-linejoin:miter;"/>
   </g>
   <g id="patch_110">
    <path clip-path="url(#pa8a22c2cb4)" d="M 203.510071 252 
L 206.086916 252 
L 206.086916 247.858286 
L 203.510071 247.858286 
z
" style="fill:#dd8452;opacity:0.4;stroke:#ffffff;stroke-linejoin:miter;"/>
   </g>
   <g id="patch_111">
    <path clip-path="url(#pa8a22c2cb4)" d="M 206.086916 252 
L 208.66376 252 
L 208.66376 247.858286 
L 206.086916 247.858286 
z
" style="fill:#dd8452;opacity:0.4;stroke:#ffffff;stroke-linejoin:miter;"/>
   </g>
   <g id="patch_112">
    <path clip-path="url(#pa8a22c2cb4)" d="M 208.66376 252 
L 211.240605 252 
L 211.240605 239.574857 
L 208.66376 239.574857 
z
" style="fill:#dd8452;opacity:0.4;stroke:#ffffff;stroke-linejoin:miter;"/>
   </g>
   <g id="patch_113">
    <path clip-path="url(#pa8a22c2cb4)" d="M 211.240605 252 
L 213.81745 252 
L 213.81745 247.858286 
L 211.240605 247.858286 
z
" style="fill:#dd8452;opacity:0.4;stroke:#ffffff;stroke-linejoin:miter;"/>
   </g>
   <g id="patch_114">
    <path clip-path="url(#pa8a22c2cb4)" d="M 213.81745 252 
L 216.394294 252 
L 216.394294 247.858286 
L 213.81745 247.858286 
z
" style="fill:#dd8452;opacity:0.4;stroke:#ffffff;stroke-linejoin:miter;"/>
   </g>
   <g id="patch_115">
    <path clip-path="url(#pa8a22c2cb4)" d="M 216.394294 252 
L 218.971139 252 
L 218.971139 252 
L 216.394294 252 
z
" style="fill:#dd8452;opacity:0.4;stroke:#ffffff;stroke-linejoin:miter;"/>
   </g>
   <g id="patch_116">
    <path clip-path="url(#pa8a22c2cb4)" d="M 218.971139 252 
L 221.547984 252 
L 221.547984 252 
L 218.971139 252 
z
" style="fill:#dd8452;opacity:0.4;stroke:#ffffff;stroke-linejoin:miter;"/>
   </g>
   <g id="patch_117">
    <path clip-path="url(#pa8a22c2cb4)" d="M 221.547984 252 
L 224.124828 252 
L 224.124828 247.858286 
L 221.547984 247.858286 
z
" style="fill:#dd8452;opacity:0.4;stroke:#ffffff;stroke-linejoin:miter;"/>
   </g>
   <g id="patch_118">
    <path clip-path="url(#pa8a22c2cb4)" d="M 224.124828 252 
L 226.701673 252 
L 226.701673 252 
L 224.124828 252 
z
" style="fill:#dd8452;opacity:0.4;stroke:#ffffff;stroke-linejoin:miter;"/>
   </g>
   <g id="patch_119">
    <path clip-path="url(#pa8a22c2cb4)" d="M 226.701673 252 
L 229.278518 252 
L 229.278518 247.858286 
L 226.701673 247.858286 
z
" style="fill:#dd8452;opacity:0.4;stroke:#ffffff;stroke-linejoin:miter;"/>
   </g>
   <g id="patch_120">
    <path clip-path="url(#pa8a22c2cb4)" d="M 229.278518 252 
L 231.855362 252 
L 231.855362 247.858286 
L 229.278518 247.858286 
z
" style="fill:#dd8452;opacity:0.4;stroke:#ffffff;stroke-linejoin:miter;"/>
   </g>
   <g id="patch_121">
    <path clip-path="url(#pa8a22c2cb4)" d="M 231.855362 252 
L 234.432207 252 
L 234.432207 252 
L 231.855362 252 
z
" style="fill:#dd8452;opacity:0.4;stroke:#ffffff;stroke-linejoin:miter;"/>
   </g>
   <g id="patch_122">
    <path clip-path="url(#pa8a22c2cb4)" d="M 234.432207 252 
L 237.009052 252 
L 237.009052 252 
L 234.432207 252 
z
" style="fill:#dd8452;opacity:0.4;stroke:#ffffff;stroke-linejoin:miter;"/>
   </g>
   <g id="patch_123">
    <path clip-path="url(#pa8a22c2cb4)" d="M 237.009052 252 
L 239.585896 252 
L 239.585896 252 
L 237.009052 252 
z
" style="fill:#dd8452;opacity:0.4;stroke:#ffffff;stroke-linejoin:miter;"/>
   </g>
   <g id="patch_124">
    <path clip-path="url(#pa8a22c2cb4)" d="M 239.585896 252 
L 242.162741 252 
L 242.162741 243.716571 
L 239.585896 243.716571 
z
" style="fill:#dd8452;opacity:0.4;stroke:#ffffff;stroke-linejoin:miter;"/>
   </g>
   <g id="patch_125">
    <path clip-path="url(#pa8a22c2cb4)" d="M 242.162741 252 
L 244.739585 252 
L 244.739585 247.858286 
L 242.162741 247.858286 
z
" style="fill:#dd8452;opacity:0.4;stroke:#ffffff;stroke-linejoin:miter;"/>
   </g>
   <g id="patch_126">
    <path clip-path="url(#pa8a22c2cb4)" d="M 244.739585 252 
L 247.31643 252 
L 247.31643 252 
L 244.739585 252 
z
" style="fill:#dd8452;opacity:0.4;stroke:#ffffff;stroke-linejoin:miter;"/>
   </g>
   <g id="patch_127">
    <path clip-path="url(#pa8a22c2cb4)" d="M 247.31643 252 
L 249.893275 252 
L 249.893275 247.858286 
L 247.31643 247.858286 
z
" style="fill:#dd8452;opacity:0.4;stroke:#ffffff;stroke-linejoin:miter;"/>
   </g>
   <g id="patch_128">
    <path clip-path="url(#pa8a22c2cb4)" d="M 249.893275 252 
L 252.470119 252 
L 252.470119 252 
L 249.893275 252 
z
" style="fill:#dd8452;opacity:0.4;stroke:#ffffff;stroke-linejoin:miter;"/>
   </g>
   <g id="patch_129">
    <path clip-path="url(#pa8a22c2cb4)" d="M 252.470119 252 
L 255.046964 252 
L 255.046964 252 
L 252.470119 252 
z
" style="fill:#dd8452;opacity:0.4;stroke:#ffffff;stroke-linejoin:miter;"/>
   </g>
   <g id="patch_130">
    <path clip-path="url(#pa8a22c2cb4)" d="M 255.046964 252 
L 257.623809 252 
L 257.623809 247.858286 
L 255.046964 247.858286 
z
" style="fill:#dd8452;opacity:0.4;stroke:#ffffff;stroke-linejoin:miter;"/>
   </g>
   <g id="patch_131">
    <path clip-path="url(#pa8a22c2cb4)" d="M 257.623809 252 
L 260.200653 252 
L 260.200653 252 
L 257.623809 252 
z
" style="fill:#dd8452;opacity:0.4;stroke:#ffffff;stroke-linejoin:miter;"/>
   </g>
   <g id="patch_132">
    <path clip-path="url(#pa8a22c2cb4)" d="M 260.200653 252 
L 262.777498 252 
L 262.777498 247.858286 
L 260.200653 247.858286 
z
" style="fill:#dd8452;opacity:0.4;stroke:#ffffff;stroke-linejoin:miter;"/>
   </g>
   <g id="patch_133">
    <path clip-path="url(#pa8a22c2cb4)" d="M 262.777498 252 
L 265.354343 252 
L 265.354343 252 
L 262.777498 252 
z
" style="fill:#dd8452;opacity:0.4;stroke:#ffffff;stroke-linejoin:miter;"/>
   </g>
   <g id="patch_134">
    <path clip-path="url(#pa8a22c2cb4)" d="M 265.354343 252 
L 267.931187 252 
L 267.931187 252 
L 265.354343 252 
z
" style="fill:#dd8452;opacity:0.4;stroke:#ffffff;stroke-linejoin:miter;"/>
   </g>
   <g id="patch_135">
    <path clip-path="url(#pa8a22c2cb4)" d="M 267.931187 252 
L 270.508032 252 
L 270.508032 252 
L 267.931187 252 
z
" style="fill:#dd8452;opacity:0.4;stroke:#ffffff;stroke-linejoin:miter;"/>
   </g>
   <g id="patch_136">
    <path clip-path="url(#pa8a22c2cb4)" d="M 270.508032 252 
L 273.084877 252 
L 273.084877 252 
L 270.508032 252 
z
" style="fill:#dd8452;opacity:0.4;stroke:#ffffff;stroke-linejoin:miter;"/>
   </g>
   <g id="patch_137">
    <path clip-path="url(#pa8a22c2cb4)" d="M 273.084877 252 
L 275.661721 252 
L 275.661721 252 
L 273.084877 252 
z
" style="fill:#dd8452;opacity:0.4;stroke:#ffffff;stroke-linejoin:miter;"/>
   </g>
   <g id="patch_138">
    <path clip-path="url(#pa8a22c2cb4)" d="M 275.661721 252 
L 278.238566 252 
L 278.238566 252 
L 275.661721 252 
z
" style="fill:#dd8452;opacity:0.4;stroke:#ffffff;stroke-linejoin:miter;"/>
   </g>
   <g id="patch_139">
    <path clip-path="url(#pa8a22c2cb4)" d="M 278.238566 252 
L 280.815411 252 
L 280.815411 252 
L 278.238566 252 
z
" style="fill:#dd8452;opacity:0.4;stroke:#ffffff;stroke-linejoin:miter;"/>
   </g>
   <g id="patch_140">
    <path clip-path="url(#pa8a22c2cb4)" d="M 280.815411 252 
L 283.392255 252 
L 283.392255 252 
L 280.815411 252 
z
" style="fill:#dd8452;opacity:0.4;stroke:#ffffff;stroke-linejoin:miter;"/>
   </g>
   <g id="patch_141">
    <path clip-path="url(#pa8a22c2cb4)" d="M 283.392255 252 
L 285.9691 252 
L 285.9691 247.858286 
L 283.392255 247.858286 
z
" style="fill:#dd8452;opacity:0.4;stroke:#ffffff;stroke-linejoin:miter;"/>
   </g>
   <g id="patch_142">
    <path clip-path="url(#pa8a22c2cb4)" d="M 285.9691 252 
L 288.545945 252 
L 288.545945 252 
L 285.9691 252 
z
" style="fill:#dd8452;opacity:0.4;stroke:#ffffff;stroke-linejoin:miter;"/>
   </g>
   <g id="patch_143">
    <path clip-path="url(#pa8a22c2cb4)" d="M 288.545945 252 
L 291.122789 252 
L 291.122789 252 
L 288.545945 252 
z
" style="fill:#dd8452;opacity:0.4;stroke:#ffffff;stroke-linejoin:miter;"/>
   </g>
   <g id="patch_144">
    <path clip-path="url(#pa8a22c2cb4)" d="M 291.122789 252 
L 293.699634 252 
L 293.699634 252 
L 291.122789 252 
z
" style="fill:#dd8452;opacity:0.4;stroke:#ffffff;stroke-linejoin:miter;"/>
   </g>
   <g id="patch_145">
    <path clip-path="url(#pa8a22c2cb4)" d="M 293.699634 252 
L 296.276479 252 
L 296.276479 247.858286 
L 293.699634 247.858286 
z
" style="fill:#dd8452;opacity:0.4;stroke:#ffffff;stroke-linejoin:miter;"/>
   </g>
   <g id="patch_146">
    <path clip-path="url(#pa8a22c2cb4)" d="M 296.276479 252 
L 298.853323 252 
L 298.853323 252 
L 296.276479 252 
z
" style="fill:#dd8452;opacity:0.4;stroke:#ffffff;stroke-linejoin:miter;"/>
   </g>
   <g id="patch_147">
    <path clip-path="url(#pa8a22c2cb4)" d="M 298.853323 252 
L 301.430168 252 
L 301.430168 252 
L 298.853323 252 
z
" style="fill:#dd8452;opacity:0.4;stroke:#ffffff;stroke-linejoin:miter;"/>
   </g>
   <g id="patch_148">
    <path clip-path="url(#pa8a22c2cb4)" d="M 301.430168 252 
L 304.007013 252 
L 304.007013 252 
L 301.430168 252 
z
" style="fill:#dd8452;opacity:0.4;stroke:#ffffff;stroke-linejoin:miter;"/>
   </g>
   <g id="patch_149">
    <path clip-path="url(#pa8a22c2cb4)" d="M 304.007013 252 
L 306.583857 252 
L 306.583857 252 
L 304.007013 252 
z
" style="fill:#dd8452;opacity:0.4;stroke:#ffffff;stroke-linejoin:miter;"/>
   </g>
   <g id="patch_150">
    <path clip-path="url(#pa8a22c2cb4)" d="M 306.583857 252 
L 309.160702 252 
L 309.160702 243.716571 
L 306.583857 243.716571 
z
" style="fill:#dd8452;opacity:0.4;stroke:#ffffff;stroke-linejoin:miter;"/>
   </g>
   <g id="patch_151">
    <path clip-path="url(#pa8a22c2cb4)" d="M 309.160702 252 
L 311.737546 252 
L 311.737546 247.858286 
L 309.160702 247.858286 
z
" style="fill:#dd8452;opacity:0.4;stroke:#ffffff;stroke-linejoin:miter;"/>
   </g>
   <g id="patch_152">
    <path clip-path="url(#pa8a22c2cb4)" d="M 311.737546 252 
L 314.314391 252 
L 314.314391 247.858286 
L 311.737546 247.858286 
z
" style="fill:#dd8452;opacity:0.4;stroke:#ffffff;stroke-linejoin:miter;"/>
   </g>
   <g id="patch_153">
    <path clip-path="url(#pa8a22c2cb4)" d="M 314.314391 252 
L 316.891236 252 
L 316.891236 252 
L 314.314391 252 
z
" style="fill:#dd8452;opacity:0.4;stroke:#ffffff;stroke-linejoin:miter;"/>
   </g>
   <g id="patch_154">
    <path clip-path="url(#pa8a22c2cb4)" d="M 316.891236 252 
L 319.46808 252 
L 319.46808 252 
L 316.891236 252 
z
" style="fill:#dd8452;opacity:0.4;stroke:#ffffff;stroke-linejoin:miter;"/>
   </g>
   <g id="patch_155">
    <path clip-path="url(#pa8a22c2cb4)" d="M 319.46808 252 
L 322.044925 252 
L 322.044925 252 
L 319.46808 252 
z
" style="fill:#dd8452;opacity:0.4;stroke:#ffffff;stroke-linejoin:miter;"/>
   </g>
   <g id="patch_156">
    <path clip-path="url(#pa8a22c2cb4)" d="M 322.044925 252 
L 324.62177 252 
L 324.62177 252 
L 322.044925 252 
z
" style="fill:#dd8452;opacity:0.4;stroke:#ffffff;stroke-linejoin:miter;"/>
   </g>
   <g id="patch_157">
    <path clip-path="url(#pa8a22c2cb4)" d="M 324.62177 252 
L 327.198614 252 
L 327.198614 252 
L 324.62177 252 
z
" style="fill:#dd8452;opacity:0.4;stroke:#ffffff;stroke-linejoin:miter;"/>
   </g>
   <g id="patch_158">
    <path clip-path="url(#pa8a22c2cb4)" d="M 327.198614 252 
L 329.775459 252 
L 329.775459 252 
L 327.198614 252 
z
" style="fill:#dd8452;opacity:0.4;stroke:#ffffff;stroke-linejoin:miter;"/>
   </g>
   <g id="patch_159">
    <path clip-path="url(#pa8a22c2cb4)" d="M 329.775459 252 
L 332.352304 252 
L 332.352304 252 
L 329.775459 252 
z
" style="fill:#dd8452;opacity:0.4;stroke:#ffffff;stroke-linejoin:miter;"/>
   </g>
   <g id="patch_160">
    <path clip-path="url(#pa8a22c2cb4)" d="M 332.352304 252 
L 334.929148 252 
L 334.929148 252 
L 332.352304 252 
z
" style="fill:#dd8452;opacity:0.4;stroke:#ffffff;stroke-linejoin:miter;"/>
   </g>
   <g id="patch_161">
    <path clip-path="url(#pa8a22c2cb4)" d="M 334.929148 252 
L 337.505993 252 
L 337.505993 252 
L 334.929148 252 
z
" style="fill:#dd8452;opacity:0.4;stroke:#ffffff;stroke-linejoin:miter;"/>
   </g>
   <g id="patch_162">
    <path clip-path="url(#pa8a22c2cb4)" d="M 337.505993 252 
L 340.082838 252 
L 340.082838 252 
L 337.505993 252 
z
" style="fill:#dd8452;opacity:0.4;stroke:#ffffff;stroke-linejoin:miter;"/>
   </g>
   <g id="patch_163">
    <path clip-path="url(#pa8a22c2cb4)" d="M 340.082838 252 
L 342.659682 252 
L 342.659682 252 
L 340.082838 252 
z
" style="fill:#dd8452;opacity:0.4;stroke:#ffffff;stroke-linejoin:miter;"/>
   </g>
   <g id="patch_164">
    <path clip-path="url(#pa8a22c2cb4)" d="M 342.659682 252 
L 345.236527 252 
L 345.236527 252 
L 342.659682 252 
z
" style="fill:#dd8452;opacity:0.4;stroke:#ffffff;stroke-linejoin:miter;"/>
   </g>
   <g id="patch_165">
    <path clip-path="url(#pa8a22c2cb4)" d="M 345.236527 252 
L 347.813372 252 
L 347.813372 252 
L 345.236527 252 
z
" style="fill:#dd8452;opacity:0.4;stroke:#ffffff;stroke-linejoin:miter;"/>
   </g>
   <g id="patch_166">
    <path clip-path="url(#pa8a22c2cb4)" d="M 347.813372 252 
L 350.390216 252 
L 350.390216 252 
L 347.813372 252 
z
" style="fill:#dd8452;opacity:0.4;stroke:#ffffff;stroke-linejoin:miter;"/>
   </g>
   <g id="patch_167">
    <path clip-path="url(#pa8a22c2cb4)" d="M 350.390216 252 
L 352.967061 252 
L 352.967061 252 
L 350.390216 252 
z
" style="fill:#dd8452;opacity:0.4;stroke:#ffffff;stroke-linejoin:miter;"/>
   </g>
   <g id="patch_168">
    <path clip-path="url(#pa8a22c2cb4)" d="M 352.967061 252 
L 355.543906 252 
L 355.543906 252 
L 352.967061 252 
z
" style="fill:#dd8452;opacity:0.4;stroke:#ffffff;stroke-linejoin:miter;"/>
   </g>
   <g id="patch_169">
    <path clip-path="url(#pa8a22c2cb4)" d="M 355.543906 252 
L 358.12075 252 
L 358.12075 252 
L 355.543906 252 
z
" style="fill:#dd8452;opacity:0.4;stroke:#ffffff;stroke-linejoin:miter;"/>
   </g>
   <g id="patch_170">
    <path clip-path="url(#pa8a22c2cb4)" d="M 358.12075 252 
L 360.697595 252 
L 360.697595 252 
L 358.12075 252 
z
" style="fill:#dd8452;opacity:0.4;stroke:#ffffff;stroke-linejoin:miter;"/>
   </g>
   <g id="patch_171">
    <path clip-path="url(#pa8a22c2cb4)" d="M 360.697595 252 
L 363.27444 252 
L 363.27444 252 
L 360.697595 252 
z
" style="fill:#dd8452;opacity:0.4;stroke:#ffffff;stroke-linejoin:miter;"/>
   </g>
   <g id="patch_172">
    <path clip-path="url(#pa8a22c2cb4)" d="M 363.27444 252 
L 365.851284 252 
L 365.851284 252 
L 363.27444 252 
z
" style="fill:#dd8452;opacity:0.4;stroke:#ffffff;stroke-linejoin:miter;"/>
   </g>
   <g id="patch_173">
    <path clip-path="url(#pa8a22c2cb4)" d="M 365.851284 252 
L 368.428129 252 
L 368.428129 252 
L 365.851284 252 
z
" style="fill:#dd8452;opacity:0.4;stroke:#ffffff;stroke-linejoin:miter;"/>
   </g>
   <g id="patch_174">
    <path clip-path="url(#pa8a22c2cb4)" d="M 368.428129 252 
L 371.004974 252 
L 371.004974 252 
L 368.428129 252 
z
" style="fill:#dd8452;opacity:0.4;stroke:#ffffff;stroke-linejoin:miter;"/>
   </g>
   <g id="patch_175">
    <path clip-path="url(#pa8a22c2cb4)" d="M 371.004974 252 
L 373.581818 252 
L 373.581818 252 
L 371.004974 252 
z
" style="fill:#dd8452;opacity:0.4;stroke:#ffffff;stroke-linejoin:miter;"/>
   </g>
   <g id="patch_176">
    <path d="M 54 252 
L 54 34.56 
" style="fill:none;stroke:#ffffff;stroke-linecap:square;stroke-linejoin:miter;stroke-width:1.25;"/>
   </g>
   <g id="patch_177">
    <path d="M 388.8 252 
L 388.8 34.56 
" style="fill:none;stroke:#ffffff;stroke-linecap:square;stroke-linejoin:miter;stroke-width:1.25;"/>
   </g>
   <g id="patch_178">
    <path d="M 54 252 
L 388.8 252 
" style="fill:none;stroke:#ffffff;stroke-linecap:square;stroke-linejoin:miter;stroke-width:1.25;"/>
   </g>
   <g id="patch_179">
    <path d="M 54 34.56 
L 388.8 34.56 
" style="fill:none;stroke:#ffffff;stroke-linecap:square;stroke-linejoin:miter;stroke-width:1.25;"/>
   </g>
   <g id="text_15">
    <!-- Extinction Times Comparison Scenario A to Scenario E, 1 starting infection -->
    <defs>
     <path d="M 58.796875 25.09375 
L 68.265625 22.703125 
Q 65.28125 11.03125 57.546875 4.90625 
Q 49.8125 -1.21875 38.625 -1.21875 
Q 27.046875 -1.21875 19.796875 3.484375 
Q 12.546875 8.203125 8.765625 17.140625 
Q 4.984375 26.078125 4.984375 36.328125 
Q 4.984375 47.515625 9.25 55.828125 
Q 13.53125 64.15625 21.40625 68.46875 
Q 29.296875 72.796875 38.765625 72.796875 
Q 49.515625 72.796875 56.828125 67.328125 
Q 64.15625 61.859375 67.046875 51.953125 
L 57.71875 49.75 
Q 55.21875 57.5625 50.484375 61.125 
Q 45.75 64.703125 38.578125 64.703125 
Q 30.328125 64.703125 24.78125 60.734375 
Q 19.234375 56.78125 16.984375 50.109375 
Q 14.75 43.453125 14.75 36.375 
Q 14.75 27.25 17.40625 20.4375 
Q 20.0625 13.625 25.671875 10.25 
Q 31.296875 6.890625 37.84375 6.890625 
Q 45.796875 6.890625 51.3125 11.46875 
Q 56.84375 16.0625 58.796875 25.09375 
z
" id="ArialMT-67"/>
     <path d="M 6.59375 -19.875 
L 6.59375 51.859375 
L 14.59375 51.859375 
L 14.59375 45.125 
Q 17.4375 49.078125 21 51.046875 
Q 24.5625 53.03125 29.640625 53.03125 
Q 36.28125 53.03125 41.359375 49.609375 
Q 46.4375 46.1875 49.015625 39.953125 
Q 51.609375 33.734375 51.609375 26.3125 
Q 51.609375 18.359375 48.75 11.984375 
Q 45.90625 5.609375 40.453125 2.21875 
Q 35.015625 -1.171875 29 -1.171875 
Q 24.609375 -1.171875 21.109375 0.6875 
Q 17.625 2.546875 15.375 5.375 
L 15.375 -19.875 
z
M 14.546875 25.640625 
Q 14.546875 15.625 18.59375 10.84375 
Q 22.65625 6.0625 28.421875 6.0625 
Q 34.28125 6.0625 38.453125 11.015625 
Q 42.625 15.96875 42.625 26.375 
Q 42.625 36.28125 38.546875 41.203125 
Q 34.46875 46.140625 28.8125 46.140625 
Q 23.1875 46.140625 18.859375 40.890625 
Q 14.546875 35.640625 14.546875 25.640625 
z
" id="ArialMT-112"/>
     <path d="M 4.5 23 
L 13.421875 23.78125 
Q 14.0625 18.40625 16.375 14.96875 
Q 18.703125 11.53125 23.578125 9.40625 
Q 28.46875 7.28125 34.578125 7.28125 
Q 39.984375 7.28125 44.140625 8.890625 
Q 48.296875 10.5 50.3125 13.296875 
Q 52.34375 16.109375 52.34375 19.4375 
Q 52.34375 22.796875 50.390625 25.3125 
Q 48.4375 27.828125 43.953125 29.546875 
Q 41.0625 30.671875 31.203125 33.03125 
Q 21.34375 35.40625 17.390625 37.5 
Q 12.25 40.1875 9.734375 44.15625 
Q 7.234375 48.140625 7.234375 53.078125 
Q 7.234375 58.5 10.296875 63.203125 
Q 13.375 67.921875 19.28125 70.359375 
Q 25.203125 72.796875 32.421875 72.796875 
Q 40.375 72.796875 46.453125 70.234375 
Q 52.546875 67.671875 55.8125 62.6875 
Q 59.078125 57.71875 59.328125 51.421875 
L 50.25 50.734375 
Q 49.515625 57.515625 45.28125 60.984375 
Q 41.0625 64.453125 32.8125 64.453125 
Q 24.21875 64.453125 20.28125 61.296875 
Q 16.359375 58.15625 16.359375 53.71875 
Q 16.359375 49.859375 19.140625 47.359375 
Q 21.875 44.875 33.421875 42.265625 
Q 44.96875 39.65625 49.265625 37.703125 
Q 55.515625 34.8125 58.484375 30.390625 
Q 61.46875 25.984375 61.46875 20.21875 
Q 61.46875 14.5 58.203125 9.4375 
Q 54.9375 4.390625 48.796875 1.578125 
Q 42.671875 -1.21875 35.015625 -1.21875 
Q 25.296875 -1.21875 18.71875 1.609375 
Q 12.15625 4.4375 8.421875 10.125 
Q 4.6875 15.828125 4.5 23 
z
" id="ArialMT-83"/>
     <path d="M -0.140625 0 
L 27.34375 71.578125 
L 37.546875 71.578125 
L 66.84375 0 
L 56.0625 0 
L 47.703125 21.6875 
L 17.78125 21.6875 
L 9.90625 0 
z
M 20.515625 29.390625 
L 44.78125 29.390625 
L 37.3125 49.21875 
Q 33.890625 58.25 32.234375 64.0625 
Q 30.859375 57.171875 28.375 50.390625 
z
" id="ArialMT-65"/>
     <path d="M 8.890625 0 
L 8.890625 10.015625 
L 18.890625 10.015625 
L 18.890625 0 
Q 18.890625 -5.515625 16.9375 -8.90625 
Q 14.984375 -12.3125 10.75 -14.15625 
L 8.296875 -10.40625 
Q 11.078125 -9.1875 12.390625 -6.8125 
Q 13.71875 -4.4375 13.875 0 
z
" id="ArialMT-44"/>
     <path d="M 4.984375 -4.296875 
L 13.53125 -5.5625 
Q 14.0625 -9.515625 16.5 -11.328125 
Q 19.78125 -13.765625 25.4375 -13.765625 
Q 31.546875 -13.765625 34.859375 -11.328125 
Q 38.1875 -8.890625 39.359375 -4.5 
Q 40.046875 -1.8125 39.984375 6.78125 
Q 34.234375 0 25.640625 0 
Q 14.9375 0 9.078125 7.71875 
Q 3.21875 15.4375 3.21875 26.21875 
Q 3.21875 33.640625 5.90625 39.90625 
Q 8.59375 46.1875 13.6875 49.609375 
Q 18.796875 53.03125 25.6875 53.03125 
Q 34.859375 53.03125 40.828125 45.609375 
L 40.828125 51.859375 
L 48.921875 51.859375 
L 48.921875 7.03125 
Q 48.921875 -5.078125 46.453125 -10.125 
Q 44 -15.1875 38.640625 -18.109375 
Q 33.296875 -21.046875 25.484375 -21.046875 
Q 16.21875 -21.046875 10.5 -16.875 
Q 4.78125 -12.703125 4.984375 -4.296875 
z
M 12.25 26.859375 
Q 12.25 16.65625 16.296875 11.96875 
Q 20.359375 7.28125 26.46875 7.28125 
Q 32.515625 7.28125 36.609375 11.9375 
Q 40.71875 16.609375 40.71875 26.5625 
Q 40.71875 36.078125 36.5 40.90625 
Q 32.28125 45.75 26.3125 45.75 
Q 20.453125 45.75 16.34375 40.984375 
Q 12.25 36.234375 12.25 26.859375 
z
" id="ArialMT-103"/>
     <path d="M 8.6875 0 
L 8.6875 45.015625 
L 0.921875 45.015625 
L 0.921875 51.859375 
L 8.6875 51.859375 
L 8.6875 57.375 
Q 8.6875 62.59375 9.625 65.140625 
Q 10.890625 68.5625 14.078125 70.671875 
Q 17.28125 72.796875 23.046875 72.796875 
Q 26.765625 72.796875 31.25 71.921875 
L 29.9375 64.265625 
Q 27.203125 64.75 24.75 64.75 
Q 20.75 64.75 19.09375 63.03125 
Q 17.4375 61.328125 17.4375 56.640625 
L 17.4375 51.859375 
L 27.546875 51.859375 
L 27.546875 45.015625 
L 17.4375 45.015625 
L 17.4375 0 
z
" id="ArialMT-102"/>
    </defs>
    <g style="fill:#262626;" transform="translate(22.665 28.56)scale(0.12 -0.12)">
     <use xlink:href="#ArialMT-69"/>
     <use x="66.699219" xlink:href="#ArialMT-120"/>
     <use x="116.699219" xlink:href="#ArialMT-116"/>
     <use x="144.482422" xlink:href="#ArialMT-105"/>
     <use x="166.699219" xlink:href="#ArialMT-110"/>
     <use x="222.314453" xlink:href="#ArialMT-99"/>
     <use x="272.314453" xlink:href="#ArialMT-116"/>
     <use x="300.097656" xlink:href="#ArialMT-105"/>
     <use x="322.314453" xlink:href="#ArialMT-111"/>
     <use x="377.929688" xlink:href="#ArialMT-110"/>
     <use x="433.544922" xlink:href="#ArialMT-32"/>
     <use x="461.3125" xlink:href="#ArialMT-84"/>
     <use x="522.349609" xlink:href="#ArialMT-105"/>
     <use x="544.566406" xlink:href="#ArialMT-109"/>
     <use x="627.867188" xlink:href="#ArialMT-101"/>
     <use x="683.482422" xlink:href="#ArialMT-115"/>
     <use x="733.482422" xlink:href="#ArialMT-32"/>
     <use x="761.265625" xlink:href="#ArialMT-67"/>
     <use x="833.482422" xlink:href="#ArialMT-111"/>
     <use x="889.097656" xlink:href="#ArialMT-109"/>
     <use x="972.398438" xlink:href="#ArialMT-112"/>
     <use x="1028.013672" xlink:href="#ArialMT-97"/>
     <use x="1083.628906" xlink:href="#ArialMT-114"/>
     <use x="1116.929688" xlink:href="#ArialMT-105"/>
     <use x="1139.146484" xlink:href="#ArialMT-115"/>
     <use x="1189.146484" xlink:href="#ArialMT-111"/>
     <use x="1244.761719" xlink:href="#ArialMT-110"/>
     <use x="1300.376953" xlink:href="#ArialMT-32"/>
     <use x="1328.160156" xlink:href="#ArialMT-83"/>
     <use x="1394.859375" xlink:href="#ArialMT-99"/>
     <use x="1444.859375" xlink:href="#ArialMT-101"/>
     <use x="1500.474609" xlink:href="#ArialMT-110"/>
     <use x="1556.089844" xlink:href="#ArialMT-97"/>
     <use x="1611.705078" xlink:href="#ArialMT-114"/>
     <use x="1645.005859" xlink:href="#ArialMT-105"/>
     <use x="1667.222656" xlink:href="#ArialMT-111"/>
     <use x="1722.837891" xlink:href="#ArialMT-32"/>
     <use x="1750.542969" xlink:href="#ArialMT-65"/>
     <use x="1817.164062" xlink:href="#ArialMT-32"/>
     <use x="1844.947266" xlink:href="#ArialMT-116"/>
     <use x="1872.730469" xlink:href="#ArialMT-111"/>
     <use x="1928.345703" xlink:href="#ArialMT-32"/>
     <use x="1956.128906" xlink:href="#ArialMT-83"/>
     <use x="2022.828125" xlink:href="#ArialMT-99"/>
     <use x="2072.828125" xlink:href="#ArialMT-101"/>
     <use x="2128.443359" xlink:href="#ArialMT-110"/>
     <use x="2184.058594" xlink:href="#ArialMT-97"/>
     <use x="2239.673828" xlink:href="#ArialMT-114"/>
     <use x="2272.974609" xlink:href="#ArialMT-105"/>
     <use x="2295.191406" xlink:href="#ArialMT-111"/>
     <use x="2350.806641" xlink:href="#ArialMT-32"/>
     <use x="2378.589844" xlink:href="#ArialMT-69"/>
     <use x="2445.289062" xlink:href="#ArialMT-44"/>
     <use x="2473.072266" xlink:href="#ArialMT-32"/>
     <use x="2500.855469" xlink:href="#ArialMT-49"/>
     <use x="2556.470703" xlink:href="#ArialMT-32"/>
     <use x="2584.253906" xlink:href="#ArialMT-115"/>
     <use x="2634.253906" xlink:href="#ArialMT-116"/>
     <use x="2662.037109" xlink:href="#ArialMT-97"/>
     <use x="2717.652344" xlink:href="#ArialMT-114"/>
     <use x="2750.953125" xlink:href="#ArialMT-116"/>
     <use x="2778.736328" xlink:href="#ArialMT-105"/>
     <use x="2800.953125" xlink:href="#ArialMT-110"/>
     <use x="2856.568359" xlink:href="#ArialMT-103"/>
     <use x="2912.183594" xlink:href="#ArialMT-32"/>
     <use x="2939.966797" xlink:href="#ArialMT-105"/>
     <use x="2962.183594" xlink:href="#ArialMT-110"/>
     <use x="3017.798828" xlink:href="#ArialMT-102"/>
     <use x="3045.582031" xlink:href="#ArialMT-101"/>
     <use x="3101.197266" xlink:href="#ArialMT-99"/>
     <use x="3151.197266" xlink:href="#ArialMT-116"/>
     <use x="3178.980469" xlink:href="#ArialMT-105"/>
     <use x="3201.197266" xlink:href="#ArialMT-111"/>
     <use x="3256.8125" xlink:href="#ArialMT-110"/>
    </g>
   </g>
   <g id="legend_1">
    <g id="patch_180">
     <path d="M 292.094531 74.479688 
L 381.1 74.479688 
Q 383.3 74.479688 383.3 72.279688 
L 383.3 42.26 
Q 383.3 40.06 381.1 40.06 
L 292.094531 40.06 
Q 289.894531 40.06 289.894531 42.26 
L 289.894531 72.279688 
Q 289.894531 74.479688 292.094531 74.479688 
z
" style="fill:#eaeaf2;opacity:0.8;stroke:#cccccc;stroke-linejoin:miter;"/>
    </g>
    <g id="patch_181">
     <path d="M 294.294531 52.333594 
L 316.294531 52.333594 
L 316.294531 44.633594 
L 294.294531 44.633594 
z
" style="fill:#4c72b0;opacity:0.4;stroke:#ffffff;stroke-linejoin:miter;"/>
    </g>
    <g id="text_16">
     <!-- Scenario A -->
     <g style="fill:#262626;" transform="translate(325.094531 52.333594)scale(0.11 -0.11)">
      <use xlink:href="#ArialMT-83"/>
      <use x="66.699219" xlink:href="#ArialMT-99"/>
      <use x="116.699219" xlink:href="#ArialMT-101"/>
      <use x="172.314453" xlink:href="#ArialMT-110"/>
      <use x="227.929688" xlink:href="#ArialMT-97"/>
      <use x="283.544922" xlink:href="#ArialMT-114"/>
      <use x="316.845703" xlink:href="#ArialMT-105"/>
      <use x="339.0625" xlink:href="#ArialMT-111"/>
      <use x="394.677734" xlink:href="#ArialMT-32"/>
      <use x="422.382812" xlink:href="#ArialMT-65"/>
     </g>
    </g>
    <g id="patch_182">
     <path d="M 294.294531 67.893438 
L 316.294531 67.893438 
L 316.294531 60.193438 
L 294.294531 60.193438 
z
" style="fill:#dd8452;opacity:0.4;stroke:#ffffff;stroke-linejoin:miter;"/>
    </g>
    <g id="text_17">
     <!-- Scenario E -->
     <g style="fill:#262626;" transform="translate(325.094531 67.893438)scale(0.11 -0.11)">
      <use xlink:href="#ArialMT-83"/>
      <use x="66.699219" xlink:href="#ArialMT-99"/>
      <use x="116.699219" xlink:href="#ArialMT-101"/>
      <use x="172.314453" xlink:href="#ArialMT-110"/>
      <use x="227.929688" xlink:href="#ArialMT-97"/>
      <use x="283.544922" xlink:href="#ArialMT-114"/>
      <use x="316.845703" xlink:href="#ArialMT-105"/>
      <use x="339.0625" xlink:href="#ArialMT-111"/>
      <use x="394.677734" xlink:href="#ArialMT-32"/>
      <use x="422.460938" xlink:href="#ArialMT-69"/>
     </g>
    </g>
   </g>
  </g>
 </g>
 <defs>
  <clipPath id="pa8a22c2cb4">
   <rect height="217.44" width="334.8" x="54" y="34.56"/>
  </clipPath>
 </defs>
</svg>
