<?xml version="1.0" encoding="utf-8" standalone="no"?>
<!DOCTYPE svg PUBLIC "-//W3C//DTD SVG 1.1//EN"
  "http://www.w3.org/Graphics/SVG/1.1/DTD/svg11.dtd">
<!-- Created with matplotlib (https://matplotlib.org/) -->
<svg height="288pt" version="1.1" viewBox="0 0 432 288" width="432pt" xmlns="http://www.w3.org/2000/svg" xmlns:xlink="http://www.w3.org/1999/xlink">
 <defs>
  <style type="text/css">
*{stroke-linecap:butt;stroke-linejoin:round;}
  </style>
 </defs>
 <g id="figure_1">
  <g id="patch_1">
   <path d="M 0 288 
L 432 288 
L 432 0 
L 0 0 
z
" style="fill:#ffffff;"/>
  </g>
  <g id="axes_1">
   <g id="patch_2">
    <path d="M 54 252 
L 388.8 252 
L 388.8 34.56 
L 54 34.56 
z
" style="fill:#eaeaf2;"/>
   </g>
   <g id="matplotlib.axis_1">
    <g id="xtick_1">
     <g id="line2d_1">
      <path clip-path="url(#pd1116025c7)" d="M 79.850811 252 
L 79.850811 34.56 
" style="fill:none;stroke:#ffffff;stroke-linecap:round;"/>
     </g>
     <g id="text_1">
      <!-- 0 -->
      <defs>
       <path d="M 4.15625 35.296875 
Q 4.15625 48 6.765625 55.734375 
Q 9.375 63.484375 14.515625 67.671875 
Q 19.671875 71.875 27.484375 71.875 
Q 33.25 71.875 37.59375 69.546875 
Q 41.9375 67.234375 44.765625 62.859375 
Q 47.609375 58.5 49.21875 52.21875 
Q 50.828125 45.953125 50.828125 35.296875 
Q 50.828125 22.703125 48.234375 14.96875 
Q 45.65625 7.234375 40.5 3 
Q 35.359375 -1.21875 27.484375 -1.21875 
Q 17.140625 -1.21875 11.234375 6.203125 
Q 4.15625 15.140625 4.15625 35.296875 
z
M 13.1875 35.296875 
Q 13.1875 17.671875 17.3125 11.828125 
Q 21.4375 6 27.484375 6 
Q 33.546875 6 37.671875 11.859375 
Q 41.796875 17.71875 41.796875 35.296875 
Q 41.796875 52.984375 37.671875 58.78125 
Q 33.546875 64.59375 27.390625 64.59375 
Q 21.34375 64.59375 17.71875 59.46875 
Q 13.1875 52.9375 13.1875 35.296875 
z
" id="ArialMT-48"/>
      </defs>
      <g style="fill:#262626;" transform="translate(76.792296 269.373594)scale(0.11 -0.11)">
       <use xlink:href="#ArialMT-48"/>
      </g>
     </g>
    </g>
    <g id="xtick_2">
     <g id="line2d_2">
      <path clip-path="url(#pd1116025c7)" d="M 118.631411 252 
L 118.631411 34.56 
" style="fill:none;stroke:#ffffff;stroke-linecap:round;"/>
     </g>
     <g id="text_2">
      <!-- 50 -->
      <defs>
       <path d="M 4.15625 18.75 
L 13.375 19.53125 
Q 14.40625 12.796875 18.140625 9.390625 
Q 21.875 6 27.15625 6 
Q 33.5 6 37.890625 10.78125 
Q 42.28125 15.578125 42.28125 23.484375 
Q 42.28125 31 38.0625 35.34375 
Q 33.84375 39.703125 27 39.703125 
Q 22.75 39.703125 19.328125 37.765625 
Q 15.921875 35.84375 13.96875 32.765625 
L 5.71875 33.84375 
L 12.640625 70.609375 
L 48.25 70.609375 
L 48.25 62.203125 
L 19.671875 62.203125 
L 15.828125 42.96875 
Q 22.265625 47.46875 29.34375 47.46875 
Q 38.71875 47.46875 45.15625 40.96875 
Q 51.609375 34.46875 51.609375 24.265625 
Q 51.609375 14.546875 45.953125 7.46875 
Q 39.0625 -1.21875 27.15625 -1.21875 
Q 17.390625 -1.21875 11.203125 4.25 
Q 5.03125 9.71875 4.15625 18.75 
z
" id="ArialMT-53"/>
      </defs>
      <g style="fill:#262626;" transform="translate(112.51438 269.373594)scale(0.11 -0.11)">
       <use xlink:href="#ArialMT-53"/>
       <use x="55.615234" xlink:href="#ArialMT-48"/>
      </g>
     </g>
    </g>
    <g id="xtick_3">
     <g id="line2d_3">
      <path clip-path="url(#pd1116025c7)" d="M 157.412011 252 
L 157.412011 34.56 
" style="fill:none;stroke:#ffffff;stroke-linecap:round;"/>
     </g>
     <g id="text_3">
      <!-- 100 -->
      <defs>
       <path d="M 37.25 0 
L 28.46875 0 
L 28.46875 56 
Q 25.296875 52.984375 20.140625 49.953125 
Q 14.984375 46.921875 10.890625 45.40625 
L 10.890625 53.90625 
Q 18.265625 57.375 23.78125 62.296875 
Q 29.296875 67.234375 31.59375 71.875 
L 37.25 71.875 
z
" id="ArialMT-49"/>
      </defs>
      <g style="fill:#262626;" transform="translate(148.236464 269.373594)scale(0.11 -0.11)">
       <use xlink:href="#ArialMT-49"/>
       <use x="55.615234" xlink:href="#ArialMT-48"/>
       <use x="111.230469" xlink:href="#ArialMT-48"/>
      </g>
     </g>
    </g>
    <g id="xtick_4">
     <g id="line2d_4">
      <path clip-path="url(#pd1116025c7)" d="M 196.19261 252 
L 196.19261 34.56 
" style="fill:none;stroke:#ffffff;stroke-linecap:round;"/>
     </g>
     <g id="text_4">
      <!-- 150 -->
      <g style="fill:#262626;" transform="translate(187.017063 269.373594)scale(0.11 -0.11)">
       <use xlink:href="#ArialMT-49"/>
       <use x="55.615234" xlink:href="#ArialMT-53"/>
       <use x="111.230469" xlink:href="#ArialMT-48"/>
      </g>
     </g>
    </g>
    <g id="xtick_5">
     <g id="line2d_5">
      <path clip-path="url(#pd1116025c7)" d="M 234.97321 252 
L 234.97321 34.56 
" style="fill:none;stroke:#ffffff;stroke-linecap:round;"/>
     </g>
     <g id="text_5">
      <!-- 200 -->
      <defs>
       <path d="M 50.34375 8.453125 
L 50.34375 0 
L 3.03125 0 
Q 2.9375 3.171875 4.046875 6.109375 
Q 5.859375 10.9375 9.828125 15.625 
Q 13.8125 20.3125 21.34375 26.46875 
Q 33.015625 36.03125 37.109375 41.625 
Q 41.21875 47.21875 41.21875 52.203125 
Q 41.21875 57.421875 37.46875 61 
Q 33.734375 64.59375 27.734375 64.59375 
Q 21.390625 64.59375 17.578125 60.78125 
Q 13.765625 56.984375 13.71875 50.25 
L 4.6875 51.171875 
Q 5.609375 61.28125 11.65625 66.578125 
Q 17.71875 71.875 27.9375 71.875 
Q 38.234375 71.875 44.234375 66.15625 
Q 50.25 60.453125 50.25 52 
Q 50.25 47.703125 48.484375 43.546875 
Q 46.734375 39.40625 42.65625 34.8125 
Q 38.578125 30.21875 29.109375 22.21875 
Q 21.1875 15.578125 18.9375 13.203125 
Q 16.703125 10.84375 15.234375 8.453125 
z
" id="ArialMT-50"/>
      </defs>
      <g style="fill:#262626;" transform="translate(225.797663 269.373594)scale(0.11 -0.11)">
       <use xlink:href="#ArialMT-50"/>
       <use x="55.615234" xlink:href="#ArialMT-48"/>
       <use x="111.230469" xlink:href="#ArialMT-48"/>
      </g>
     </g>
    </g>
    <g id="xtick_6">
     <g id="line2d_6">
      <path clip-path="url(#pd1116025c7)" d="M 273.753809 252 
L 273.753809 34.56 
" style="fill:none;stroke:#ffffff;stroke-linecap:round;"/>
     </g>
     <g id="text_6">
      <!-- 250 -->
      <g style="fill:#262626;" transform="translate(264.578263 269.373594)scale(0.11 -0.11)">
       <use xlink:href="#ArialMT-50"/>
       <use x="55.615234" xlink:href="#ArialMT-53"/>
       <use x="111.230469" xlink:href="#ArialMT-48"/>
      </g>
     </g>
    </g>
    <g id="xtick_7">
     <g id="line2d_7">
      <path clip-path="url(#pd1116025c7)" d="M 312.534409 252 
L 312.534409 34.56 
" style="fill:none;stroke:#ffffff;stroke-linecap:round;"/>
     </g>
     <g id="text_7">
      <!-- 300 -->
      <defs>
       <path d="M 4.203125 18.890625 
L 12.984375 20.0625 
Q 14.5 12.59375 18.140625 9.296875 
Q 21.78125 6 27 6 
Q 33.203125 6 37.46875 10.296875 
Q 41.75 14.59375 41.75 20.953125 
Q 41.75 27 37.796875 30.921875 
Q 33.84375 34.859375 27.734375 34.859375 
Q 25.25 34.859375 21.53125 33.890625 
L 22.515625 41.609375 
Q 23.390625 41.5 23.921875 41.5 
Q 29.546875 41.5 34.03125 44.421875 
Q 38.53125 47.359375 38.53125 53.46875 
Q 38.53125 58.296875 35.25 61.46875 
Q 31.984375 64.65625 26.8125 64.65625 
Q 21.6875 64.65625 18.265625 61.421875 
Q 14.84375 58.203125 13.875 51.765625 
L 5.078125 53.328125 
Q 6.6875 62.15625 12.390625 67.015625 
Q 18.109375 71.875 26.609375 71.875 
Q 32.46875 71.875 37.390625 69.359375 
Q 42.328125 66.84375 44.9375 62.5 
Q 47.5625 58.15625 47.5625 53.265625 
Q 47.5625 48.640625 45.0625 44.828125 
Q 42.578125 41.015625 37.703125 38.765625 
Q 44.046875 37.3125 47.5625 32.6875 
Q 51.078125 28.078125 51.078125 21.140625 
Q 51.078125 11.765625 44.234375 5.25 
Q 37.40625 -1.265625 26.953125 -1.265625 
Q 17.53125 -1.265625 11.296875 4.34375 
Q 5.078125 9.96875 4.203125 18.890625 
z
" id="ArialMT-51"/>
      </defs>
      <g style="fill:#262626;" transform="translate(303.358862 269.373594)scale(0.11 -0.11)">
       <use xlink:href="#ArialMT-51"/>
       <use x="55.615234" xlink:href="#ArialMT-48"/>
       <use x="111.230469" xlink:href="#ArialMT-48"/>
      </g>
     </g>
    </g>
    <g id="xtick_8">
     <g id="line2d_8">
      <path clip-path="url(#pd1116025c7)" d="M 351.315009 252 
L 351.315009 34.56 
" style="fill:none;stroke:#ffffff;stroke-linecap:round;"/>
     </g>
     <g id="text_8">
      <!-- 350 -->
      <g style="fill:#262626;" transform="translate(342.139462 269.373594)scale(0.11 -0.11)">
       <use xlink:href="#ArialMT-51"/>
       <use x="55.615234" xlink:href="#ArialMT-53"/>
       <use x="111.230469" xlink:href="#ArialMT-48"/>
      </g>
     </g>
    </g>
    <g id="text_9">
     <!-- Extinction Time -->
     <defs>
      <path d="M 7.90625 0 
L 7.90625 71.578125 
L 59.671875 71.578125 
L 59.671875 63.140625 
L 17.390625 63.140625 
L 17.390625 41.21875 
L 56.984375 41.21875 
L 56.984375 32.8125 
L 17.390625 32.8125 
L 17.390625 8.453125 
L 61.328125 8.453125 
L 61.328125 0 
z
" id="ArialMT-69"/>
      <path d="M 0.734375 0 
L 19.671875 26.953125 
L 2.15625 51.859375 
L 13.140625 51.859375 
L 21.09375 39.703125 
Q 23.34375 36.234375 24.703125 33.890625 
Q 26.859375 37.109375 28.65625 39.59375 
L 37.40625 51.859375 
L 47.90625 51.859375 
L 29.984375 27.4375 
L 49.265625 0 
L 38.484375 0 
L 27.828125 16.109375 
L 25 20.453125 
L 11.375 0 
z
" id="ArialMT-120"/>
      <path d="M 25.78125 7.859375 
L 27.046875 0.09375 
Q 23.34375 -0.6875 20.40625 -0.6875 
Q 15.625 -0.6875 12.984375 0.828125 
Q 10.359375 2.34375 9.28125 4.8125 
Q 8.203125 7.28125 8.203125 15.1875 
L 8.203125 45.015625 
L 1.765625 45.015625 
L 1.765625 51.859375 
L 8.203125 51.859375 
L 8.203125 64.703125 
L 16.9375 69.96875 
L 16.9375 51.859375 
L 25.78125 51.859375 
L 25.78125 45.015625 
L 16.9375 45.015625 
L 16.9375 14.703125 
Q 16.9375 10.9375 17.40625 9.859375 
Q 17.875 8.796875 18.921875 8.15625 
Q 19.96875 7.515625 21.921875 7.515625 
Q 23.390625 7.515625 25.78125 7.859375 
z
" id="ArialMT-116"/>
      <path d="M 6.640625 61.46875 
L 6.640625 71.578125 
L 15.4375 71.578125 
L 15.4375 61.46875 
z
M 6.640625 0 
L 6.640625 51.859375 
L 15.4375 51.859375 
L 15.4375 0 
z
" id="ArialMT-105"/>
      <path d="M 6.59375 0 
L 6.59375 51.859375 
L 14.5 51.859375 
L 14.5 44.484375 
Q 20.21875 53.03125 31 53.03125 
Q 35.6875 53.03125 39.625 51.34375 
Q 43.5625 49.65625 45.515625 46.921875 
Q 47.46875 44.1875 48.25 40.4375 
Q 48.734375 37.984375 48.734375 31.890625 
L 48.734375 0 
L 39.9375 0 
L 39.9375 31.546875 
Q 39.9375 36.921875 38.90625 39.578125 
Q 37.890625 42.234375 35.28125 43.8125 
Q 32.671875 45.40625 29.15625 45.40625 
Q 23.53125 45.40625 19.453125 41.84375 
Q 15.375 38.28125 15.375 28.328125 
L 15.375 0 
z
" id="ArialMT-110"/>
      <path d="M 40.4375 19 
L 49.078125 17.875 
Q 47.65625 8.9375 41.8125 3.875 
Q 35.984375 -1.171875 27.484375 -1.171875 
Q 16.84375 -1.171875 10.375 5.78125 
Q 3.90625 12.75 3.90625 25.734375 
Q 3.90625 34.125 6.6875 40.421875 
Q 9.46875 46.734375 15.15625 49.875 
Q 20.84375 53.03125 27.546875 53.03125 
Q 35.984375 53.03125 41.359375 48.75 
Q 46.734375 44.484375 48.25 36.625 
L 39.703125 35.296875 
Q 38.484375 40.53125 35.375 43.15625 
Q 32.28125 45.796875 27.875 45.796875 
Q 21.234375 45.796875 17.078125 41.03125 
Q 12.9375 36.28125 12.9375 25.984375 
Q 12.9375 15.53125 16.9375 10.796875 
Q 20.953125 6.0625 27.390625 6.0625 
Q 32.5625 6.0625 36.03125 9.234375 
Q 39.5 12.40625 40.4375 19 
z
" id="ArialMT-99"/>
      <path d="M 3.328125 25.921875 
Q 3.328125 40.328125 11.328125 47.265625 
Q 18.015625 53.03125 27.640625 53.03125 
Q 38.328125 53.03125 45.109375 46.015625 
Q 51.90625 39.015625 51.90625 26.65625 
Q 51.90625 16.65625 48.90625 10.90625 
Q 45.90625 5.171875 40.15625 2 
Q 34.421875 -1.171875 27.640625 -1.171875 
Q 16.75 -1.171875 10.03125 5.8125 
Q 3.328125 12.796875 3.328125 25.921875 
z
M 12.359375 25.921875 
Q 12.359375 15.96875 16.703125 11.015625 
Q 21.046875 6.0625 27.640625 6.0625 
Q 34.1875 6.0625 38.53125 11.03125 
Q 42.875 16.015625 42.875 26.21875 
Q 42.875 35.84375 38.5 40.796875 
Q 34.125 45.75 27.640625 45.75 
Q 21.046875 45.75 16.703125 40.8125 
Q 12.359375 35.890625 12.359375 25.921875 
z
" id="ArialMT-111"/>
      <path id="ArialMT-32"/>
      <path d="M 25.921875 0 
L 25.921875 63.140625 
L 2.34375 63.140625 
L 2.34375 71.578125 
L 59.078125 71.578125 
L 59.078125 63.140625 
L 35.40625 63.140625 
L 35.40625 0 
z
" id="ArialMT-84"/>
      <path d="M 6.59375 0 
L 6.59375 51.859375 
L 14.453125 51.859375 
L 14.453125 44.578125 
Q 16.890625 48.390625 20.9375 50.703125 
Q 25 53.03125 30.171875 53.03125 
Q 35.9375 53.03125 39.625 50.640625 
Q 43.3125 48.25 44.828125 43.953125 
Q 50.984375 53.03125 60.84375 53.03125 
Q 68.5625 53.03125 72.703125 48.75 
Q 76.859375 44.484375 76.859375 35.59375 
L 76.859375 0 
L 68.109375 0 
L 68.109375 32.671875 
Q 68.109375 37.9375 67.25 40.25 
Q 66.40625 42.578125 64.15625 43.984375 
Q 61.921875 45.40625 58.890625 45.40625 
Q 53.421875 45.40625 49.796875 41.765625 
Q 46.1875 38.140625 46.1875 30.125 
L 46.1875 0 
L 37.40625 0 
L 37.40625 33.6875 
Q 37.40625 39.546875 35.25 42.46875 
Q 33.109375 45.40625 28.21875 45.40625 
Q 24.515625 45.40625 21.359375 43.453125 
Q 18.21875 41.5 16.796875 37.734375 
Q 15.375 33.984375 15.375 26.90625 
L 15.375 0 
z
" id="ArialMT-109"/>
      <path d="M 42.09375 16.703125 
L 51.171875 15.578125 
Q 49.03125 7.625 43.21875 3.21875 
Q 37.40625 -1.171875 28.375 -1.171875 
Q 17 -1.171875 10.328125 5.828125 
Q 3.65625 12.84375 3.65625 25.484375 
Q 3.65625 38.578125 10.390625 45.796875 
Q 17.140625 53.03125 27.875 53.03125 
Q 38.28125 53.03125 44.875 45.953125 
Q 51.46875 38.875 51.46875 26.03125 
Q 51.46875 25.25 51.421875 23.6875 
L 12.75 23.6875 
Q 13.234375 15.140625 17.578125 10.59375 
Q 21.921875 6.0625 28.421875 6.0625 
Q 33.25 6.0625 36.671875 8.59375 
Q 40.09375 11.140625 42.09375 16.703125 
z
M 13.234375 30.90625 
L 42.1875 30.90625 
Q 41.609375 37.453125 38.875 40.71875 
Q 34.671875 45.796875 27.984375 45.796875 
Q 21.921875 45.796875 17.796875 41.75 
Q 13.671875 37.703125 13.234375 30.90625 
z
" id="ArialMT-101"/>
     </defs>
     <g style="fill:#262626;" transform="translate(180.392812 284.149219)scale(0.12 -0.12)">
      <use xlink:href="#ArialMT-69"/>
      <use x="66.699219" xlink:href="#ArialMT-120"/>
      <use x="116.699219" xlink:href="#ArialMT-116"/>
      <use x="144.482422" xlink:href="#ArialMT-105"/>
      <use x="166.699219" xlink:href="#ArialMT-110"/>
      <use x="222.314453" xlink:href="#ArialMT-99"/>
      <use x="272.314453" xlink:href="#ArialMT-116"/>
      <use x="300.097656" xlink:href="#ArialMT-105"/>
      <use x="322.314453" xlink:href="#ArialMT-111"/>
      <use x="377.929688" xlink:href="#ArialMT-110"/>
      <use x="433.544922" xlink:href="#ArialMT-32"/>
      <use x="461.3125" xlink:href="#ArialMT-84"/>
      <use x="522.349609" xlink:href="#ArialMT-105"/>
      <use x="544.566406" xlink:href="#ArialMT-109"/>
      <use x="627.867188" xlink:href="#ArialMT-101"/>
     </g>
    </g>
   </g>
   <g id="matplotlib.axis_2">
    <g id="ytick_1">
     <g id="line2d_9">
      <path clip-path="url(#pd1116025c7)" d="M 54 252 
L 388.8 252 
" style="fill:none;stroke:#ffffff;stroke-linecap:round;"/>
     </g>
     <g id="text_10">
      <!-- 0.00 -->
      <defs>
       <path d="M 9.078125 0 
L 9.078125 10.015625 
L 19.09375 10.015625 
L 19.09375 0 
z
" id="ArialMT-46"/>
      </defs>
      <g style="fill:#262626;" transform="translate(23.092969 255.936797)scale(0.11 -0.11)">
       <use xlink:href="#ArialMT-48"/>
       <use x="55.615234" xlink:href="#ArialMT-46"/>
       <use x="83.398438" xlink:href="#ArialMT-48"/>
       <use x="139.013672" xlink:href="#ArialMT-48"/>
      </g>
     </g>
    </g>
    <g id="ytick_2">
     <g id="line2d_10">
      <path clip-path="url(#pd1116025c7)" d="M 54 223.808132 
L 388.8 223.808132 
" style="fill:none;stroke:#ffffff;stroke-linecap:round;"/>
     </g>
     <g id="text_11">
      <!-- 0.01 -->
      <g style="fill:#262626;" transform="translate(23.092969 227.744929)scale(0.11 -0.11)">
       <use xlink:href="#ArialMT-48"/>
       <use x="55.615234" xlink:href="#ArialMT-46"/>
       <use x="83.398438" xlink:href="#ArialMT-48"/>
       <use x="139.013672" xlink:href="#ArialMT-49"/>
      </g>
     </g>
    </g>
    <g id="ytick_3">
     <g id="line2d_11">
      <path clip-path="url(#pd1116025c7)" d="M 54 195.616265 
L 388.8 195.616265 
" style="fill:none;stroke:#ffffff;stroke-linecap:round;"/>
     </g>
     <g id="text_12">
      <!-- 0.02 -->
      <g style="fill:#262626;" transform="translate(23.092969 199.553062)scale(0.11 -0.11)">
       <use xlink:href="#ArialMT-48"/>
       <use x="55.615234" xlink:href="#ArialMT-46"/>
       <use x="83.398438" xlink:href="#ArialMT-48"/>
       <use x="139.013672" xlink:href="#ArialMT-50"/>
      </g>
     </g>
    </g>
    <g id="ytick_4">
     <g id="line2d_12">
      <path clip-path="url(#pd1116025c7)" d="M 54 167.424397 
L 388.8 167.424397 
" style="fill:none;stroke:#ffffff;stroke-linecap:round;"/>
     </g>
     <g id="text_13">
      <!-- 0.03 -->
      <g style="fill:#262626;" transform="translate(23.092969 171.361194)scale(0.11 -0.11)">
       <use xlink:href="#ArialMT-48"/>
       <use x="55.615234" xlink:href="#ArialMT-46"/>
       <use x="83.398438" xlink:href="#ArialMT-48"/>
       <use x="139.013672" xlink:href="#ArialMT-51"/>
      </g>
     </g>
    </g>
    <g id="ytick_5">
     <g id="line2d_13">
      <path clip-path="url(#pd1116025c7)" d="M 54 139.232529 
L 388.8 139.232529 
" style="fill:none;stroke:#ffffff;stroke-linecap:round;"/>
     </g>
     <g id="text_14">
      <!-- 0.04 -->
      <defs>
       <path d="M 32.328125 0 
L 32.328125 17.140625 
L 1.265625 17.140625 
L 1.265625 25.203125 
L 33.9375 71.578125 
L 41.109375 71.578125 
L 41.109375 25.203125 
L 50.78125 25.203125 
L 50.78125 17.140625 
L 41.109375 17.140625 
L 41.109375 0 
z
M 32.328125 25.203125 
L 32.328125 57.46875 
L 9.90625 25.203125 
z
" id="ArialMT-52"/>
      </defs>
      <g style="fill:#262626;" transform="translate(23.092969 143.169326)scale(0.11 -0.11)">
       <use xlink:href="#ArialMT-48"/>
       <use x="55.615234" xlink:href="#ArialMT-46"/>
       <use x="83.398438" xlink:href="#ArialMT-48"/>
       <use x="139.013672" xlink:href="#ArialMT-52"/>
      </g>
     </g>
    </g>
    <g id="ytick_6">
     <g id="line2d_14">
      <path clip-path="url(#pd1116025c7)" d="M 54 111.040662 
L 388.8 111.040662 
" style="fill:none;stroke:#ffffff;stroke-linecap:round;"/>
     </g>
     <g id="text_15">
      <!-- 0.05 -->
      <g style="fill:#262626;" transform="translate(23.092969 114.977458)scale(0.11 -0.11)">
       <use xlink:href="#ArialMT-48"/>
       <use x="55.615234" xlink:href="#ArialMT-46"/>
       <use x="83.398438" xlink:href="#ArialMT-48"/>
       <use x="139.013672" xlink:href="#ArialMT-53"/>
      </g>
     </g>
    </g>
    <g id="ytick_7">
     <g id="line2d_15">
      <path clip-path="url(#pd1116025c7)" d="M 54 82.848794 
L 388.8 82.848794 
" style="fill:none;stroke:#ffffff;stroke-linecap:round;"/>
     </g>
     <g id="text_16">
      <!-- 0.06 -->
      <defs>
       <path d="M 49.75 54.046875 
L 41.015625 53.375 
Q 39.84375 58.546875 37.703125 60.890625 
Q 34.125 64.65625 28.90625 64.65625 
Q 24.703125 64.65625 21.53125 62.3125 
Q 17.390625 59.28125 14.984375 53.46875 
Q 12.59375 47.65625 12.5 36.921875 
Q 15.671875 41.75 20.265625 44.09375 
Q 24.859375 46.4375 29.890625 46.4375 
Q 38.671875 46.4375 44.84375 39.96875 
Q 51.03125 33.5 51.03125 23.25 
Q 51.03125 16.5 48.125 10.71875 
Q 45.21875 4.9375 40.140625 1.859375 
Q 35.0625 -1.21875 28.609375 -1.21875 
Q 17.625 -1.21875 10.6875 6.859375 
Q 3.765625 14.9375 3.765625 33.5 
Q 3.765625 54.25 11.421875 63.671875 
Q 18.109375 71.875 29.4375 71.875 
Q 37.890625 71.875 43.28125 67.140625 
Q 48.6875 62.40625 49.75 54.046875 
z
M 13.875 23.1875 
Q 13.875 18.65625 15.796875 14.5 
Q 17.71875 10.359375 21.1875 8.171875 
Q 24.65625 6 28.46875 6 
Q 34.03125 6 38.03125 10.484375 
Q 42.046875 14.984375 42.046875 22.703125 
Q 42.046875 30.125 38.078125 34.390625 
Q 34.125 38.671875 28.125 38.671875 
Q 22.171875 38.671875 18.015625 34.390625 
Q 13.875 30.125 13.875 23.1875 
z
" id="ArialMT-54"/>
      </defs>
      <g style="fill:#262626;" transform="translate(23.092969 86.785591)scale(0.11 -0.11)">
       <use xlink:href="#ArialMT-48"/>
       <use x="55.615234" xlink:href="#ArialMT-46"/>
       <use x="83.398438" xlink:href="#ArialMT-48"/>
       <use x="139.013672" xlink:href="#ArialMT-54"/>
      </g>
     </g>
    </g>
    <g id="ytick_8">
     <g id="line2d_16">
      <path clip-path="url(#pd1116025c7)" d="M 54 54.656926 
L 388.8 54.656926 
" style="fill:none;stroke:#ffffff;stroke-linecap:round;"/>
     </g>
     <g id="text_17">
      <!-- 0.07 -->
      <defs>
       <path d="M 4.734375 62.203125 
L 4.734375 70.65625 
L 51.078125 70.65625 
L 51.078125 63.8125 
Q 44.234375 56.546875 37.515625 44.484375 
Q 30.8125 32.421875 27.15625 19.671875 
Q 24.515625 10.6875 23.78125 0 
L 14.75 0 
Q 14.890625 8.453125 18.0625 20.40625 
Q 21.234375 32.375 27.171875 43.484375 
Q 33.109375 54.59375 39.796875 62.203125 
z
" id="ArialMT-55"/>
      </defs>
      <g style="fill:#262626;" transform="translate(23.092969 58.593723)scale(0.11 -0.11)">
       <use xlink:href="#ArialMT-48"/>
       <use x="55.615234" xlink:href="#ArialMT-46"/>
       <use x="83.398438" xlink:href="#ArialMT-48"/>
       <use x="139.013672" xlink:href="#ArialMT-55"/>
      </g>
     </g>
    </g>
   </g>
   <g id="patch_3">
    <path clip-path="url(#pd1116025c7)" d="M 79.075199 252 
L 84.768191 252 
L 84.768191 44.914286 
L 79.075199 44.914286 
z
" style="fill:#4c72b0;opacity:0.4;stroke:#ffffff;stroke-linejoin:miter;"/>
   </g>
   <g id="patch_4">
    <path clip-path="url(#pd1116025c7)" d="M 84.768191 252 
L 90.461183 252 
L 90.461183 252 
L 84.768191 252 
z
" style="fill:#4c72b0;opacity:0.4;stroke:#ffffff;stroke-linejoin:miter;"/>
   </g>
   <g id="patch_5">
    <path clip-path="url(#pd1116025c7)" d="M 90.461183 252 
L 96.154175 252 
L 96.154175 211.852722 
L 90.461183 211.852722 
z
" style="fill:#4c72b0;opacity:0.4;stroke:#ffffff;stroke-linejoin:miter;"/>
   </g>
   <g id="patch_6">
    <path clip-path="url(#pd1116025c7)" d="M 96.154175 252 
L 101.847167 252 
L 101.847167 204.819623 
L 96.154175 204.819623 
z
" style="fill:#4c72b0;opacity:0.4;stroke:#ffffff;stroke-linejoin:miter;"/>
   </g>
   <g id="patch_7">
    <path clip-path="url(#pd1116025c7)" d="M 101.847167 252 
L 107.54016 252 
L 107.54016 218.983504 
L 101.847167 218.983504 
z
" style="fill:#4c72b0;opacity:0.4;stroke:#ffffff;stroke-linejoin:miter;"/>
   </g>
   <g id="patch_8">
    <path clip-path="url(#pd1116025c7)" d="M 107.54016 252 
L 113.233152 252 
L 113.233152 228.458652 
L 107.54016 228.458652 
z
" style="fill:#4c72b0;opacity:0.4;stroke:#ffffff;stroke-linejoin:miter;"/>
   </g>
   <g id="patch_9">
    <path clip-path="url(#pd1116025c7)" d="M 113.233152 252 
L 118.926144 252 
L 118.926144 241.254987 
L 113.233152 241.254987 
z
" style="fill:#4c72b0;opacity:0.4;stroke:#ffffff;stroke-linejoin:miter;"/>
   </g>
   <g id="patch_10">
    <path clip-path="url(#pd1116025c7)" d="M 118.926144 252 
L 124.619136 252 
L 124.619136 243.208625 
L 118.926144 243.208625 
z
" style="fill:#4c72b0;opacity:0.4;stroke:#ffffff;stroke-linejoin:miter;"/>
   </g>
   <g id="patch_11">
    <path clip-path="url(#pd1116025c7)" d="M 124.619136 252 
L 130.312128 252 
L 130.312128 247.897358 
L 124.619136 247.897358 
z
" style="fill:#4c72b0;opacity:0.4;stroke:#ffffff;stroke-linejoin:miter;"/>
   </g>
   <g id="patch_12">
    <path clip-path="url(#pd1116025c7)" d="M 130.312128 252 
L 136.00512 252 
L 136.00512 249.753315 
L 130.312128 249.753315 
z
" style="fill:#4c72b0;opacity:0.4;stroke:#ffffff;stroke-linejoin:miter;"/>
   </g>
   <g id="patch_13">
    <path clip-path="url(#pd1116025c7)" d="M 136.00512 252 
L 141.698112 252 
L 141.698112 250.437089 
L 136.00512 250.437089 
z
" style="fill:#4c72b0;opacity:0.4;stroke:#ffffff;stroke-linejoin:miter;"/>
   </g>
   <g id="patch_14">
    <path clip-path="url(#pd1116025c7)" d="M 141.698112 252 
L 147.391104 252 
L 147.391104 250.730135 
L 141.698112 250.730135 
z
" style="fill:#4c72b0;opacity:0.4;stroke:#ffffff;stroke-linejoin:miter;"/>
   </g>
   <g id="patch_15">
    <path clip-path="url(#pd1116025c7)" d="M 147.391104 252 
L 153.084096 252 
L 153.084096 250.925499 
L 147.391104 250.925499 
z
" style="fill:#4c72b0;opacity:0.4;stroke:#ffffff;stroke-linejoin:miter;"/>
   </g>
   <g id="patch_16">
    <path clip-path="url(#pd1116025c7)" d="M 153.084096 252 
L 158.777088 252 
L 158.777088 251.413908 
L 153.084096 251.413908 
z
" style="fill:#4c72b0;opacity:0.4;stroke:#ffffff;stroke-linejoin:miter;"/>
   </g>
   <g id="patch_17">
    <path clip-path="url(#pd1116025c7)" d="M 158.777088 252 
L 164.47008 252 
L 164.47008 251.023181 
L 158.777088 251.023181 
z
" style="fill:#4c72b0;opacity:0.4;stroke:#ffffff;stroke-linejoin:miter;"/>
   </g>
   <g id="patch_18">
    <path clip-path="url(#pd1116025c7)" d="M 164.47008 252 
L 170.163072 252 
L 170.163072 251.609272 
L 164.47008 251.609272 
z
" style="fill:#4c72b0;opacity:0.4;stroke:#ffffff;stroke-linejoin:miter;"/>
   </g>
   <g id="patch_19">
    <path clip-path="url(#pd1116025c7)" d="M 170.163072 252 
L 175.856064 252 
L 175.856064 252 
L 170.163072 252 
z
" style="fill:#4c72b0;opacity:0.4;stroke:#ffffff;stroke-linejoin:miter;"/>
   </g>
   <g id="patch_20">
    <path clip-path="url(#pd1116025c7)" d="M 175.856064 252 
L 181.549056 252 
L 181.549056 251.902318 
L 175.856064 251.902318 
z
" style="fill:#4c72b0;opacity:0.4;stroke:#ffffff;stroke-linejoin:miter;"/>
   </g>
   <g id="patch_21">
    <path clip-path="url(#pd1116025c7)" d="M 181.549056 252 
L 187.242048 252 
L 187.242048 251.804636 
L 181.549056 251.804636 
z
" style="fill:#4c72b0;opacity:0.4;stroke:#ffffff;stroke-linejoin:miter;"/>
   </g>
   <g id="patch_22">
    <path clip-path="url(#pd1116025c7)" d="M 187.242048 252 
L 192.93504 252 
L 192.93504 251.902318 
L 187.242048 251.902318 
z
" style="fill:#4c72b0;opacity:0.4;stroke:#ffffff;stroke-linejoin:miter;"/>
   </g>
   <g id="patch_23">
    <path clip-path="url(#pd1116025c7)" d="M 192.93504 252 
L 198.628032 252 
L 198.628032 251.902318 
L 192.93504 251.902318 
z
" style="fill:#4c72b0;opacity:0.4;stroke:#ffffff;stroke-linejoin:miter;"/>
   </g>
   <g id="patch_24">
    <path clip-path="url(#pd1116025c7)" d="M 198.628032 252 
L 204.321024 252 
L 204.321024 251.706954 
L 198.628032 251.706954 
z
" style="fill:#4c72b0;opacity:0.4;stroke:#ffffff;stroke-linejoin:miter;"/>
   </g>
   <g id="patch_25">
    <path clip-path="url(#pd1116025c7)" d="M 204.321024 252 
L 210.014016 252 
L 210.014016 252 
L 204.321024 252 
z
" style="fill:#4c72b0;opacity:0.4;stroke:#ffffff;stroke-linejoin:miter;"/>
   </g>
   <g id="patch_26">
    <path clip-path="url(#pd1116025c7)" d="M 210.014016 252 
L 215.707008 252 
L 215.707008 251.804636 
L 210.014016 251.804636 
z
" style="fill:#4c72b0;opacity:0.4;stroke:#ffffff;stroke-linejoin:miter;"/>
   </g>
   <g id="patch_27">
    <path clip-path="url(#pd1116025c7)" d="M 215.707008 252 
L 221.4 252 
L 221.4 252 
L 215.707008 252 
z
" style="fill:#4c72b0;opacity:0.4;stroke:#ffffff;stroke-linejoin:miter;"/>
   </g>
   <g id="patch_28">
    <path clip-path="url(#pd1116025c7)" d="M 221.4 252 
L 227.092992 252 
L 227.092992 251.804636 
L 221.4 251.804636 
z
" style="fill:#4c72b0;opacity:0.4;stroke:#ffffff;stroke-linejoin:miter;"/>
   </g>
   <g id="patch_29">
    <path clip-path="url(#pd1116025c7)" d="M 227.092992 252 
L 232.785984 252 
L 232.785984 252 
L 227.092992 252 
z
" style="fill:#4c72b0;opacity:0.4;stroke:#ffffff;stroke-linejoin:miter;"/>
   </g>
   <g id="patch_30">
    <path clip-path="url(#pd1116025c7)" d="M 232.785984 252 
L 238.478976 252 
L 238.478976 252 
L 232.785984 252 
z
" style="fill:#4c72b0;opacity:0.4;stroke:#ffffff;stroke-linejoin:miter;"/>
   </g>
   <g id="patch_31">
    <path clip-path="url(#pd1116025c7)" d="M 238.478976 252 
L 244.171968 252 
L 244.171968 252 
L 238.478976 252 
z
" style="fill:#4c72b0;opacity:0.4;stroke:#ffffff;stroke-linejoin:miter;"/>
   </g>
   <g id="patch_32">
    <path clip-path="url(#pd1116025c7)" d="M 244.171968 252 
L 249.86496 252 
L 249.86496 252 
L 244.171968 252 
z
" style="fill:#4c72b0;opacity:0.4;stroke:#ffffff;stroke-linejoin:miter;"/>
   </g>
   <g id="patch_33">
    <path clip-path="url(#pd1116025c7)" d="M 249.86496 252 
L 255.557952 252 
L 255.557952 252 
L 249.86496 252 
z
" style="fill:#4c72b0;opacity:0.4;stroke:#ffffff;stroke-linejoin:miter;"/>
   </g>
   <g id="patch_34">
    <path clip-path="url(#pd1116025c7)" d="M 255.557952 252 
L 261.250944 252 
L 261.250944 252 
L 255.557952 252 
z
" style="fill:#4c72b0;opacity:0.4;stroke:#ffffff;stroke-linejoin:miter;"/>
   </g>
   <g id="patch_35">
    <path clip-path="url(#pd1116025c7)" d="M 261.250944 252 
L 266.943936 252 
L 266.943936 252 
L 261.250944 252 
z
" style="fill:#4c72b0;opacity:0.4;stroke:#ffffff;stroke-linejoin:miter;"/>
   </g>
   <g id="patch_36">
    <path clip-path="url(#pd1116025c7)" d="M 266.943936 252 
L 272.636928 252 
L 272.636928 252 
L 266.943936 252 
z
" style="fill:#4c72b0;opacity:0.4;stroke:#ffffff;stroke-linejoin:miter;"/>
   </g>
   <g id="patch_37">
    <path clip-path="url(#pd1116025c7)" d="M 272.636928 252 
L 278.32992 252 
L 278.32992 251.902318 
L 272.636928 251.902318 
z
" style="fill:#4c72b0;opacity:0.4;stroke:#ffffff;stroke-linejoin:miter;"/>
   </g>
   <g id="patch_38">
    <path clip-path="url(#pd1116025c7)" d="M 278.32992 252 
L 284.022912 252 
L 284.022912 252 
L 278.32992 252 
z
" style="fill:#4c72b0;opacity:0.4;stroke:#ffffff;stroke-linejoin:miter;"/>
   </g>
   <g id="patch_39">
    <path clip-path="url(#pd1116025c7)" d="M 284.022912 252 
L 289.715904 252 
L 289.715904 252 
L 284.022912 252 
z
" style="fill:#4c72b0;opacity:0.4;stroke:#ffffff;stroke-linejoin:miter;"/>
   </g>
   <g id="patch_40">
    <path clip-path="url(#pd1116025c7)" d="M 289.715904 252 
L 295.408896 252 
L 295.408896 252 
L 289.715904 252 
z
" style="fill:#4c72b0;opacity:0.4;stroke:#ffffff;stroke-linejoin:miter;"/>
   </g>
   <g id="patch_41">
    <path clip-path="url(#pd1116025c7)" d="M 295.408896 252 
L 301.101888 252 
L 301.101888 252 
L 295.408896 252 
z
" style="fill:#4c72b0;opacity:0.4;stroke:#ffffff;stroke-linejoin:miter;"/>
   </g>
   <g id="patch_42">
    <path clip-path="url(#pd1116025c7)" d="M 301.101888 252 
L 306.79488 252 
L 306.79488 252 
L 301.101888 252 
z
" style="fill:#4c72b0;opacity:0.4;stroke:#ffffff;stroke-linejoin:miter;"/>
   </g>
   <g id="patch_43">
    <path clip-path="url(#pd1116025c7)" d="M 306.79488 252 
L 312.487872 252 
L 312.487872 252 
L 306.79488 252 
z
" style="fill:#4c72b0;opacity:0.4;stroke:#ffffff;stroke-linejoin:miter;"/>
   </g>
   <g id="patch_44">
    <path clip-path="url(#pd1116025c7)" d="M 312.487872 252 
L 318.180864 252 
L 318.180864 252 
L 312.487872 252 
z
" style="fill:#4c72b0;opacity:0.4;stroke:#ffffff;stroke-linejoin:miter;"/>
   </g>
   <g id="patch_45">
    <path clip-path="url(#pd1116025c7)" d="M 318.180864 252 
L 323.873856 252 
L 323.873856 252 
L 318.180864 252 
z
" style="fill:#4c72b0;opacity:0.4;stroke:#ffffff;stroke-linejoin:miter;"/>
   </g>
   <g id="patch_46">
    <path clip-path="url(#pd1116025c7)" d="M 323.873856 252 
L 329.566848 252 
L 329.566848 252 
L 323.873856 252 
z
" style="fill:#4c72b0;opacity:0.4;stroke:#ffffff;stroke-linejoin:miter;"/>
   </g>
   <g id="patch_47">
    <path clip-path="url(#pd1116025c7)" d="M 329.566848 252 
L 335.25984 252 
L 335.25984 252 
L 329.566848 252 
z
" style="fill:#4c72b0;opacity:0.4;stroke:#ffffff;stroke-linejoin:miter;"/>
   </g>
   <g id="patch_48">
    <path clip-path="url(#pd1116025c7)" d="M 335.25984 252 
L 340.952833 252 
L 340.952833 252 
L 335.25984 252 
z
" style="fill:#4c72b0;opacity:0.4;stroke:#ffffff;stroke-linejoin:miter;"/>
   </g>
   <g id="patch_49">
    <path clip-path="url(#pd1116025c7)" d="M 340.952833 252 
L 346.645825 252 
L 346.645825 252 
L 340.952833 252 
z
" style="fill:#4c72b0;opacity:0.4;stroke:#ffffff;stroke-linejoin:miter;"/>
   </g>
   <g id="patch_50">
    <path clip-path="url(#pd1116025c7)" d="M 346.645825 252 
L 352.338817 252 
L 352.338817 252 
L 346.645825 252 
z
" style="fill:#4c72b0;opacity:0.4;stroke:#ffffff;stroke-linejoin:miter;"/>
   </g>
   <g id="patch_51">
    <path clip-path="url(#pd1116025c7)" d="M 352.338817 252 
L 358.031809 252 
L 358.031809 252 
L 352.338817 252 
z
" style="fill:#4c72b0;opacity:0.4;stroke:#ffffff;stroke-linejoin:miter;"/>
   </g>
   <g id="patch_52">
    <path clip-path="url(#pd1116025c7)" d="M 358.031809 252 
L 363.724801 252 
L 363.724801 251.902318 
L 358.031809 251.902318 
z
" style="fill:#4c72b0;opacity:0.4;stroke:#ffffff;stroke-linejoin:miter;"/>
   </g>
   <g id="line2d_17">
    <path clip-path="url(#pd1116025c7)" d="M 69.218182 250.601695 
L 71.614746 241.837576 
L 74.01131 209.179667 
L 76.407874 147.788192 
L 78.804438 106.967365 
L 81.201002 136.198689 
L 83.597566 197.699849 
L 85.99413 235.627188 
L 88.390694 244.249122 
L 90.787258 236.152353 
L 93.183822 220.093318 
L 95.580387 206.145739 
L 97.976951 202.255431 
L 100.373515 206.534904 
L 102.770079 212.775061 
L 105.166643 218.254195 
L 112.356335 233.728245 
L 114.752899 237.619933 
L 117.149463 240.139894 
L 121.942591 243.69449 
L 124.339155 245.612601 
L 126.735719 247.292854 
L 129.132283 248.468285 
L 131.528848 249.200672 
L 136.321976 250.04774 
L 141.115104 250.591314 
L 150.70136 251.055864 
L 153.097924 251.247499 
L 155.494488 251.317865 
L 162.68418 251.2022 
L 174.667001 251.915147 
L 184.253257 251.874988 
L 189.046385 251.830735 
L 196.236077 251.862955 
L 203.42577 251.827042 
L 208.218898 251.936002 
L 224.994846 251.870944 
L 236.977666 252 
L 371.185254 251.992994 
L 373.581818 251.881343 
L 373.581818 251.881343 
" style="fill:none;stroke:#4c72b0;stroke-linecap:round;stroke-width:1.5;"/>
   </g>
   <g id="patch_53">
    <path d="M 54 252 
L 54 34.56 
" style="fill:none;stroke:#ffffff;stroke-linecap:square;stroke-linejoin:miter;stroke-width:1.25;"/>
   </g>
   <g id="patch_54">
    <path d="M 388.8 252 
L 388.8 34.56 
" style="fill:none;stroke:#ffffff;stroke-linecap:square;stroke-linejoin:miter;stroke-width:1.25;"/>
   </g>
   <g id="patch_55">
    <path d="M 54 252 
L 388.8 252 
" style="fill:none;stroke:#ffffff;stroke-linecap:square;stroke-linejoin:miter;stroke-width:1.25;"/>
   </g>
   <g id="patch_56">
    <path d="M 54 34.56 
L 388.8 34.56 
" style="fill:none;stroke:#ffffff;stroke-linecap:square;stroke-linejoin:miter;stroke-width:1.25;"/>
   </g>
   <g id="text_18">
    <!-- Extinction Times, 1 starting infection, Scen E  -->
    <defs>
     <path d="M 3.078125 15.484375 
L 11.765625 16.84375 
Q 12.5 11.625 15.84375 8.84375 
Q 19.1875 6.0625 25.203125 6.0625 
Q 31.25 6.0625 34.171875 8.515625 
Q 37.109375 10.984375 37.109375 14.3125 
Q 37.109375 17.28125 34.515625 19 
Q 32.71875 20.171875 25.53125 21.96875 
Q 15.875 24.421875 12.140625 26.203125 
Q 8.40625 27.984375 6.46875 31.125 
Q 4.546875 34.28125 4.546875 38.09375 
Q 4.546875 41.546875 6.125 44.5 
Q 7.71875 47.46875 10.453125 49.421875 
Q 12.5 50.921875 16.03125 51.96875 
Q 19.578125 53.03125 23.640625 53.03125 
Q 29.734375 53.03125 34.34375 51.265625 
Q 38.96875 49.515625 41.15625 46.5 
Q 43.359375 43.5 44.1875 38.484375 
L 35.59375 37.3125 
Q 35.015625 41.3125 32.203125 43.546875 
Q 29.390625 45.796875 24.265625 45.796875 
Q 18.21875 45.796875 15.625 43.796875 
Q 13.03125 41.796875 13.03125 39.109375 
Q 13.03125 37.40625 14.109375 36.03125 
Q 15.1875 34.625 17.484375 33.6875 
Q 18.796875 33.203125 25.25 31.453125 
Q 34.578125 28.953125 38.25 27.359375 
Q 41.9375 25.78125 44.03125 22.75 
Q 46.140625 19.734375 46.140625 15.234375 
Q 46.140625 10.84375 43.578125 6.953125 
Q 41.015625 3.078125 36.171875 0.953125 
Q 31.34375 -1.171875 25.25 -1.171875 
Q 15.140625 -1.171875 9.84375 3.03125 
Q 4.546875 7.234375 3.078125 15.484375 
z
" id="ArialMT-115"/>
     <path d="M 8.890625 0 
L 8.890625 10.015625 
L 18.890625 10.015625 
L 18.890625 0 
Q 18.890625 -5.515625 16.9375 -8.90625 
Q 14.984375 -12.3125 10.75 -14.15625 
L 8.296875 -10.40625 
Q 11.078125 -9.1875 12.390625 -6.8125 
Q 13.71875 -4.4375 13.875 0 
z
" id="ArialMT-44"/>
     <path d="M 40.4375 6.390625 
Q 35.546875 2.25 31.03125 0.53125 
Q 26.515625 -1.171875 21.34375 -1.171875 
Q 12.796875 -1.171875 8.203125 3 
Q 3.609375 7.171875 3.609375 13.671875 
Q 3.609375 17.484375 5.34375 20.625 
Q 7.078125 23.78125 9.890625 25.6875 
Q 12.703125 27.59375 16.21875 28.5625 
Q 18.796875 29.25 24.03125 29.890625 
Q 34.671875 31.15625 39.703125 32.90625 
Q 39.75 34.71875 39.75 35.203125 
Q 39.75 40.578125 37.25 42.78125 
Q 33.890625 45.75 27.25 45.75 
Q 21.046875 45.75 18.09375 43.578125 
Q 15.140625 41.40625 13.71875 35.890625 
L 5.125 37.0625 
Q 6.296875 42.578125 8.984375 45.96875 
Q 11.671875 49.359375 16.75 51.1875 
Q 21.828125 53.03125 28.515625 53.03125 
Q 35.15625 53.03125 39.296875 51.46875 
Q 43.453125 49.90625 45.40625 47.53125 
Q 47.359375 45.171875 48.140625 41.546875 
Q 48.578125 39.3125 48.578125 33.453125 
L 48.578125 21.734375 
Q 48.578125 9.46875 49.140625 6.21875 
Q 49.703125 2.984375 51.375 0 
L 42.1875 0 
Q 40.828125 2.734375 40.4375 6.390625 
z
M 39.703125 26.03125 
Q 34.90625 24.078125 25.34375 22.703125 
Q 19.921875 21.921875 17.671875 20.9375 
Q 15.4375 19.96875 14.203125 18.09375 
Q 12.984375 16.21875 12.984375 13.921875 
Q 12.984375 10.40625 15.640625 8.0625 
Q 18.3125 5.71875 23.4375 5.71875 
Q 28.515625 5.71875 32.46875 7.9375 
Q 36.421875 10.15625 38.28125 14.015625 
Q 39.703125 17 39.703125 22.796875 
z
" id="ArialMT-97"/>
     <path d="M 6.5 0 
L 6.5 51.859375 
L 14.40625 51.859375 
L 14.40625 44 
Q 17.4375 49.515625 20 51.265625 
Q 22.5625 53.03125 25.640625 53.03125 
Q 30.078125 53.03125 34.671875 50.203125 
L 31.640625 42.046875 
Q 28.421875 43.953125 25.203125 43.953125 
Q 22.3125 43.953125 20.015625 42.21875 
Q 17.71875 40.484375 16.75 37.40625 
Q 15.28125 32.71875 15.28125 27.15625 
L 15.28125 0 
z
" id="ArialMT-114"/>
     <path d="M 4.984375 -4.296875 
L 13.53125 -5.5625 
Q 14.0625 -9.515625 16.5 -11.328125 
Q 19.78125 -13.765625 25.4375 -13.765625 
Q 31.546875 -13.765625 34.859375 -11.328125 
Q 38.1875 -8.890625 39.359375 -4.5 
Q 40.046875 -1.8125 39.984375 6.78125 
Q 34.234375 0 25.640625 0 
Q 14.9375 0 9.078125 7.71875 
Q 3.21875 15.4375 3.21875 26.21875 
Q 3.21875 33.640625 5.90625 39.90625 
Q 8.59375 46.1875 13.6875 49.609375 
Q 18.796875 53.03125 25.6875 53.03125 
Q 34.859375 53.03125 40.828125 45.609375 
L 40.828125 51.859375 
L 48.921875 51.859375 
L 48.921875 7.03125 
Q 48.921875 -5.078125 46.453125 -10.125 
Q 44 -15.1875 38.640625 -18.109375 
Q 33.296875 -21.046875 25.484375 -21.046875 
Q 16.21875 -21.046875 10.5 -16.875 
Q 4.78125 -12.703125 4.984375 -4.296875 
z
M 12.25 26.859375 
Q 12.25 16.65625 16.296875 11.96875 
Q 20.359375 7.28125 26.46875 7.28125 
Q 32.515625 7.28125 36.609375 11.9375 
Q 40.71875 16.609375 40.71875 26.5625 
Q 40.71875 36.078125 36.5 40.90625 
Q 32.28125 45.75 26.3125 45.75 
Q 20.453125 45.75 16.34375 40.984375 
Q 12.25 36.234375 12.25 26.859375 
z
" id="ArialMT-103"/>
     <path d="M 8.6875 0 
L 8.6875 45.015625 
L 0.921875 45.015625 
L 0.921875 51.859375 
L 8.6875 51.859375 
L 8.6875 57.375 
Q 8.6875 62.59375 9.625 65.140625 
Q 10.890625 68.5625 14.078125 70.671875 
Q 17.28125 72.796875 23.046875 72.796875 
Q 26.765625 72.796875 31.25 71.921875 
L 29.9375 64.265625 
Q 27.203125 64.75 24.75 64.75 
Q 20.75 64.75 19.09375 63.03125 
Q 17.4375 61.328125 17.4375 56.640625 
L 17.4375 51.859375 
L 27.546875 51.859375 
L 27.546875 45.015625 
L 17.4375 45.015625 
L 17.4375 0 
z
" id="ArialMT-102"/>
     <path d="M 4.5 23 
L 13.421875 23.78125 
Q 14.0625 18.40625 16.375 14.96875 
Q 18.703125 11.53125 23.578125 9.40625 
Q 28.46875 7.28125 34.578125 7.28125 
Q 39.984375 7.28125 44.140625 8.890625 
Q 48.296875 10.5 50.3125 13.296875 
Q 52.34375 16.109375 52.34375 19.4375 
Q 52.34375 22.796875 50.390625 25.3125 
Q 48.4375 27.828125 43.953125 29.546875 
Q 41.0625 30.671875 31.203125 33.03125 
Q 21.34375 35.40625 17.390625 37.5 
Q 12.25 40.1875 9.734375 44.15625 
Q 7.234375 48.140625 7.234375 53.078125 
Q 7.234375 58.5 10.296875 63.203125 
Q 13.375 67.921875 19.28125 70.359375 
Q 25.203125 72.796875 32.421875 72.796875 
Q 40.375 72.796875 46.453125 70.234375 
Q 52.546875 67.671875 55.8125 62.6875 
Q 59.078125 57.71875 59.328125 51.421875 
L 50.25 50.734375 
Q 49.515625 57.515625 45.28125 60.984375 
Q 41.0625 64.453125 32.8125 64.453125 
Q 24.21875 64.453125 20.28125 61.296875 
Q 16.359375 58.15625 16.359375 53.71875 
Q 16.359375 49.859375 19.140625 47.359375 
Q 21.875 44.875 33.421875 42.265625 
Q 44.96875 39.65625 49.265625 37.703125 
Q 55.515625 34.8125 58.484375 30.390625 
Q 61.46875 25.984375 61.46875 20.21875 
Q 61.46875 14.5 58.203125 9.4375 
Q 54.9375 4.390625 48.796875 1.578125 
Q 42.671875 -1.21875 35.015625 -1.21875 
Q 25.296875 -1.21875 18.71875 1.609375 
Q 12.15625 4.4375 8.421875 10.125 
Q 4.6875 15.828125 4.5 23 
z
" id="ArialMT-83"/>
    </defs>
    <g style="fill:#262626;" transform="translate(101.023125 28.56)scale(0.12 -0.12)">
     <use xlink:href="#ArialMT-69"/>
     <use x="66.699219" xlink:href="#ArialMT-120"/>
     <use x="116.699219" xlink:href="#ArialMT-116"/>
     <use x="144.482422" xlink:href="#ArialMT-105"/>
     <use x="166.699219" xlink:href="#ArialMT-110"/>
     <use x="222.314453" xlink:href="#ArialMT-99"/>
     <use x="272.314453" xlink:href="#ArialMT-116"/>
     <use x="300.097656" xlink:href="#ArialMT-105"/>
     <use x="322.314453" xlink:href="#ArialMT-111"/>
     <use x="377.929688" xlink:href="#ArialMT-110"/>
     <use x="433.544922" xlink:href="#ArialMT-32"/>
     <use x="461.3125" xlink:href="#ArialMT-84"/>
     <use x="522.349609" xlink:href="#ArialMT-105"/>
     <use x="544.566406" xlink:href="#ArialMT-109"/>
     <use x="627.867188" xlink:href="#ArialMT-101"/>
     <use x="683.482422" xlink:href="#ArialMT-115"/>
     <use x="733.482422" xlink:href="#ArialMT-44"/>
     <use x="761.265625" xlink:href="#ArialMT-32"/>
     <use x="789.048828" xlink:href="#ArialMT-49"/>
     <use x="844.664062" xlink:href="#ArialMT-32"/>
     <use x="872.447266" xlink:href="#ArialMT-115"/>
     <use x="922.447266" xlink:href="#ArialMT-116"/>
     <use x="950.230469" xlink:href="#ArialMT-97"/>
     <use x="1005.845703" xlink:href="#ArialMT-114"/>
     <use x="1039.146484" xlink:href="#ArialMT-116"/>
     <use x="1066.929688" xlink:href="#ArialMT-105"/>
     <use x="1089.146484" xlink:href="#ArialMT-110"/>
     <use x="1144.761719" xlink:href="#ArialMT-103"/>
     <use x="1200.376953" xlink:href="#ArialMT-32"/>
     <use x="1228.160156" xlink:href="#ArialMT-105"/>
     <use x="1250.376953" xlink:href="#ArialMT-110"/>
     <use x="1305.992188" xlink:href="#ArialMT-102"/>
     <use x="1333.775391" xlink:href="#ArialMT-101"/>
     <use x="1389.390625" xlink:href="#ArialMT-99"/>
     <use x="1439.390625" xlink:href="#ArialMT-116"/>
     <use x="1467.173828" xlink:href="#ArialMT-105"/>
     <use x="1489.390625" xlink:href="#ArialMT-111"/>
     <use x="1545.005859" xlink:href="#ArialMT-110"/>
     <use x="1600.621094" xlink:href="#ArialMT-44"/>
     <use x="1628.404297" xlink:href="#ArialMT-32"/>
     <use x="1656.1875" xlink:href="#ArialMT-83"/>
     <use x="1722.886719" xlink:href="#ArialMT-99"/>
     <use x="1772.886719" xlink:href="#ArialMT-101"/>
     <use x="1828.501953" xlink:href="#ArialMT-110"/>
     <use x="1884.117188" xlink:href="#ArialMT-32"/>
     <use x="1911.900391" xlink:href="#ArialMT-69"/>
     <use x="1978.599609" xlink:href="#ArialMT-32"/>
    </g>
   </g>
  </g>
 </g>
 <defs>
  <clipPath id="pd1116025c7">
   <rect height="217.44" width="334.8" x="54" y="34.56"/>
  </clipPath>
 </defs>
</svg>
